SplineFontDB: 3.0
FontName: Verdandi-Modern-Roman
FullName: Verdandi Modern Roman
FamilyName: Verdandi Modern
Weight: Roman
Copyright: Copyright \\\\050URW\\\\051++,Copyright 1999 by \\\\050URW\\\\051++ Design & Development; Cyrillic glyphs added by Valek Filippov \\\\050C\\\\051 2001-2002
Version: 1.100
ItalicAngle: 0
UnderlinePosition: -44
UnderlineWidth: 61
Ascent: 860
Descent: 140
sfntRevision: 0x0001199a
LayerCount: 2
Layer: 0 0 "Back"  1
Layer: 1 0 "Fore"  0
XUID: [1021 64 7236 28703]
FSType: 4
OS2Version: 4
OS2_WeightWidthSlopeOnly: 0
OS2_UseTypoMetrics: 1
CreationTime: 1286379176
ModificationTime: 1405374606
PfmFamily: 17
TTFWeight: 400
TTFWidth: 5
LineGap: 0
VLineGap: 0
Panose: 0 0 5 0 0 0 0 0 0 0
OS2TypoAscent: 860
OS2TypoAOffset: 0
OS2TypoDescent: -140
OS2TypoDOffset: 0
OS2TypoLinegap: 0
OS2WinAscent: 1080
OS2WinAOffset: 0
OS2WinDescent: 420
OS2WinDOffset: 0
HheadAscent: 860
HheadAOffset: 0
HheadDescent: -140
HheadDOffset: 0
OS2Vendor: 'UKWN'
OS2CodePages: 20000097.00000000
OS2UnicodeRanges: 00000287.00000000.00000000.00000000
Lookup: 4 0 1 "'liga' Standard Ligatures lookup 1"  {"'liga' Standard Ligatures lookup 1-1"  } ['liga' ('DFLT' <'dflt' > 'cyrl' <'dflt' > 'grek' <'dflt' > 'latn' <'dflt' > ) ]
Lookup: 4 0 1 "CCMP"  {"CCMP"  } ['ccmp' ('DFLT' <'dflt' > 'cyrl' <'dflt' > 'grek' <'dflt' > 'latn' <'dflt' > ) ]
Lookup: 260 0 0 "'mark' Mark Positioning lookup 1"  {"Major marks"  } ['mark' ('DFLT' <'dflt' > 'cyrl' <'dflt' > 'grek' <'dflt' > 'latn' <'dflt' > ) ]
Lookup: 258 0 0 "'kern' Horizontal Kerning in Latin lookup 0"  {"'kern' Horizontal Kerning in Latin lookup 0 subtable"  } ['kern' ('DFLT' <'dflt' > 'latn' <'dflt' > ) ]
MarkAttachClasses: 1
DEI: 91125
LangName: 1033 "" "" "Regular" "" "" "Version 1.001;PS 1.06;hotconv 1.0.50;makeotf.lib2.0.16970 DEVELOPMENT" "" "Please refer to the Copyright section for the font trademark attribution notices." 
GaspTable: 1 65535 11 1
Encoding: UnicodeBmp
UnicodeInterp: none
NameList: Adobe Glyph List

StartChar: .notdef
Encoding: 65536 -1 0
Width: 500
Flags: MW
LayerCount: 2
Fore
SplineSet
0 0 m 1
 0 700 l 1
 500 700 l 1
 500 0 l 1
 0 0 l 1
250 395 m 1
 420 650 l 1
 80 650 l 1
 250 395 l 1
280 350 m 1
 450 95 l 1
 450 605 l 1
 280 350 l 1
80 50 m 1
 420 50 l 1
 250 305 l 1
 80 50 l 1
50 605 m 1
 50 95 l 1
 220 350 l 1
 50 605 l 1
EndSplineSet
EndChar

StartChar: exclam
Encoding: 33 33 2
Width: 296
Flags: HMW
LayerCount: 2
Fore
SplineSet
169 191 m 1
 130 191 l 1
 128 370 125 417 106 511 c 0
 92 581 88 612 88 642 c 0
 88 704 109 736 150 736 c 0
 191 736 211 705 211 641 c 0
 211 612 207 581 193 511 c 0
 174 417 170 367 169 191 c 1
EndSplineSet
Refer: 367 803 S 1 0 0 1 13 0 2
EndChar

StartChar: quotedbl
Encoding: 34 34 3
Width: 389
Flags: HMW
LayerCount: 2
Fore
SplineSet
274 498 m 1
 243 677 l 2
 242 683 242 687 242 693 c 0
 242 718 261 736 285 736 c 0
 310 736 328 718 328 693 c 0
 328 688 328 682 327 677 c 2
 296 498 l 1
 274 498 l 1
EndSplineSet
Refer: 8 39 S 1 0 0 1 2 0 2
EndChar

StartChar: numbersign
Encoding: 35 35 4
Width: 556
Flags: MW
LayerCount: 2
Fore
SplineSet
135 228 m 1
 33 228 l 1
 33 284 l 1
 143 284 l 1
 162 416 l 1
 60 416 l 1
 60 472 l 1
 170 472 l 1
 201 686 l 1
 266 686 l 1
 235 472 l 1
 358 472 l 1
 389 686 l 1
 454 686 l 1
 423 472 l 1
 524 472 l 1
 524 416 l 1
 415 416 l 1
 396 284 l 1
 497 284 l 1
 497 228 l 1
 388 228 l 1
 355 0 l 1
 290 0 l 1
 323 228 l 1
 200 228 l 1
 167 0 l 1
 102 0 l 1
 135 228 l 1
227 416 m 1
 208 284 l 1
 331 284 l 1
 350 416 l 1
 227 416 l 1
EndSplineSet
EndChar

StartChar: dollar
Encoding: 36 36 5
Width: 556
Flags: MW
LayerCount: 2
Fore
SplineSet
298 801 m 1
 298 697 l 1
 407 689 480 630 480 550 c 0
 480 506 456 480 418 480 c 0
 382 480 358 503 358 538 c 0
 358 561 365 572 394 593 c 0
 397 596 400 600 400 603 c 0
 400 624 352 647 298 652 c 1
 298 405 l 1
 304 403 307 402 321 398 c 0
 395 376 432 358 463 328 c 0
 494 297 510 255 510 202 c 0
 510 76 430 -3 298 -10 c 1
 298 -130 l 1
 251 -130 l 1
 251 -11 l 1
 210 -9 191 -6 163 3 c 0
 90 27 45 82 45 148 c 0
 45 198 75 234 116 234 c 0
 150 234 177 207 177 172 c 0
 177 143 165 127 131 107 c 0
 125 104 123 101 123 96 c 0
 123 65 179 37 251 32 c 1
 251 311 l 1
 198 327 168 339 142 354 c 0
 88 387 58 442 58 507 c 0
 58 611 129 681 251 696 c 1
 251 801 l 1
 298 801 l 1
251 420 m 1
 251 650 l 1
 180 644 130 598 130 539 c 0
 130 481 163 449 251 420 c 1
298 298 m 1
 298 33 l 1
 324 36 336 39 353 46 c 0
 403 67 436 115 436 166 c 0
 436 220 403 261 340 285 c 0
 327 290 327 290 298 298 c 1
EndSplineSet
EndChar

StartChar: percent
Encoding: 37 37 6
Width: 833
Flags: MW
LayerCount: 2
Fore
SplineSet
650 722 m 1
 236 0 l 1
 186 0 l 1
 546 631 l 1
 509 609 484 602 450 602 c 0
 429 602 412 605 387 614 c 1
 389 599 390 591 390 582 c 0
 390 521 362 448 319 397 c 0
 275 345 229 321 173 321 c 0
 99 321 45 373 45 445 c 0
 45 512 92 605 151 656 c 0
 190 689 235 708 278 708 c 0
 318 708 343 695 369 661 c 1
 399 644 417 639 442 639 c 0
 506 639 564 668 604 722 c 1
 650 722 l 1
286 669 m 1
 245 655 232 643 194 576 c 0
 147 494 132 455 132 418 c 0
 132 383 155 359 188 359 c 0
 268 359 353 477 353 587 c 0
 353 602 352 612 347 628 c 1
 319 638 304 648 286 669 c 1
675 401 m 0
 743 401 792 351 792 282 c 0
 792 223 762 146 716 89 c 0
 679 42 627 15 575 15 c 0
 500 15 445 66 445 136 c 0
 445 192 472 261 514 314 c 1
 560 370 616 401 675 401 c 0
692 361 m 0
 661 361 635 339 604 288 c 0
 551 202 530 151 530 111 c 0
 530 79 555 54 586 54 c 0
 666 54 754 171 754 280 c 0
 754 325 726 361 692 361 c 0
EndSplineSet
EndChar

StartChar: ampersand
Encoding: 38 38 7
Width: 815
Flags: MW
LayerCount: 2
Fore
SplineSet
731 169 m 1
 775 163 l 1
 770 124 761 95 741 65 c 0
 706 12 664 -11 600 -11 c 0
 545 -11 506 7 458 56 c 1
 393 6 338 -15 266 -15 c 0
 199 -15 145 6 108 46 c 0
 73 84 51 140 51 189 c 0
 51 279 112 357 224 411 c 1
 193 477 182 516 182 560 c 0
 182 666 252 737 357 737 c 0
 450 737 513 682 513 602 c 0
 513 549 483 494 437 462 c 0
 411 444 394 435 340 411 c 1
 400 301 452 221 501 163 c 1
 544 213 571 271 571 314 c 0
 571 345 540 361 481 361 c 2
 471 361 l 1
 471 404 l 1
 753 404 l 1
 753 361 l 1
 742 361 l 2
 710 361 682 351 664 334 c 1
 647 316 647 316 598 225 c 0
 576 185 574 181 532 129 c 1
 572 86 605 68 642 68 c 0
 686 68 719 106 731 169 c 1
319 453 m 1
 339 463 340 463 348 468 c 0
 405 499 433 543 433 600 c 0
 433 655 400 694 354 694 c 0
 309 694 276 653 276 595 c 0
 276 558 290 513 319 453 c 1
243 370 m 1
 183 335 158 298 158 243 c 0
 158 143 238 53 326 53 c 0
 359 53 383 62 427 90 c 1
 342 189 309 240 243 370 c 1
EndSplineSet
EndChar

StartChar: quotesingle
Encoding: 39 39 8
Width: 204
Flags: MW
LayerCount: 2
Fore
SplineSet
91 498 m 1
 60 677 l 2
 59 683 59 688 59 694 c 0
 59 718 78 736 102 736 c 0
 127 736 145 718 145 693 c 0
 145 687 145 682 144 677 c 2
 113 498 l 1
 91 498 l 1
EndSplineSet
EndChar

StartChar: parenleft
Encoding: 40 40 9
Width: 333
Flags: MW
LayerCount: 2
Fore
SplineSet
279 736 m 1
 279 699 l 1
 179 611 139 499 139 307 c 0
 139 115 179 2 279 -86 c 1
 279 -123 l 1
 211 -81 177 -51 139 -3 c 1
 72 86 36 193 36 307 c 0
 36 428 77 543 153 633 c 0
 187 673 219 699 279 736 c 1
EndSplineSet
EndChar

StartChar: parenright
Encoding: 41 41 10
Width: 333
Flags: MW
LayerCount: 2
Fore
SplineSet
54 -123 m 1
 54 -86 l 1
 154 2 194 114 194 307 c 0
 194 499 154 611 54 699 c 1
 54 736 l 1
 122 695 156 665 194 616 c 0
 261 528 297 421 297 307 c 0
 297 186 256 70 180 -19 c 0
 146 -60 114 -86 54 -123 c 1
EndSplineSet
EndChar

StartChar: asterisk
Encoding: 42 42 11
Width: 500
Flags: MW
LayerCount: 2
Fore
SplineSet
239 537 m 1
 239 573 l 2
 239 605 237 613 216 662 c 0
 211 674 208 685 208 692 c 0
 208 714 228 736 249 736 c 0
 270 736 291 715 291 692 c 0
 291 682 290 678 274 640 c 0
 264 618 260 597 260 573 c 2
 260 537 l 1
 291 555 l 2
 318 571 330 583 357 620 c 0
 372 641 383 648 401 648 c 0
 424 648 443 631 443 609 c 0
 443 581 425 565 391 561 c 0
 345 556 330 552 302 536 c 2
 271 518 l 1
 302 500 l 1
 330 485 343 481 391 476 c 0
 425 472 443 456 443 428 c 0
 443 406 424 389 401 389 c 0
 383 389 372 396 357 417 c 0
 330 454 318 466 291 482 c 2
 260 500 l 1
 260 464 l 2
 260 432 263 422 283 374 c 0
 288 362 291 351 291 343 c 0
 291 322 270 300 249 300 c 0
 228 300 207 322 207 344 c 0
 207 351 210 362 215 374 c 0
 237 423 239 432 239 464 c 2
 239 500 l 1
 208 482 l 2
 180 465 169 454 142 416 c 0
 127 396 116 389 98 389 c 0
 75 389 56 406 56 428 c 0
 56 456 74 472 108 476 c 0
 155 481 169 485 197 501 c 2
 228 518 l 1
 197 536 l 2
 170 552 154 556 108 561 c 0
 74 564 56 581 56 609 c 0
 56 630 75 648 98 648 c 0
 116 648 127 641 142 620 c 0
 169 583 182 570 208 555 c 2
 239 537 l 1
EndSplineSet
EndChar

StartChar: plus
Encoding: 43 43 12
Width: 606
Flags: MW
LayerCount: 2
Fore
SplineSet
263 293 m 1
 263 505 l 1
 343 505 l 1
 343 293 l 1
 555 293 l 1
 555 213 l 1
 343 213 l 1
 343 0 l 1
 263 0 l 1
 263 213 l 1
 51 213 l 1
 51 293 l 1
 263 293 l 1
EndSplineSet
EndChar

StartChar: comma
Encoding: 44 44 13
Width: 278
Flags: MW
LayerCount: 2
Fore
SplineSet
87 -183 m 1
 64 -155 l 1
 131 -108 165 -61 165 -19 c 0
 165 -13 163 -10 158 -10 c 2
 155 -10 l 1
 153 -11 143 -11 139 -11 c 0
 98 -11 71 12 71 48 c 0
 71 82 99 108 136 108 c 0
 185 108 218 69 218 9 c 0
 218 -61 176 -122 87 -183 c 1
EndSplineSet
EndChar

StartChar: hyphen
Encoding: 45 45 14
Width: 333
Flags: MW
LayerCount: 2
Fore
SplineSet
42 278 m 1
 291 278 l 1
 291 195 l 1
 42 195 l 1
 42 278 l 1
EndSplineSet
EndChar

StartChar: period
Encoding: 46 46 15
Width: 278
Flags: MW
LayerCount: 2
Fore
SplineSet
137 111 m 0
 171 111 199 83 199 49 c 0
 199 14 171 -14 136 -14 c 0
 102 -14 74 14 74 49 c 0
 74 83 102 111 137 111 c 0
EndSplineSet
EndChar

StartChar: slash
Encoding: 47 47 16
Width: 278
Flags: MW
LayerCount: 2
Fore
SplineSet
244 736 m 1
 302 736 l 1
 35 -14 l 1
 -23 -14 l 1
 244 736 l 1
EndSplineSet
EndChar

StartChar: zero
Encoding: 48 48 17
Width: 556
Flags: MW
LayerCount: 2
Fore
SplineSet
284 704 m 0
 347 704 411 665 450 602 c 0
 492 533 514 445 514 339 c 0
 514 131 416 -15 276 -15 c 0
 141 -15 42 136 42 342 c 0
 42 551 144 704 284 704 c 0
277 661 m 0
 239 661 203 632 180 581 c 0
 160 538 153 479 153 363 c 0
 153 200 161 137 189 90 c 0
 213 50 245 28 278 28 c 0
 316 28 352 58 375 107 c 0
 395 151 402 217 402 357 c 0
 402 494 393 553 366 599 c 0
 342 639 310 661 277 661 c 0
EndSplineSet
EndChar

StartChar: one
Encoding: 49 49 18
Width: 556
Flags: MW
LayerCount: 2
Fore
SplineSet
322 704 m 1
 358 704 l 1
 353 633 351 585 351 536 c 2
 351 123 l 2
 351 68 351 68 358 61 c 1
 366 51 388 47 441 47 c 2
 496 47 l 1
 496 0 l 1
 100 0 l 1
 100 47 l 1
 165 47 l 2
 245 47 254 52 254 94 c 2
 254 123 l 1
 254 524 l 2
 254 583 250 587 192 587 c 2
 104 587 l 1
 104 630 l 1
 196 632 288 663 322 704 c 1
EndSplineSet
EndChar

StartChar: two
Encoding: 50 50 19
Width: 556
Flags: MW
LayerCount: 2
Fore
SplineSet
505 216 m 1
 486 0 l 1
 35 0 l 1
 35 28 l 1
 79 86 97 109 133 151 c 1
 211 235 l 1
 270 297 l 2
 353 385 388 452 388 526 c 0
 388 610 338 661 256 661 c 0
 209 661 167 643 142 613 c 0
 128 596 118 573 118 558 c 0
 118 545 120 544 157 528 c 0
 179 519 193 496 193 471 c 0
 193 435 168 410 131 410 c 0
 83 410 51 453 51 516 c 0
 51 622 149 704 276 704 c 0
 406 704 501 622 501 509 c 0
 501 461 485 416 453 372 c 0
 430 342 391 307 300 237 c 0
 236 187 213 166 144 94 c 1
 368 94 l 2
 430 94 438 101 451 165 c 2
 461 216 l 1
 505 216 l 1
EndSplineSet
EndChar

StartChar: three
Encoding: 51 51 20
Width: 556
Flags: MW
LayerCount: 2
Fore
SplineSet
346 368 m 1
 449 339 498 282 498 188 c 0
 498 65 403 -15 259 -15 c 0
 131 -15 42 52 42 149 c 0
 42 201 71 237 113 237 c 0
 150 237 177 210 177 174 c 0
 177 149 166 132 138 115 c 0
 118 104 116 102 116 93 c 0
 116 62 184 28 247 28 c 0
 336 28 387 87 387 190 c 0
 387 289 347 342 273 342 c 0
 265 342 264 342 226 341 c 0
 213 340 205 340 202 340 c 0
 182 340 171 348 171 365 c 0
 171 383 182 392 203 392 c 0
 209 392 217 392 225 391 c 0
 240 390 256 389 265 389 c 0
 337 389 375 438 375 531 c 0
 375 616 337 661 265 661 c 0
 209 661 150 631 150 603 c 0
 150 597 153 592 163 585 c 0
 186 569 194 555 194 534 c 0
 194 498 170 474 135 474 c 0
 97 474 69 503 69 544 c 0
 69 635 158 704 275 704 c 0
 399 704 479 636 479 532 c 0
 479 461 439 405 369 376 c 0
 362 373 360 373 346 368 c 1
EndSplineSet
EndChar

StartChar: four
Encoding: 52 52 21
Width: 556
Flags: MW
LayerCount: 2
Fore
SplineSet
368 704 m 1
 411 704 l 1
 406 629 406 629 406 504 c 2
 406 231 l 1
 527 231 l 1
 527 175 l 1
 406 175 l 1
 406 123 l 1
 406 94 l 2
 406 52 415 47 496 47 c 2
 500 47 l 1
 500 0 l 1
 208 0 l 1
 208 47 l 1
 219 47 l 2
 300 47 309 52 309 94 c 2
 309 123 l 1
 309 175 l 1
 28 175 l 1
 28 231 l 1
 368 704 l 1
309 231 m 1
 309 534 l 1
 89 231 l 1
 309 231 l 1
EndSplineSet
EndChar

StartChar: five
Encoding: 53 53 22
Width: 556
Flags: MW
LayerCount: 2
Fore
SplineSet
164 591 m 1
 147 421 l 1
 202 444 234 451 276 451 c 0
 411 451 502 360 502 224 c 0
 502 77 403 -15 246 -15 c 0
 194 -15 153 -4 119 18 c 1
 74 49 45 99 45 149 c 0
 45 196 77 233 117 233 c 0
 153 233 180 206 180 171 c 0
 180 144 171 131 140 112 c 0
 128 105 122 97 122 90 c 0
 122 59 184 28 244 28 c 0
 285 28 326 42 346 63 c 0
 376 94 393 151 393 218 c 0
 393 332 339 401 250 401 c 0
 210 401 177 390 142 365 c 1
 138 325 122 304 97 304 c 0
 78 304 65 318 65 338 c 0
 65 354 72 367 93 389 c 1
 107 513 116 620 120 704 c 1
 225 679 262 674 326 674 c 0
 383 674 410 679 459 700 c 0
 464 703 469 704 472 704 c 0
 477 704 480 701 480 695 c 0
 480 687 476 678 465 659 c 0
 432 604 370 574 285 574 c 0
 246 574 218 578 164 591 c 1
EndSplineSet
EndChar

StartChar: six
Encoding: 54 54 23
Width: 556
Flags: MW
LayerCount: 2
Fore
SplineSet
153 340 m 1
 200 403 250 430 318 430 c 0
 431 430 516 342 516 224 c 0
 516 161 490 95 447 51 c 0
 405 7 351 -15 286 -15 c 0
 138 -15 42 113 42 308 c 0
 42 417 73 521 127 598 c 0
 175 665 252 704 334 704 c 0
 428 704 498 653 498 584 c 0
 498 542 470 512 432 512 c 0
 397 512 371 537 371 571 c 0
 371 585 376 599 386 618 c 0
 390 625 391 628 391 632 c 0
 391 650 370 661 335 661 c 0
 272 661 219 620 190 549 c 1
 168 498 163 465 153 340 c 1
291 369 m 0
 210 369 160 306 160 203 c 0
 160 166 168 132 184 101 c 0
 208 53 243 28 288 28 c 0
 361 28 407 102 407 217 c 0
 407 312 363 369 291 369 c 0
EndSplineSet
EndChar

StartChar: seven
Encoding: 55 55 24
Width: 556
Flags: MW
LayerCount: 2
Fore
SplineSet
59 462 m 1
 90 704 l 1
 199 697 267 694 352 694 c 0
 413 694 446 695 508 700 c 1
 508 671 l 1
 502 658 499 649 498 647 c 2
 453 553 l 1
 357 341 332 263 332 143 c 0
 332 131 333 118 333 105 c 2
 333 99 l 2
 333 17 314 -14 267 -14 c 0
 228 -14 204 15 204 60 c 0
 204 102 221 165 251 240 c 0
 276 301 284 318 359 467 c 2
 427 604 l 1
 400 603 379 603 365 603 c 0
 324 603 252 606 194 609 c 0
 186 610 177 610 172 610 c 0
 143 610 136 600 121 534 c 2
 103 455 l 1
 59 462 l 1
EndSplineSet
EndChar

StartChar: eight
Encoding: 56 56 25
Width: 556
Flags: MW
LayerCount: 2
Fore
SplineSet
374 390 m 1
 412 373 430 362 450 345 c 0
 491 309 513 258 513 201 c 0
 513 140 487 79 444 42 c 1
 403 5 341 -15 267 -15 c 0
 203 -15 149 0 110 28 c 1
 68 60 41 114 41 168 c 0
 41 219 63 267 102 299 c 0
 124 317 143 327 187 344 c 1
 151 363 135 374 118 394 c 0
 90 425 74 470 74 513 c 0
 74 623 163 704 285 704 c 0
 400 704 484 637 484 545 c 0
 484 480 449 431 374 390 c 1
267 429 m 2
 333 405 l 1
 390 453 410 487 410 539 c 0
 410 612 359 661 282 661 c 0
 203 661 151 618 151 555 c 0
 151 497 186 459 267 429 c 2
325 291 m 2
 233 324 l 1
 155 288 124 243 124 168 c 0
 124 80 179 28 272 28 c 0
 370 28 433 79 433 159 c 0
 433 225 401 264 325 291 c 2
EndSplineSet
EndChar

StartChar: nine
Encoding: 57 57 26
Width: 556
Flags: MW
LayerCount: 2
Fore
SplineSet
404 347 m 1
 350 279 308 256 237 256 c 0
 123 256 39 344 39 463 c 0
 39 598 140 704 268 704 c 0
 417 704 513 575 513 374 c 0
 513 271 486 174 437 100 c 0
 388 26 310 -15 219 -15 c 0
 127 -15 57 35 57 101 c 0
 57 141 87 173 125 173 c 0
 158 173 184 147 184 114 c 0
 184 100 182 94 170 70 c 0
 166 62 164 57 164 53 c 0
 164 38 187 28 220 28 c 0
 287 28 342 71 368 145 c 0
 386 196 391 226 404 347 c 1
272 661 m 0
 228 661 201 645 178 606 c 1
 159 576 148 529 148 481 c 0
 148 375 191 316 267 316 c 0
 310 316 349 338 372 374 c 0
 387 397 395 434 395 475 c 0
 395 587 346 661 272 661 c 0
EndSplineSet
EndChar

StartChar: less
Encoding: 60 60 29
Width: 606
Flags: MW
LayerCount: 2
Fore
SplineSet
558 438 m 1
 160 253 l 1
 558 68 l 1
 558 -17 l 1
 49 215 l 1
 49 291 l 1
 558 523 l 1
 558 438 l 1
EndSplineSet
EndChar

StartChar: greater
Encoding: 62 62 31
Width: 606
Flags: MW
LayerCount: 2
Fore
SplineSet
48 438 m 1
 48 523 l 1
 557 291 l 1
 557 215 l 1
 48 -17 l 1
 48 68 l 1
 446 253 l 1
 48 438 l 1
EndSplineSet
EndChar

StartChar: question
Encoding: 63 63 32
Width: 444
Flags: MW
LayerCount: 2
Fore
SplineSet
217 191 m 1
 173 191 l 1
 173 223 l 2
 173 270 177 296 187 324 c 0
 200 359 200 359 274 460 c 1
 294 489 306 527 306 568 c 0
 306 645 265 691 194 691 c 0
 146 691 102 667 102 641 c 0
 102 633 103 631 118 619 c 0
 137 603 147 586 147 566 c 0
 147 535 122 511 90 511 c 0
 53 511 25 544 25 588 c 0
 25 674 107 736 220 736 c 0
 334 736 411 666 411 562 c 0
 411 492 389 458 291 371 c 1
 229 318 217 291 217 202 c 2
 217 191 l 1
EndSplineSet
Refer: 367 803 S 1 0 0 1 56 -1 2
EndChar

StartChar: at
Encoding: 64 64 33
Width: 737
Flags: MW
LayerCount: 2
Fore
SplineSet
637 188 m 1
 698 188 l 1
 679 144 649 105 606 66 c 0
 547 14 471 -14 391 -14 c 0
 194 -14 43 146 43 356 c 0
 43 464 80 563 146 632 c 0
 209 697 300 736 389 736 c 0
 563 736 705 601 705 435 c 0
 705 344 664 254 596 198 c 0
 557 165 514 147 477 147 c 0
 436 147 408 173 408 212 c 0
 408 219 408 224 409 232 c 1
 370 174 341 153 301 153 c 0
 268 153 232 171 209 198 c 0
 187 224 176 260 176 302 c 0
 176 363 199 424 240 471 c 1
 279 514 333 543 377 543 c 0
 415 543 443 519 455 478 c 1
 471 534 l 1
 559 534 l 1
 486 245 l 2
 483 233 482 223 482 215 c 0
 482 201 493 191 508 191 c 0
 534 191 570 218 600 260 c 0
 632 306 653 373 653 428 c 0
 653 496 622 567 570 616 c 0
 522 662 464 685 394 685 c 0
 223 685 99 549 99 361 c 0
 99 172 224 37 399 37 c 0
 498 37 581 89 637 188 c 1
391 502 m 0
 368 502 345 487 328 460 c 0
 291 403 266 327 266 271 c 0
 266 222 284 193 314 193 c 0
 345 193 376 225 400 280 c 0
 421 327 436 391 436 430 c 0
 436 474 419 502 391 502 c 0
EndSplineSet
EndChar

StartChar: A
Encoding: 65 65 34
Width: 722
Flags: MW
LayerCount: 2
Fore
SplineSet
378 736 m 1
 633 111 l 2
 656 55 667 47 717 47 c 2
 731 47 l 1
 731 0 l 1
 421 0 l 1
 421 47 l 1
 463 47 l 2
 500 47 525 57 525 73 c 0
 525 78 523 85 517 100 c 2
 463 234 l 1
 198 234 l 1
 165 146 l 2
 159 130 156 116 156 104 c 0
 156 66 183 47 237 47 c 2
 257 47 l 5
 257 0 l 1
 -8 0 l 1
 -8 47 l 1
 -4 47 l 2
 23 47 51 59 67 78 c 1
 82 94 86 101 106 153 c 2
 336 736 l 1
 378 736 l 1
329 572 m 1
 218 288 l 1
 442 288 l 1
 329 572 l 1
EndSplineSet
EndChar

StartChar: B
Encoding: 66 66 35
Width: 722
Flags: MW
LayerCount: 2
Fore
SplineSet
30 722 m 1
 389 722 l 2
 448 722 498 714 534 698 c 0
 592 673 632 610 632 546 c 0
 632 495 607 446 565 415 c 0
 540 396 518 387 470 377 c 1
 606 353 670 295 670 196 c 0
 670 74 566 0 393 0 c 2
 30 0 l 1
 30 47 l 1
 48 47 l 2
 129 47 138 52 138 94 c 2
 138 123 l 1
 138 599 l 1
 138 628 l 2
 138 670 129 675 48 675 c 2
 30 675 l 1
 30 722 l 1
250 397 m 1
 339 397 l 2
 467 397 516 435 516 533 c 0
 516 589 497 632 461 654 c 0
 440 668 402 675 356 675 c 2
 316 675 l 2
 264 675 250 664 250 625 c 2
 250 397 l 1
250 350 m 1
 250 110 l 2
 250 55 257 47 308 47 c 2
 350 47 l 2
 413 47 455 54 486 70 c 0
 525 89 547 136 547 199 c 0
 547 265 522 309 475 331 c 0
 445 344 402 350 338 350 c 2
 250 350 l 1
EndSplineSet
EndChar

StartChar: C
Encoding: 67 67 36
Width: 722
Flags: MW
LayerCount: 2
Fore
SplineSet
639 729 m 1
 654 440 l 1
 610 440 l 1
 587 517 572 556 553 589 c 0
 515 653 453 690 383 690 c 0
 319 690 257 655 226 599 c 0
 192 539 177 463 177 350 c 0
 177 135 247 32 395 32 c 0
 476 32 540 67 581 136 c 0
 599 166 611 202 621 255 c 1
 668 247 l 1
 645 79 543 -15 383 -15 c 0
 186 -15 45 139 45 354 c 0
 45 457 75 541 139 617 c 0
 207 698 287 737 384 737 c 0
 451 737 490 722 561 670 c 1
 601 729 l 1
 639 729 l 1
EndSplineSet
EndChar

StartChar: D
Encoding: 68 68 37
Width: 778
Flags: MW
LayerCount: 2
Fore
SplineSet
137 123 m 1
 137 599 l 1
 137 628 l 2
 137 670 128 675 48 675 c 2
 29 675 l 1
 29 722 l 1
 347 722 l 2
 461 722 535 706 590 671 c 0
 682 611 732 502 732 365 c 0
 732 215 676 101 575 44 c 0
 522 14 454 0 365 0 c 2
 29 0 l 1
 29 47 l 1
 48 47 l 2
 128 47 137 52 137 94 c 2
 137 123 l 1
306 47 m 2
 374 47 l 2
 535 47 600 137 600 361 c 0
 600 582 529 675 358 675 c 2
 306 675 l 2
 256 675 249 668 249 619 c 2
 249 102 l 2
 249 53 256 47 306 47 c 2
EndSplineSet
EndChar

StartChar: E
Encoding: 69 69 38
Width: 722
Flags: MW
LayerCount: 2
Fore
SplineSet
630 722 m 1
 644 466 l 1
 601 466 l 1
 586 556 562 612 529 638 c 0
 495 666 452 675 364 675 c 2
 312 675 l 2
 258 675 249 668 249 625 c 2
 249 397 l 1
 273 397 l 2
 368 397 408 436 413 534 c 1
 460 534 l 1
 460 206 l 1
 413 206 l 1
 411 265 401 297 375 323 c 0
 355 344 330 350 269 350 c 2
 249 350 l 1
 249 95 l 2
 249 74 250 68 257 62 c 0
 266 53 291 47 321 47 c 2
 387 47 l 2
 471 47 528 66 559 106 c 1
 583 135 606 197 619 267 c 1
 663 267 l 1
 643 0 l 1
 29 0 l 1
 29 47 l 1
 47 47 l 2
 128 47 137 52 137 94 c 2
 137 123 l 1
 137 599 l 1
 137 628 l 2
 137 670 128 675 47 675 c 2
 29 675 l 1
 29 722 l 1
 630 722 l 1
EndSplineSet
EndChar

StartChar: F
Encoding: 70 70 39
Width: 667
Flags: MW
LayerCount: 2
Fore
SplineSet
624 722 m 1
 638 466 l 1
 594 466 l 1
 566 637 523 675 358 675 c 2
 312 675 l 2
 258 675 249 668 249 625 c 2
 249 397 l 1
 273 397 l 2
 368 397 408 436 413 534 c 1
 460 534 l 1
 460 206 l 1
 413 206 l 1
 411 265 401 297 376 323 c 0
 355 344 331 350 269 350 c 2
 249 350 l 1
 249 123 l 1
 249 94 l 2
 249 52 258 47 339 47 c 2
 372 47 l 1
 372 0 l 1
 29 0 l 1
 29 47 l 1
 47 47 l 2
 128 47 137 52 137 94 c 2
 137 123 l 1
 137 599 l 1
 137 628 l 2
 137 670 128 675 47 675 c 2
 29 675 l 1
 29 722 l 1
 624 722 l 1
EndSplineSet
EndChar

StartChar: G
Encoding: 71 71 40
Width: 778
Flags: MW
LayerCount: 2
Fore
SplineSet
650 729 m 1
 664 448 l 1
 621 448 l 1
 580 608 501 690 387 690 c 0
 248 690 174 571 174 348 c 0
 174 241 190 170 227 115 c 0
 261 65 326 32 390 32 c 0
 455 32 519 66 544 115 c 0
 556 139 564 179 564 222 c 0
 564 277 557 282 473 282 c 2
 454 282 l 1
 454 329 l 1
 772 329 l 1
 772 282 l 1
 757 282 l 2
 703 282 682 278 673 268 c 0
 667 261 667 260 667 206 c 2
 667 -14 l 1
 625 -14 l 1
 588 76 l 1
 523 11 464 -15 380 -15 c 0
 284 -15 192 26 130 96 c 0
 72 161 42 246 42 348 c 0
 42 483 88 584 187 664 c 0
 250 715 312 737 391 737 c 0
 464 737 508 720 573 668 c 1
 612 729 l 1
 650 729 l 1
EndSplineSet
EndChar

StartChar: H
Encoding: 72 72 41
Width: 833
Flags: MW
LayerCount: 2
Fore
SplineSet
584 347 m 1
 249 347 l 1
 249 123 l 1
 249 94 l 2
 249 52 258 47 339 47 c 2
 358 47 l 1
 358 0 l 1
 29 0 l 1
 29 47 l 1
 47 47 l 2
 128 47 137 52 137 94 c 2
 137 123 l 1
 137 599 l 1
 137 628 l 2
 137 670 128 675 47 675 c 2
 29 675 l 1
 29 722 l 1
 358 722 l 1
 358 675 l 1
 339 675 l 2
 258 675 249 670 249 628 c 2
 249 599 l 1
 249 401 l 1
 584 401 l 1
 584 599 l 1
 584 628 l 2
 584 670 575 675 494 675 c 2
 480 675 l 1
 480 722 l 1
 804 722 l 1
 804 675 l 1
 786 675 l 2
 705 675 696 670 696 628 c 2
 696 599 l 1
 696 123 l 1
 696 94 l 2
 696 52 705 47 786 47 c 2
 804 47 l 1
 804 0 l 1
 476 0 l 1
 476 47 l 1
 494 47 l 2
 575 47 584 52 584 94 c 2
 584 123 l 1
 584 347 l 1
EndSplineSet
EndChar

StartChar: I
Encoding: 73 73 42
Width: 407
Flags: MW
LayerCount: 2
Fore
SplineSet
260 599 m 1
 260 123 l 1
 260 94 l 2
 260 52 269 47 349 47 c 2
 369 47 l 1
 369 0 l 1
 38 0 l 1
 38 47 l 1
 58 47 l 2
 139 47 148 52 148 94 c 2
 148 123 l 1
 148 599 l 1
 148 628 l 2
 148 670 139 675 58 675 c 2
 38 675 l 1
 38 722 l 1
 369 722 l 1
 369 675 l 1
 349 675 l 2
 269 675 260 670 260 628 c 2
 260 599 l 1
EndSplineSet
EndChar

StartChar: J
Encoding: 74 74 43
Width: 556
Flags: MW
LayerCount: 2
Fore
SplineSet
428 599 m 1
 428 268 l 2
 428 171 417 110 391 70 c 0
 356 14 292 -15 204 -15 c 0
 143 -15 96 -1 63 28 c 1
 27 58 5 107 5 155 c 0
 5 226 47 277 105 277 c 0
 149 277 180 247 180 205 c 0
 180 164 153 133 117 133 c 0
 106 133 97 134 80 138 c 1
 77 138 l 2
 70 138 65 131 65 122 c 0
 65 110 73 90 84 76 c 0
 105 49 144 32 186 32 c 0
 244 32 285 62 304 119 c 0
 314 149 317 189 317 277 c 2
 317 599 l 1
 317 628 l 2
 317 670 308 675 228 675 c 2
 209 675 l 1
 209 722 l 1
 537 722 l 1
 537 675 l 1
 518 675 l 2
 437 675 428 670 428 628 c 2
 428 599 l 1
EndSplineSet
EndChar

StartChar: K
Encoding: 75 75 44
Width: 778
Flags: MW
LayerCount: 2
Fore
SplineSet
250 327 m 1
 495 573 l 2
 524 602 544 631 544 645 c 0
 544 666 525 675 479 675 c 2
 454 675 l 1
 454 722 l 1
 762 722 l 1
 762 675 l 1
 702 675 641 646 593 595 c 1
 444 446 l 1
 686 97 l 2
 715 54 729 47 784 47 c 2
 803 47 l 1
 803 0 l 1
 461 0 l 1
 461 47 l 1
 492 47 l 2
 541 47 560 54 560 70 c 0
 560 80 556 88 540 112 c 2
 366 367 l 1
 250 250 l 1
 250 123 l 1
 250 94 l 2
 250 52 259 47 340 47 c 2
 359 47 l 1
 359 0 l 1
 30 0 l 1
 30 47 l 1
 48 47 l 2
 129 47 138 52 138 94 c 2
 138 123 l 1
 138 599 l 1
 138 628 l 2
 138 670 129 675 48 675 c 2
 30 675 l 1
 30 722 l 1
 359 722 l 1
 359 675 l 1
 340 675 l 2
 259 675 250 670 250 628 c 2
 250 599 l 1
 250 327 l 1
EndSplineSet
EndChar

StartChar: L
Encoding: 76 76 45
Width: 667
Flags: MW
LayerCount: 2
Fore
SplineSet
646 274 m 1
 625 0 l 1
 35 0 l 1
 35 47 l 1
 53 47 l 2
 134 47 143 52 143 94 c 2
 143 123 l 1
 143 599 l 1
 143 628 l 2
 143 670 134 675 53 675 c 2
 35 675 l 1
 35 722 l 1
 363 722 l 1
 363 675 l 1
 345 675 l 2
 264 675 255 670 255 628 c 2
 255 599 l 1
 255 95 l 2
 255 74 256 68 263 62 c 0
 272 53 297 47 327 47 c 2
 369 47 l 2
 453 47 511 66 542 105 c 0
 568 138 592 206 602 274 c 1
 646 274 l 1
EndSplineSet
EndChar

StartChar: M
Encoding: 77 77 46
Width: 944
Flags: MW
LayerCount: 2
Fore
SplineSet
287 722 m 1
 479 189 l 1
 662 722 l 1
 913 722 l 1
 913 675 l 1
 895 675 l 2
 814 675 805 670 805 628 c 2
 805 599 l 1
 805 123 l 1
 805 94 l 2
 805 51 814 47 895 47 c 2
 913 47 l 1
 913 0 l 1
 585 0 l 1
 585 47 l 1
 603 47 l 2
 684 47 693 51 693 94 c 2
 693 123 l 1
 693 658 l 1
 470 0 l 1
 430 0 l 1
 192 658 l 1
 192 216 l 2
 192 80 212 51 307 47 c 1
 307 0 l 1
 22 0 l 1
 22 47 l 1
 118 51 138 80 138 216 c 2
 138 599 l 1
 138 628 l 2
 138 670 129 675 48 675 c 2
 29 675 l 1
 29 722 l 1
 287 722 l 1
EndSplineSet
EndChar

StartChar: N
Encoding: 78 78 47
Width: 815
Flags: MW
LayerCount: 2
Fore
SplineSet
225 722 m 1
 624 191 l 1
 624 505 l 2
 624 642 604 671 509 675 c 1
 509 722 l 1
 794 722 l 1
 794 675 l 1
 698 671 678 642 678 505 c 2
 678 -14 l 1
 636 -14 l 1
 190 588 l 1
 190 217 l 2
 190 80 210 51 305 47 c 1
 305 0 l 1
 20 0 l 1
 20 47 l 1
 116 51 136 80 136 217 c 2
 136 642 l 1
 118 667 95 675 44 675 c 2
 19 675 l 1
 19 722 l 1
 225 722 l 1
EndSplineSet
EndChar

StartChar: O
Encoding: 79 79 48
Width: 778
Flags: MW
LayerCount: 2
Fore
SplineSet
393 737 m 0
 585 737 733 573 733 361 c 0
 733 147 585 -15 389 -15 c 0
 194 -15 45 147 45 360 c 0
 45 474 90 582 167 653 c 0
 228 709 304 737 393 737 c 0
392 690 m 0
 317 690 264 662 227 604 c 1
 190 544 177 483 177 363 c 0
 177 239 189 179 227 118 c 0
 263 62 318 32 389 32 c 0
 460 32 515 62 551 118 c 1
 588 178 601 239 601 361 c 0
 601 483 588 545 551 604 c 1
 515 659 459 690 392 690 c 0
EndSplineSet
EndChar

StartChar: P
Encoding: 80 80 49
Width: 667
Flags: MW
LayerCount: 2
Fore
SplineSet
248 321 m 1
 248 123 l 1
 248 94 l 2
 248 52 257 47 338 47 c 2
 364 47 l 1
 364 0 l 1
 28 0 l 1
 28 47 l 1
 46 47 l 2
 127 47 136 52 136 94 c 2
 136 123 l 1
 136 599 l 1
 136 628 l 2
 136 670 127 675 46 675 c 2
 28 675 l 1
 28 722 l 1
 378 722 l 2
 447 722 509 711 548 691 c 0
 614 658 649 600 649 524 c 0
 649 445 609 381 538 347 c 0
 498 328 451 321 361 321 c 2
 248 321 l 1
248 368 m 1
 369 368 l 2
 475 368 526 417 526 520 c 0
 526 626 477 675 373 675 c 2
 309 675 l 2
 254 675 248 670 248 624 c 2
 248 368 l 1
EndSplineSet
EndChar

StartChar: Q
Encoding: 81 81 50
Width: 778
Flags: MW
LayerCount: 2
Fore
SplineSet
703 -20 m 1
 748 -20 l 1
 748 -23 l 2
 748 -126 699 -189 620 -189 c 0
 538 -189 488 -120 484 0 c 1
 451 -11 429 -15 395 -15 c 0
 200 -15 45 151 45 360 c 0
 45 474 93 583 175 656 c 0
 236 711 306 737 388 737 c 0
 581 737 734 574 734 369 c 0
 734 241 680 129 576 43 c 1
 610 -66 634 -108 663 -108 c 0
 688 -108 698 -84 703 -20 c 1
550 119 m 1
 588 181 602 246 602 363 c 0
 602 465 590 535 561 591 c 0
 530 653 466 690 390 690 c 0
 317 690 259 658 228 602 c 0
 194 541 177 458 177 360 c 0
 177 244 196 164 236 111 c 1
 235 119 235 126 235 129 c 0
 235 209 295 265 379 265 c 0
 463 265 524 213 550 119 c 1
480 54 m 1
 480 64 l 2
 480 162 442 218 374 218 c 0
 319 218 281 178 281 119 c 0
 281 64 320 32 386 32 c 0
 425 32 449 38 480 54 c 1
EndSplineSet
EndChar

StartChar: R
Encoding: 82 82 51
Width: 722
Flags: MW
LayerCount: 2
Fore
SplineSet
246 350 m 1
 246 122 l 1
 246 94 l 2
 246 52 255 47 336 47 c 2
 354 47 l 1
 354 0 l 1
 26 0 l 1
 26 47 l 1
 44 47 l 2
 125 47 134 52 134 94 c 2
 134 122 l 1
 134 599 l 1
 134 628 l 2
 134 670 125 675 44 675 c 2
 26 675 l 1
 26 722 l 1
 372 722 l 2
 540 722 636 657 636 543 c 0
 636 442 567 384 423 364 c 1
 501 344 540 302 562 210 c 1
 578 147 l 2
 595 78 605 61 628 61 c 0
 655 61 667 91 671 160 c 1
 713 160 l 1
 710 40 671 -15 589 -15 c 0
 510 -15 473 31 461 144 c 2
 456 195 l 2
 449 261 434 297 405 320 c 0
 383 338 343 350 304 350 c 2
 246 350 l 1
246 397 m 1
 356 397 l 2
 404 397 449 410 474 431 c 0
 500 452 513 491 513 542 c 0
 513 633 468 675 369 675 c 2
 315 675 l 2
 272 675 265 674 257 668 c 0
 247 660 246 657 246 617 c 2
 246 397 l 1
EndSplineSet
EndChar

StartChar: S
Encoding: 83 83 52
Width: 630
Flags: MW
LayerCount: 2
Fore
SplineSet
546 728 m 1
 558 468 l 1
 515 468 l 1
 502 519 484 561 455 602 c 0
 415 659 358 689 288 689 c 0
 203 689 146 641 146 571 c 0
 146 510 188 471 277 448 c 2
 384 421 l 2
 464 401 503 384 530 358 c 0
 569 320 590 267 590 205 c 0
 590 71 496 -15 349 -15 c 0
 262 -15 206 5 139 60 c 1
 94 -8 l 1
 55 -8 l 1
 51 277 l 1
 94 277 l 1
 109 200 130 153 172 106 c 0
 219 54 272 31 346 31 c 0
 401 31 434 42 467 71 c 0
 497 98 512 131 512 171 c 0
 512 210 496 243 466 266 c 0
 445 282 438 284 364 303 c 2
 269 327 l 2
 122 365 68 419 68 528 c 0
 68 653 156 737 287 737 c 0
 358 737 422 713 469 668 c 1
 509 728 l 1
 546 728 l 1
EndSplineSet
EndChar

StartChar: T
Encoding: 84 84 53
Width: 667
Flags: MW
LayerCount: 2
Fore
SplineSet
633 722 m 1
 648 444 l 1
 605 444 l 1
 597 501 587 544 572 581 c 0
 547 641 498 675 437 675 c 0
 404 675 390 664 390 639 c 2
 390 123 l 1
 390 94 l 2
 390 52 399 47 479 47 c 2
 505 47 l 1
 505 0 l 1
 162 0 l 1
 162 47 l 1
 188 47 l 2
 269 47 278 52 278 94 c 2
 278 123 l 1
 278 639 l 2
 278 664 264 675 231 675 c 0
 163 675 115 637 89 564 c 0
 78 532 69 494 62 444 c 1
 19 444 l 1
 34 722 l 1
 633 722 l 1
EndSplineSet
EndChar

StartChar: U
Encoding: 85 85 54
Width: 815
Flags: MW
LayerCount: 2
Fore
SplineSet
683 505 m 2
 683 278 l 2
 683 189 671 136 639 90 c 0
 591 19 513 -15 400 -15 c 0
 287 -15 199 22 153 88 c 0
 134 116 126 148 123 201 c 1
 123 270 l 1
 123 599 l 1
 123 628 l 2
 123 670 114 675 34 675 c 2
 17 675 l 1
 17 722 l 1
 344 722 l 1
 344 675 l 1
 325 675 l 2
 244 675 235 670 235 628 c 2
 235 599 l 1
 235 264 l 2
 235 171 240 147 267 110 c 0
 300 65 359 39 427 39 c 0
 508 39 573 75 605 137 c 0
 624 172 629 204 629 284 c 2
 629 505 l 2
 629 642 609 671 514 675 c 1
 514 722 l 1
 799 722 l 1
 799 675 l 1
 703 671 683 642 683 505 c 2
EndSplineSet
EndChar

StartChar: V
Encoding: 86 86 55
Width: 722
Flags: MW
LayerCount: 2
Fore
SplineSet
393 155 m 1
 548 567 l 2
 555 586 560 609 560 623 c 0
 560 655 530 675 479 675 c 2
 460 675 l 1
 460 722 l 1
 731 722 l 1
 731 675 l 1
 721 675 l 2
 664 675 642 655 612 577 c 2
 382 -15 l 1
 342 -15 l 1
 89 619 l 2
 70 665 57 675 12 675 c 2
 -8 675 l 1
 -8 722 l 1
 304 722 l 1
 304 675 l 1
 264 675 l 2
 219 675 202 668 202 650 c 0
 202 644 205 632 210 620 c 2
 393 155 l 1
EndSplineSet
EndChar

StartChar: W
Encoding: 87 87 56
Width: 981
Flags: MW
LayerCount: 2
Fore
SplineSet
349 182 m 1
 465 566 l 1
 439 644 l 2
 431 668 417 675 376 675 c 2
 353 675 l 1
 353 722 l 1
 642 722 l 1
 642 675 l 1
 626 675 l 2
 587 675 580 674 569 670 c 0
 560 666 554 657 554 648 c 0
 554 641 555 639 561 620 c 2
 699 182 l 1
 819 588 l 2
 823 599 825 613 825 623 c 0
 825 658 797 675 739 675 c 2
 731 675 l 1
 731 722 l 1
 976 722 l 1
 976 675 l 1
 972 675 l 2
 939 675 914 663 898 639 c 0
 887 623 882 611 871 572 c 2
 695 -15 l 1
 654 -15 l 1
 492 482 l 1
 344 -15 l 1
 301 -15 l 1
 85 636 l 2
 73 671 67 675 25 675 c 2
 6 675 l 1
 6 722 l 1
 288 722 l 1
 288 675 l 1
 243 675 l 2
 211 675 200 670 200 655 c 0
 200 650 202 639 205 630 c 2
 349 182 l 1
EndSplineSet
EndChar

StartChar: X
Encoding: 88 88 57
Width: 704
Flags: MW
LayerCount: 2
Fore
SplineSet
389 400 m 1
 599 99 l 2
 633 50 640 47 704 47 c 2
 716 47 l 1
 716 0 l 1
 388 0 l 1
 388 47 l 1
 416 47 l 1
 479 48 483 49 483 65 c 0
 483 73 478 84 470 96 c 2
 321 307 l 1
 205 139 l 2
 195 124 189 108 189 95 c 0
 189 65 214 47 254 47 c 2
 279 47 l 1
 279 0 l 1
 -5 0 l 1
 -5 47 l 1
 -1 47 l 2
 50 47 91 71 130 127 c 1
 292 352 l 1
 95 637 l 2
 72 670 60 675 11 675 c 2
 -6 675 l 1
 -6 722 l 1
 303 722 l 1
 303 675 l 1
 265 675 l 2
 227 675 217 672 217 662 c 0
 217 657 221 647 228 637 c 2
 361 445 l 1
 469 602 l 2
 480 618 483 625 483 636 c 0
 483 663 462 675 414 675 c 2
 400 675 l 1
 400 722 l 1
 675 722 l 1
 675 675 l 1
 659 675 l 2
 606 675 578 656 522 581 c 2
 389 400 l 1
EndSplineSet
EndChar

StartChar: Y
Encoding: 89 89 58
Width: 704
Flags: MW
LayerCount: 2
Fore
SplineSet
389 357 m 1
 513 578 l 2
 524 598 530 615 530 630 c 0
 530 662 507 675 452 675 c 2
 429 675 l 1
 429 722 l 1
 713 722 l 1
 713 675 l 1
 705 675 l 2
 672 675 640 662 617 641 c 0
 602 626 589 607 567 568 c 2
 418 299 l 1
 418 123 l 1
 418 94 l 2
 418 51 426 47 507 47 c 2
 533 47 l 1
 533 0 l 1
 190 0 l 1
 190 47 l 1
 216 47 l 2
 297 47 306 52 306 94 c 2
 306 123 l 1
 306 287 l 1
 90 629 l 2
 67 666 52 675 9 675 c 2
 -13 675 l 1
 -13 722 l 1
 308 722 l 1
 308 675 l 1
 249 675 l 2
 222 675 210 669 210 656 c 0
 210 649 213 640 221 628 c 2
 389 357 l 1
EndSplineSet
EndChar

StartChar: Z
Encoding: 90 90 59
Width: 611
Flags: MW
LayerCount: 2
Fore
SplineSet
569 722 m 1
 569 686 l 1
 158 47 l 1
 324 47 l 2
 389 47 443 66 468 99 c 1
 497 135 514 185 528 278 c 1
 575 278 l 1
 557 0 l 1
 24 0 l 1
 24 36 l 1
 433 675 l 1
 303 675 l 2
 169 675 130 636 98 469 c 1
 53 469 l 1
 73 722 l 1
 569 722 l 1
EndSplineSet
EndChar

StartChar: bracketleft
Encoding: 91 91 60
Width: 333
Flags: MW
LayerCount: 2
Fore
SplineSet
156 -72 m 1
 297 -72 l 1
 297 -108 l 1
 66 -108 l 1
 66 722 l 1
 297 722 l 1
 297 685 l 1
 156 685 l 1
 156 -72 l 1
EndSplineSet
EndChar

StartChar: backslash
Encoding: 92 92 61
Width: 606
Flags: MW
LayerCount: 2
Fore
SplineSet
132 737 m 1
 532 0 l 1
 474 0 l 1
 74 737 l 1
 132 737 l 1
EndSplineSet
EndChar

StartChar: bracketright
Encoding: 93 93 62
Width: 333
Flags: MW
LayerCount: 2
Fore
SplineSet
176 686 m 1
 36 686 l 1
 36 722 l 1
 266 722 l 1
 266 -108 l 1
 36 -108 l 1
 36 -71 l 1
 176 -71 l 1
 176 686 l 1
EndSplineSet
EndChar

StartChar: asciicircum
Encoding: 94 94 63
Width: 606
Flags: MW
LayerCount: 2
Fore
SplineSet
554 318 m 1
 467 318 l 1
 304 629 l 1
 139 318 l 1
 52 318 l 1
 261 722 l 1
 346 722 l 1
 554 318 l 1
EndSplineSet
EndChar

StartChar: underscore
Encoding: 95 95 64
Width: 500
Flags: MW
LayerCount: 2
Fore
SplineSet
0 -73 m 1
 500 -73 l 1
 500 -134 l 1
 0 -134 l 1
 0 -73 l 1
EndSplineSet
EndChar

StartChar: grave
Encoding: 96 96 65
Width: 333
Flags: MW
LayerCount: 2
Fore
SplineSet
242 535 m 1
 201 535 l 1
 42 632 l 2
 27 642 17 657 17 671 c 0
 17 691 32 706 52 706 c 0
 68 706 77 700 102 675 c 2
 242 535 l 1
EndSplineSet
EndChar

StartChar: a
Encoding: 97 97 66
Width: 556
Flags: MW
LayerCount: 2
Fore
SplineSet
452 322 m 2
 452 121 l 2
 452 71 462 52 490 52 c 0
 498 52 502 53 518 59 c 0
 525 62 529 63 533 63 c 0
 538 63 543 58 543 51 c 0
 543 22 496 -7 451 -7 c 0
 404 -7 379 13 363 64 c 1
 320 13 258 -15 189 -15 c 0
 101 -15 44 31 44 102 c 0
 44 165 86 212 172 244 c 0
 221 263 253 271 358 289 c 1
 358 328 l 2
 358 373 351 397 332 413 c 1
 316 428 281 438 250 438 c 0
 202 438 161 420 161 399 c 0
 161 396 162 393 168 386 c 0
 178 372 183 358 183 345 c 0
 183 315 160 294 129 294 c 0
 94 294 71 318 71 356 c 0
 71 428 154 481 266 481 c 0
 330 481 379 467 412 441 c 0
 441 417 452 385 452 322 c 2
358 200 m 2
 358 246 l 1
 280 233 241 223 210 209 c 0
 166 188 145 158 145 116 c 0
 145 71 179 38 224 38 c 0
 267 38 313 63 338 100 c 0
 355 126 358 140 358 200 c 2
EndSplineSet
EndChar

StartChar: b
Encoding: 98 98 67
Width: 556
Flags: MW
LayerCount: 2
Fore
SplineSet
180 737 m 1
 180 403 l 1
 218 460 255 481 316 481 c 0
 436 481 520 380 520 236 c 0
 520 92 428 -15 305 -15 c 0
 243 -15 196 10 155 64 c 1
 106 -14 l 1
 68 -14 l 1
 81 45 86 110 86 244 c 2
 86 633 l 2
 86 676 80 683 43 683 c 2
 8 683 l 1
 8 726 l 1
 180 737 l 1
298 430 m 0
 218 430 175 357 175 224 c 0
 175 101 222 28 301 28 c 0
 374 28 415 100 415 226 c 0
 415 357 373 430 298 430 c 0
EndSplineSet
EndChar

StartChar: c
Encoding: 99 99 68
Width: 444
Flags: MW
LayerCount: 2
Fore
SplineSet
387 147 m 1
 426 132 l 1
 383 26 332 -15 243 -15 c 0
 119 -15 34 83 34 225 c 0
 34 374 127 481 257 481 c 0
 346 481 413 429 413 362 c 0
 413 322 387 294 352 294 c 0
 317 294 292 317 292 350 c 0
 292 367 296 377 312 396 c 0
 316 402 318 405 318 408 c 0
 318 424 292 438 262 438 c 0
 188 438 139 357 139 236 c 0
 139 119 189 46 269 46 c 0
 321 46 355 75 387 147 c 1
EndSplineSet
EndChar

StartChar: d
Encoding: 100 100 69
Width: 574
Flags: MW
LayerCount: 2
Fore
SplineSet
380 -7 m 1
 380 72 l 1
 348 12 305 -15 242 -15 c 0
 126 -15 43 86 43 228 c 0
 43 372 129 481 242 481 c 0
 300 481 343 458 380 407 c 1
 380 633 l 2
 380 676 373 683 337 683 c 2
 278 683 l 1
 278 726 l 1
 474 737 l 1
 474 116 l 2
 474 53 482 43 536 43 c 2
 554 43 l 1
 554 0 l 1
 380 -7 l 1
262 427 m 0
 221 427 184 398 167 354 c 0
 154 320 148 275 148 216 c 0
 148 105 191 39 261 39 c 0
 333 39 379 115 379 231 c 0
 379 279 372 321 360 351 c 0
 342 397 303 427 262 427 c 0
EndSplineSet
EndChar

StartChar: e
Encoding: 101 101 70
Width: 500
Flags: MW
LayerCount: 2
Fore
SplineSet
465 225 m 1
 141 225 l 1
 141 216 l 2
 141 166 149 133 166 105 c 0
 192 61 229 39 280 39 c 0
 347 39 389 69 430 146 c 1
 465 127 l 1
 424 32 356 -15 261 -15 c 0
 126 -15 35 80 35 220 c 0
 35 370 131 481 259 481 c 0
 380 481 465 376 465 228 c 2
 465 225 l 1
142 268 m 1
 317 268 l 2
 349 268 358 276 358 305 c 0
 358 385 318 438 257 438 c 0
 209 438 177 409 156 349 c 0
 146 321 142 299 142 268 c 1
EndSplineSet
EndChar

StartChar: f
Encoding: 102 102 71
Width: 333
Flags: MW
LayerCount: 2
Fore
SplineSet
201 466 m 1
 311 466 l 1
 311 423 l 1
 201 423 l 1
 201 123 l 1
 201 83 l 2
 201 43 212 36 277 36 c 2
 295 36 l 1
 295 0 l 1
 28 0 l 1
 28 36 l 1
 32 36 l 2
 96 36 107 43 107 83 c 2
 107 123 l 1
 107 423 l 1
 19 423 l 1
 19 466 l 1
 107 466 l 1
 107 497 l 2
 107 578 117 621 147 663 c 0
 183 713 233 737 302 737 c 0
 383 737 433 701 433 643 c 0
 433 607 410 582 377 582 c 0
 346 582 322 605 322 635 c 0
 322 646 325 657 331 667 c 0
 336 675 337 677 337 680 c 0
 337 691 324 697 303 697 c 0
 263 697 228 670 212 626 c 0
 204 606 201 573 201 523 c 2
 201 466 l 1
EndSplineSet
EndChar

StartChar: g
Encoding: 103 103 72
Width: 537
Flags: MW
LayerCount: 2
Fore
SplineSet
196 74 m 1
 298 74 l 2
 367 74 399 70 425 60 c 0
 462 45 485 5 485 -45 c 0
 485 -150 401 -203 234 -203 c 0
 100 -203 23 -166 23 -100 c 0
 23 -59 53 -27 115 -5 c 1
 68 11 48 37 48 81 c 0
 48 136 76 166 143 181 c 1
 91 205 59 256 59 315 c 0
 59 415 137 481 256 481 c 0
 306 481 338 471 380 443 c 1
 426 485 444 495 476 495 c 0
 515 495 542 471 542 437 c 0
 542 410 522 389 497 389 c 0
 472 389 456 402 452 426 c 0
 450 437 447 440 442 440 c 0
 434 440 425 434 408 416 c 1
 436 383 445 358 445 318 c 0
 445 252 411 200 351 173 c 0
 318 158 303 156 208 154 c 0
 141 152 114 139 114 109 c 0
 114 98 119 87 126 83 c 0
 138 76 141 75 196 74 c 1
255 438 m 0
 188 438 150 393 150 314 c 0
 150 239 189 192 251 192 c 0
 315 192 353 239 353 317 c 0
 353 394 318 438 255 438 c 0
246 -12 m 2
 172 -12 l 1
 124 -37 106 -59 106 -92 c 0
 106 -137 154 -162 238 -162 c 0
 350 -162 415 -129 415 -72 c 0
 415 -40 390 -18 350 -14 c 0
 335 -12 329 -12 246 -12 c 2
EndSplineSet
EndChar

StartChar: h
Encoding: 104 104 73
Width: 611
Flags: MW
LayerCount: 2
Fore
SplineSet
200 737 m 1
 200 384 l 1
 245 451 294 481 358 481 c 0
 418 481 468 452 493 404 c 0
 511 370 514 352 514 280 c 2
 514 123 l 1
 514 83 l 2
 514 43 525 36 589 36 c 2
 593 36 l 1
 593 0 l 1
 340 0 l 1
 340 36 l 1
 344 36 l 2
 409 36 420 43 420 83 c 2
 420 123 l 1
 420 284 l 2
 420 333 413 363 398 385 c 1
 383 405 353 420 327 420 c 0
 284 420 239 389 218 344 c 0
 207 321 200 276 200 226 c 2
 200 123 l 1
 200 83 l 2
 200 43 211 36 276 36 c 2
 280 36 l 1
 280 0 l 1
 27 0 l 1
 27 36 l 1
 31 36 l 2
 95 36 106 43 106 83 c 2
 106 123 l 1
 106 633 l 2
 106 676 100 683 63 683 c 2
 15 683 l 1
 15 726 l 1
 200 737 l 1
EndSplineSet
EndChar

StartChar: i
Encoding: 105 105 74
Width: 315
Flags: MW
LayerCount: 2
Fore
SplineSet
206 466 m 1
 206 123 l 1
 206 83 l 2
 206 43 217 36 282 36 c 2
 289 36 l 1
 289 0 l 1
 30 0 l 1
 30 36 l 1
 37 36 l 2
 101 36 112 43 112 83 c 2
 112 123 l 1
 112 362 l 2
 112 405 106 412 69 412 c 2
 18 412 l 1
 18 455 l 1
 206 466 l 1
159 715 m 0
 191 715 217 689 217 657 c 0
 217 625 191 599 158 599 c 0
 127 599 101 626 101 657 c 0
 101 689 127 715 159 715 c 0
EndSplineSet
EndChar

StartChar: j
Encoding: 106 106 75
Width: 296
Flags: HMW
LayerCount: 2
Fore
SplineSet
160 715 m 0
 192 715 218 689 218 657 c 0
 218 625 192 599 159 599 c 0
 128 599 102 626 102 657 c 0
 102 689 128 715 160 715 c 0
EndSplineSet
Refer: 345 567 N 1 0 0 1 0 0 2
EndChar

StartChar: k
Encoding: 107 107 76
Width: 593
Flags: MW
LayerCount: 2
Fore
SplineSet
199 242 m 1
 334 372 l 2
 350 388 357 400 357 411 c 0
 357 424 342 430 310 430 c 2
 279 430 l 1
 279 466 l 1
 542 466 l 1
 542 430 l 1
 474 422 431 400 373 343 c 2
 328 299 l 1
 470 105 l 1
 511 53 531 41 587 36 c 1
 587 0 l 1
 323 0 l 1
 323 36 l 1
 342 36 l 2
 375 36 386 40 386 53 c 0
 386 58 383 64 379 71 c 2
 260 238 l 1
 199 180 l 1
 199 123 l 1
 199 83 l 2
 199 43 210 36 275 36 c 2
 279 36 l 1
 279 0 l 1
 26 0 l 1
 26 36 l 1
 30 36 l 2
 94 36 105 43 105 83 c 2
 105 123 l 1
 105 633 l 2
 105 676 99 683 62 683 c 2
 14 683 l 1
 14 726 l 1
 199 737 l 1
 199 242 l 1
EndSplineSet
EndChar

StartChar: l
Encoding: 108 108 77
Width: 315
Flags: MW
LayerCount: 2
Fore
SplineSet
204 737 m 1
 204 123 l 1
 204 83 l 2
 204 43 215 36 280 36 c 2
 287 36 l 1
 287 0 l 1
 28 0 l 1
 28 36 l 1
 35 36 l 2
 99 36 110 43 110 83 c 2
 110 123 l 1
 110 633 l 2
 110 676 104 683 68 683 c 2
 19 683 l 1
 19 726 l 1
 204 737 l 1
EndSplineSet
EndChar

StartChar: m
Encoding: 109 109 78
Width: 889
Flags: MW
LayerCount: 2
Fore
SplineSet
201 466 m 1
 201 389 l 1
 240 452 285 481 345 481 c 0
 412 481 466 441 483 381 c 1
 526 450 574 481 639 481 c 0
 687 481 728 461 757 424 c 0
 783 390 789 369 789 307 c 2
 789 123 l 1
 789 84 l 2
 789 43 800 36 864 36 c 2
 868 36 l 1
 868 0 l 1
 615 0 l 1
 615 36 l 1
 619 36 l 2
 684 36 695 43 695 83 c 2
 695 123 l 1
 695 287 l 2
 695 326 692 348 683 370 c 0
 670 401 643 420 610 420 c 0
 540 420 495 356 495 256 c 2
 495 123 l 1
 495 83 l 2
 495 43 506 36 570 36 c 2
 574 36 l 1
 574 0 l 1
 321 0 l 1
 321 36 l 1
 325 36 l 2
 390 36 401 43 401 83 c 2
 401 123 l 1
 401 298 l 2
 401 339 395 368 381 387 c 1
 369 406 341 420 315 420 c 0
 250 420 201 354 201 265 c 2
 201 123 l 1
 201 84 l 2
 201 43 212 36 276 36 c 2
 280 36 l 1
 280 0 l 1
 28 0 l 1
 28 36 l 1
 32 36 l 2
 96 36 107 43 107 84 c 2
 107 123 l 1
 107 362 l 2
 107 405 101 412 64 412 c 2
 23 412 l 1
 23 455 l 1
 201 466 l 1
EndSplineSet
EndChar

StartChar: n
Encoding: 110 110 79
Width: 611
Flags: MW
LayerCount: 2
Fore
SplineSet
200 466 m 1
 200 385 l 1
 244 451 294 481 358 481 c 0
 417 481 468 452 493 404 c 0
 511 370 514 352 514 280 c 2
 514 123 l 1
 514 83 l 2
 514 43 525 36 589 36 c 2
 593 36 l 1
 593 0 l 1
 340 0 l 1
 340 36 l 1
 344 36 l 2
 409 36 420 43 420 83 c 2
 420 123 l 1
 420 285 l 2
 420 333 413 364 398 385 c 0
 383 405 353 420 327 420 c 0
 284 420 239 389 218 344 c 0
 207 321 200 276 200 227 c 2
 200 123 l 1
 200 83 l 2
 200 43 211 36 276 36 c 2
 280 36 l 1
 280 0 l 1
 27 0 l 1
 27 36 l 1
 31 36 l 2
 95 36 106 43 106 83 c 2
 106 123 l 1
 106 362 l 2
 106 405 100 412 63 412 c 2
 27 412 l 1
 27 455 l 1
 200 466 l 1
EndSplineSet
EndChar

StartChar: o
Encoding: 111 111 80
Width: 500
Flags: MW
LayerCount: 2
Fore
SplineSet
252 481 m 0
 370 481 466 370 466 233 c 0
 466 95 370 -15 250 -15 c 0
 130 -15 34 95 34 232 c 0
 34 372 130 481 252 481 c 0
252 438 m 0
 177 438 139 368 139 232 c 0
 139 100 178 28 250 28 c 0
 322 28 361 100 361 233 c 0
 361 365 322 438 252 438 c 0
EndSplineSet
EndChar

StartChar: p
Encoding: 112 112 81
Width: 574
Flags: MW
LayerCount: 2
Fore
SplineSet
201 466 m 1
 201 395 l 1
 236 455 277 481 339 481 c 0
 449 481 535 373 535 235 c 0
 535 92 449 -15 333 -15 c 0
 272 -15 234 8 201 66 c 1
 201 -79 l 1
 201 -119 l 2
 201 -159 212 -166 277 -166 c 2
 288 -166 l 1
 288 -202 l 1
 28 -202 l 1
 28 -166 l 1
 32 -166 l 2
 96 -166 107 -159 107 -119 c 2
 107 -79 l 1
 107 362 l 2
 107 405 101 412 64 412 c 2
 28 412 l 1
 28 455 l 1
 201 466 l 1
321 427 m 0
 245 427 200 352 200 228 c 0
 200 113 247 39 318 39 c 0
 389 39 430 112 430 241 c 0
 430 358 390 427 321 427 c 0
EndSplineSet
EndChar

StartChar: q
Encoding: 113 113 82
Width: 556
Flags: MW
LayerCount: 2
Fore
SplineSet
449 466 m 1
 486 466 l 1
 475 414 472 400 470 381 c 1
 470 370 470 366 469 309 c 1
 469 -79 l 1
 469 -119 l 2
 469 -159 480 -166 544 -166 c 2
 548 -166 l 1
 548 -202 l 1
 288 -202 l 1
 288 -166 l 1
 299 -166 l 2
 364 -166 375 -159 375 -119 c 2
 375 -79 l 1
 375 58 l 1
 335 3 301 -15 239 -15 c 0
 122 -15 36 85 36 222 c 0
 36 370 128 481 250 481 c 0
 313 481 362 454 402 398 c 1
 449 466 l 1
259 438 m 0
 180 438 141 368 141 228 c 0
 141 108 184 39 258 39 c 0
 336 39 375 107 375 244 c 0
 375 301 369 337 354 370 c 0
 335 412 299 438 259 438 c 0
EndSplineSet
EndChar

StartChar: r
Encoding: 114 114 83
Width: 444
Flags: MW
LayerCount: 2
Fore
SplineSet
198 466 m 1
 198 342 l 1
 230 430 285 481 348 481 c 0
 401 481 435 449 435 401 c 0
 435 360 410 333 374 333 c 0
 342 333 319 356 319 388 c 0
 319 407 323 417 337 433 c 1
 295 428 261 397 237 341 c 0
 212 284 198 208 198 133 c 2
 198 123 l 1
 198 83 l 2
 198 43 209 36 273 36 c 2
 292 36 l 1
 292 0 l 1
 25 0 l 1
 25 36 l 1
 29 36 l 2
 94 36 105 43 105 83 c 2
 105 123 l 1
 105 362 l 2
 105 405 99 412 62 412 c 2
 21 412 l 1
 21 455 l 1
 198 466 l 1
EndSplineSet
EndChar

StartChar: s
Encoding: 115 115 84
Width: 463
Flags: MW
LayerCount: 2
Fore
SplineSet
390 477 m 1
 390 309 l 1
 355 309 l 1
 339 355 328 375 306 397 c 0
 278 424 247 437 209 437 c 0
 154 437 116 408 116 368 c 0
 116 346 129 325 151 315 c 1
 169 305 169 305 224 293 c 2
 274 282 l 2
 335 269 355 261 379 240 c 0
 407 217 421 183 421 139 c 0
 421 46 356 -15 258 -15 c 0
 208 -15 162 1 121 34 c 1
 86 -7 l 1
 51 -7 l 1
 51 182 l 1
 91 182 l 1
 115 82 175 28 259 28 c 0
 318 28 359 61 359 108 c 0
 359 148 331 168 252 187 c 1
 199 199 l 2
 139 213 116 223 93 244 c 0
 71 264 58 297 58 336 c 0
 58 423 116 481 204 481 c 0
 254 481 290 469 326 441 c 1
 355 477 l 1
 390 477 l 1
EndSplineSet
EndChar

StartChar: t
Encoding: 116 116 85
Width: 389
Flags: MW
LayerCount: 2
Fore
SplineSet
194 466 m 1
 341 466 l 1
 341 423 l 1
 194 423 l 1
 194 150 l 2
 194 114 197 89 203 75 c 0
 210 58 230 46 253 46 c 0
 302 46 328 92 331 182 c 1
 373 182 l 1
 374 172 374 165 374 159 c 0
 374 104 355 51 322 19 c 0
 299 -3 265 -15 226 -15 c 0
 168 -15 128 8 112 50 c 1
 102 73 100 98 100 168 c 2
 100 423 l 1
 18 423 l 1
 18 462 l 1
 99 468 143 534 153 664 c 1
 194 664 l 1
 194 466 l 1
EndSplineSet
EndChar

StartChar: u
Encoding: 117 117 86
Width: 611
Flags: MW
LayerCount: 2
Fore
SplineSet
412 -7 m 1
 412 76 l 1
 368 12 322 -15 256 -15 c 0
 196 -15 148 8 121 49 c 0
 106 72 102 95 102 146 c 2
 102 362 l 2
 102 405 96 412 59 412 c 2
 21 412 l 1
 21 455 l 1
 196 466 l 1
 196 161 l 2
 196 106 198 96 211 77 c 0
 224 57 250 46 281 46 c 0
 330 46 370 72 391 116 c 0
 406 149 412 182 412 239 c 2
 412 362 l 2
 412 405 406 412 369 412 c 2
 318 412 l 1
 318 455 l 1
 506 466 l 1
 506 116 l 2
 506 52 514 43 569 43 c 2
 594 43 l 1
 594 0 l 1
 412 -7 l 1
EndSplineSet
EndChar

StartChar: v
Encoding: 118 118 87
Width: 537
Flags: MW
LayerCount: 2
Fore
SplineSet
295 121 m 1
 387 353 l 2
 392 368 396 384 396 395 c 0
 396 418 377 430 342 430 c 2
 328 430 l 1
 328 466 l 1
 528 466 l 1
 528 430 l 1
 524 430 l 2
 486 430 458 402 431 336 c 2
 289 -15 l 1
 254 -15 l 1
 82 387 l 2
 68 421 54 430 16 430 c 2
 8 430 l 1
 8 466 l 1
 244 466 l 1
 244 430 l 1
 230 430 l 2
 189 430 176 424 176 407 c 0
 176 401 178 392 181 386 c 2
 295 121 l 1
EndSplineSet
EndChar

StartChar: w
Encoding: 119 119 88
Width: 778
Flags: MW
LayerCount: 2
Fore
SplineSet
547 129 m 1
 632 357 l 2
 637 369 640 384 640 394 c 0
 640 419 626 430 591 430 c 2
 574 430 l 1
 574 466 l 1
 763 466 l 1
 763 430 l 1
 756 430 l 2
 721 430 704 413 682 354 c 2
 542 -15 l 1
 511 -15 l 1
 389 301 l 1
 270 -15 l 1
 235 -15 l 1
 85 381 l 1
 71 421 61 430 33 430 c 2
 15 430 l 1
 15 466 l 1
 235 466 l 1
 235 430 l 1
 217 430 l 2
 187 430 176 424 176 407 c 0
 176 401 178 392 180 385 c 2
 277 134 l 1
 365 367 l 1
 356 393 l 2
 347 422 335 430 304 430 c 2
 287 430 l 1
 287 466 l 1
 511 466 l 1
 511 430 l 1
 487 430 l 2
 454 430 445 425 445 407 c 0
 445 398 446 393 449 386 c 2
 547 129 l 1
EndSplineSet
EndChar

StartChar: x
Encoding: 120 120 89
Width: 537
Flags: MW
LayerCount: 2
Fore
SplineSet
309 255 m 1
 435 85 l 2
 461 50 487 36 522 36 c 2
 529 36 l 1
 529 0 l 1
 277 0 l 1
 277 36 l 1
 284 36 l 2
 322 36 337 41 337 54 c 0
 337 61 331 74 324 84 c 2
 248 185 l 1
 164 84 l 2
 159 79 156 70 156 63 c 0
 156 54 162 44 170 40 c 0
 177 37 182 36 205 36 c 2
 220 36 l 1
 220 0 l 1
 9 0 l 1
 9 36 l 1
 15 36 l 2
 44 36 77 55 105 88 c 2
 220 222 l 1
 98 376 l 2
 65 418 52 427 15 430 c 1
 15 466 l 1
 252 466 l 1
 252 430 l 1
 238 430 l 2
 207 430 194 425 194 412 c 0
 194 406 198 397 204 390 c 2
 281 292 l 1
 344 367 l 2
 357 383 364 398 364 408 c 0
 364 422 349 430 319 430 c 2
 300 430 l 1
 300 466 l 1
 507 466 l 1
 507 430 l 1
 498 430 l 2
 472 430 447 416 423 388 c 2
 309 255 l 1
EndSplineSet
EndChar

StartChar: y
Encoding: 121 121 90
Width: 537
Flags: MW
LayerCount: 2
Fore
SplineSet
300 127 m 1
 391 353 l 2
 398 370 401 383 401 393 c 0
 401 419 385 430 347 430 c 2
 331 430 l 1
 331 466 l 1
 531 466 l 1
 531 430 l 1
 525 430 l 2
 487 430 466 410 441 349 c 2
 327 67 l 2
 283 -44 263 -84 232 -126 c 0
 192 -180 147 -206 94 -206 c 0
 42 -206 3 -173 3 -129 c 0
 3 -93 28 -67 63 -67 c 0
 92 -67 114 -86 114 -112 c 0
 114 -120 112 -129 109 -138 c 0
 108 -142 107 -145 107 -147 c 0
 107 -153 114 -157 123 -157 c 0
 155 -157 202 -104 238 -28 c 2
 255 7 l 1
 92 376 l 2
 74 416 56 430 24 430 c 2
 13 430 l 1
 13 466 l 1
 251 466 l 1
 251 430 l 1
 230 430 l 2
 196 430 184 423 184 405 c 0
 184 400 186 393 190 384 c 2
 300 127 l 1
EndSplineSet
EndChar

StartChar: z
Encoding: 122 122 91
Width: 481
Flags: MW
LayerCount: 2
Fore
SplineSet
428 466 m 1
 428 430 l 1
 155 43 l 1
 257 43 l 2
 347 43 385 80 395 179 c 1
 435 179 l 1
 428 0 l 1
 39 0 l 1
 39 36 l 1
 312 423 l 1
 225 423 l 2
 143 423 107 387 98 297 c 1
 58 297 l 1
 67 466 l 1
 428 466 l 1
EndSplineSet
EndChar

StartChar: braceleft
Encoding: 123 123 92
Width: 333
Flags: MW
LayerCount: 2
Fore
SplineSet
66 291 m 1
 66 323 l 1
 108 337 122 346 132 368 c 0
 141 386 142 395 142 456 c 2
 142 572 l 2
 142 638 152 673 177 695 c 0
 195 711 234 722 271 722 c 2
 297 722 l 1
 297 688 l 1
 232 684 216 658 216 562 c 2
 216 432 l 2
 216 363 203 340 149 307 c 1
 203 274 216 251 216 182 c 2
 216 52 l 2
 216 -44 232 -70 297 -74 c 1
 297 -108 l 1
 271 -108 l 2
 234 -108 195 -97 177 -81 c 0
 152 -59 142 -24 142 42 c 2
 142 158 l 2
 142 224 140 235 128 254 c 1
 116 271 104 278 66 291 c 1
EndSplineSet
EndChar

StartChar: bar
Encoding: 124 124 93
Width: 606
Flags: MW
LayerCount: 2
Fore
SplineSet
342 722 m 1
 342 0 l 1
 264 0 l 1
 264 722 l 1
 342 722 l 1
EndSplineSet
EndChar

StartChar: braceright
Encoding: 125 125 94
Width: 333
Flags: MW
LayerCount: 2
Fore
SplineSet
267 323 m 1
 267 291 l 1
 224 277 211 268 200 246 c 0
 191 228 190 219 190 158 c 2
 190 42 l 2
 190 -24 180 -60 155 -81 c 0
 137 -97 98 -108 61 -108 c 2
 36 -108 l 1
 36 -74 l 1
 100 -70 116 -44 116 52 c 2
 116 182 l 2
 116 251 129 274 183 307 c 1
 129 340 116 363 116 432 c 2
 116 562 l 2
 116 658 100 684 36 688 c 1
 36 722 l 1
 61 722 l 2
 98 722 137 711 155 695 c 0
 180 674 190 638 190 572 c 2
 190 456 l 2
 190 390 192 379 205 360 c 0
 216 343 228 336 267 323 c 1
EndSplineSet
EndChar

StartChar: asciitilde
Encoding: 126 126 95
Width: 606
Flags: MW
LayerCount: 2
Fore
SplineSet
104 182 m 1
 51 220 l 1
 88 285 143 327 191 327 c 0
 216 327 238 320 290 295 c 2
 336 273 l 2
 389 247 396 245 416 245 c 0
 444 245 475 269 502 310 c 1
 555 272 l 1
 518 207 463 165 415 165 c 0
 390 165 366 173 316 196 c 1
 270 219 l 1
 212 246 210 247 190 247 c 0
 162 247 131 223 104 182 c 1
EndSplineSet
EndChar

StartChar: exclamdown
Encoding: 161 161 97
Width: 296
Flags: MW
LayerCount: 2
Fore
SplineSet
129 343 m 1
 168 343 l 1
 170 164 173 117 192 23 c 0
 206 -46 210 -78 210 -108 c 0
 210 -170 189 -202 148 -202 c 0
 108 -202 87 -170 87 -107 c 0
 87 -78 91 -46 105 23 c 0
 124 117 128 166 129 343 c 1
149 549 m 0
 183 549 211 521 211 486 c 0
 211 452 183 424 148 424 c 0
 114 424 86 452 86 486 c 0
 86 521 114 549 149 549 c 0
EndSplineSet
EndChar

StartChar: cent
Encoding: 162 162 98
Width: 556
Flags: MW
LayerCount: 2
Fore
SplineSet
241 -9 m 1
 189 -141 l 1
 146 -141 l 1
 203 4 l 1
 120 40 71 121 71 224 c 0
 71 375 168 481 307 481 c 0
 337 481 360 477 385 468 c 1
 431 585 l 1
 474 585 l 1
 421 450 l 1
 449 430 470 392 470 360 c 0
 470 325 440 295 405 295 c 0
 389 295 379 299 366 310 c 1
 267 56 l 1
 286 50 296 48 312 48 c 0
 373 48 413 79 440 147 c 1
 479 133 l 1
 446 35 383 -15 293 -15 c 0
 275 -15 260 -13 241 -9 c 1
231 76 m 1
 367 421 l 1
 355 432 335 438 311 438 c 0
 226 438 175 364 175 240 c 0
 175 164 195 107 231 76 c 1
EndSplineSet
EndChar

StartChar: sterling
Encoding: 163 163 99
Width: 556
Flags: MW
LayerCount: 2
Fore
SplineSet
432 372 m 1
 432 325 l 1
 272 325 l 1
 279 291 282 269 282 238 c 0
 282 188 273 142 255 106 c 1
 309 80 339 72 376 72 c 0
 441 72 474 96 502 162 c 1
 537 147 l 1
 514 42 455 -15 371 -15 c 0
 321 -15 276 2 218 44 c 1
 179 2 147 -15 104 -15 c 0
 53 -15 17 18 17 65 c 0
 17 116 55 151 111 151 c 0
 136 151 157 145 196 128 c 1
 201 148 203 159 203 172 c 0
 203 215 195 254 170 325 c 1
 36 325 l 1
 36 372 l 1
 156 372 l 1
 136 443 131 468 131 506 c 0
 131 624 211 704 329 704 c 0
 431 704 506 644 506 562 c 0
 506 513 476 478 434 478 c 0
 399 478 374 503 374 537 c 0
 374 565 385 578 421 596 c 0
 432 601 436 606 436 613 c 0
 436 637 390 661 344 661 c 0
 273 661 230 617 230 543 c 0
 230 519 232 505 247 439 c 1
 254 413 254 410 263 372 c 1
 432 372 l 1
178 75 m 1
 146 100 125 110 101 110 c 0
 78 110 58 91 58 68 c 0
 58 44 80 25 107 25 c 0
 136 25 157 39 178 75 c 1
EndSplineSet
EndChar

StartChar: currency
Encoding: 164 164 100
Width: 556
Flags: MW
LayerCount: 2
Fore
SplineSet
426 544 m 1
 479 597 l 1
 530 545 l 1
 477 493 l 1
 511 449 529 396 529 342 c 0
 529 288 512 238 479 195 c 1
 530 144 l 1
 479 93 l 1
 428 144 l 1
 385 111 333 94 281 94 c 0
 228 94 173 113 130 146 c 1
 77 93 l 1
 26 144 l 1
 79 197 l 1
 45 243 27 294 27 348 c 0
 27 400 45 454 77 495 c 1
 26 545 l 1
 77 597 l 1
 128 546 l 1
 172 579 222 596 275 596 c 0
 329 596 380 578 426 544 c 1
278 514 m 0
 185 514 109 438 109 345 c 0
 109 253 185 176 276 176 c 0
 372 176 447 251 447 345 c 0
 447 438 371 514 278 514 c 0
EndSplineSet
EndChar

StartChar: yen
Encoding: 165 165 101
Width: 556
Flags: MW
LayerCount: 2
Fore
SplineSet
356 332 m 1
 457 332 l 1
 457 285 l 1
 342 285 l 1
 342 199 l 1
 457 199 l 1
 457 152 l 1
 342 152 l 1
 342 123 l 2
 342 69 342 69 347 61 c 0
 353 51 370 47 410 47 c 2
 429 47 l 1
 429 0 l 1
 144 0 l 1
 144 47 l 1
 163 47 l 2
 224 47 230 52 230 95 c 2
 230 123 l 1
 230 152 l 1
 114 152 l 1
 114 199 l 1
 230 199 l 1
 230 285 l 1
 114 285 l 1
 114 332 l 1
 209 332 l 1
 72 629 l 2
 54 667 44 675 13 675 c 2
 -1 675 l 1
 -1 722 l 1
 232 722 l 1
 232 675 l 1
 208 675 l 2
 188 675 180 670 180 656 c 0
 180 649 183 638 188 628 c 2
 313 357 l 1
 404 578 l 2
 412 595 416 615 416 631 c 0
 416 662 402 675 370 675 c 2
 353 675 l 1
 353 722 l 1
 557 722 l 1
 557 675 l 1
 553 675 l 2
 529 675 505 662 490 641 c 0
 478 625 472 614 453 568 c 2
 356 332 l 1
EndSplineSet
EndChar

StartChar: brokenbar
Encoding: 166 166 102
Width: 606
Flags: MW
LayerCount: 2
Fore
SplineSet
342 722 m 1
 342 400 l 1
 264 400 l 1
 264 722 l 1
 342 722 l 1
342 322 m 1
 342 0 l 1
 264 0 l 1
 264 322 l 1
 342 322 l 1
EndSplineSet
EndChar

StartChar: section
Encoding: 167 167 103
Width: 500
Flags: MW
LayerCount: 2
Fore
SplineSet
242 538 m 2
 352 446 l 2
 376 425 401 397 419 370 c 0
 440 340 448 314 448 282 c 0
 448 203 392 142 321 142 c 0
 317 142 311 142 303 143 c 1
 339 114 343 110 356 96 c 0
 387 65 406 23 406 -16 c 0
 406 -91 342 -148 255 -148 c 0
 178 -148 112 -97 112 -37 c 0
 112 -6 136 18 167 18 c 0
 199 18 222 -3 222 -32 c 0
 222 -51 215 -62 195 -77 c 0
 190 -81 187 -85 187 -88 c 0
 187 -101 219 -115 250 -115 c 0
 300 -115 337 -86 337 -46 c 0
 337 -11 320 12 246 73 c 2
 168 137 l 2
 88 203 58 251 58 315 c 0
 58 389 113 446 183 446 c 2
 200 446 l 1
 164 481 159 485 146 501 c 1
 119 531 105 567 105 604 c 0
 105 681 166 736 252 736 c 0
 329 736 394 685 394 626 c 0
 394 595 370 571 339 571 c 0
 307 571 284 592 284 620 c 0
 284 638 293 653 310 665 c 0
 317 670 319 672 319 676 c 0
 319 690 288 703 256 703 c 0
 209 703 174 673 174 633 c 0
 174 605 193 579 242 538 c 2
196 419 m 0
 155 419 124 388 124 346 c 0
 124 309 139 286 195 235 c 0
 246 188 281 168 314 168 c 0
 350 168 382 202 382 240 c 0
 382 280 354 321 289 375 c 0
 253 404 221 419 196 419 c 0
EndSplineSet
EndChar

StartChar: copyright
Encoding: 169 169 105
Width: 737
Flags: MW
LayerCount: 2
Fore
SplineSet
522 582 m 1
 531 401 l 1
 493 401 l 1
 468 501 429 545 368 545 c 0
 294 545 256 480 256 356 c 0
 256 238 294 181 374 181 c 0
 444 181 484 222 499 310 c 1
 539 303 l 1
 525 197 466 140 368 140 c 0
 251 140 166 232 166 359 c 0
 166 484 256 586 368 586 c 0
 406 586 427 579 468 551 c 1
 489 582 l 1
 522 582 l 1
368 737 m 0
 575 737 744 569 744 362 c 0
 744 151 576 -15 363 -15 c 0
 161 -15 -8 156 -8 361 c 0
 -8 568 161 737 368 737 c 0
369 691 m 0
 188 691 42 543 42 361 c 0
 42 181 189 31 365 31 c 0
 549 31 695 177 695 362 c 0
 695 543 548 691 369 691 c 0
EndSplineSet
EndChar

StartChar: ordfeminine
Encoding: 170 170 106
Width: 334
Flags: MW
LayerCount: 2
Fore
SplineSet
270 635 m 2
 270 514 l 2
 270 485 277 473 294 473 c 0
 300 473 300 473 312 477 c 0
 317 479 320 480 322 480 c 0
 326 480 329 477 329 473 c 0
 329 456 298 438 269 438 c 0
 239 438 223 450 213 480 c 1
 184 450 144 433 99 433 c 0
 42 433 5 460 5 503 c 0
 5 541 32 569 88 588 c 0
 120 599 139 604 209 615 c 1
 209 639 l 2
 209 662 205 676 196 685 c 1
 187 696 162 704 138 704 c 0
 107 704 81 694 81 681 c 0
 81 679 82 678 85 673 c 0
 92 664 95 657 95 649 c 0
 95 631 80 618 60 618 c 0
 37 618 22 633 22 655 c 0
 22 698 76 730 149 730 c 0
 190 730 222 722 244 706 c 0
 263 692 270 673 270 635 c 2
209 562 m 2
 209 590 l 1
 103 573 71 555 71 511 c 0
 71 484 93 464 122 464 c 0
 150 464 179 479 196 501 c 1
 207 517 209 525 209 562 c 2
23 369 m 1
 283 369 l 1
 283 329 l 1
 23 329 l 1
 23 369 l 1
EndSplineSet
EndChar

StartChar: guillemotleft
Encoding: 171 171 107
Width: 426
Flags: MW
LayerCount: 2
Fore
SplineSet
266 185 m 1
 225 224 l 2
 218 231 212 237 205 243 c 1
 315 349 l 2
 365 398 369 402 377 402 c 0
 383 402 388 396 388 390 c 0
 388 381 373 356 344 318 c 0
 307 268 304 263 292 243 c 1
 376 124 387 106 387 96 c 0
 387 90 381 85 375 85 c 0
 369 85 363 89 353 100 c 2
 314 138 l 1
 266 185 l 1
99 185 m 1
 58 224 l 2
 51 231 45 237 38 243 c 1
 186 387 l 2
 196 398 203 402 209 402 c 0
 215 402 220 396 220 390 c 0
 220 382 209 364 176 318 c 1
 125 243 l 1
 209 124 220 106 220 96 c 0
 220 90 214 85 208 85 c 0
 202 85 196 89 186 100 c 2
 147 138 l 1
 99 185 l 1
EndSplineSet
EndChar

StartChar: logicalnot
Encoding: 172 172 108
Width: 606
Flags: MW
LayerCount: 2
Fore
SplineSet
51 293 m 1
 555 293 l 1
 555 0 l 1
 475 0 l 1
 475 213 l 1
 51 213 l 1
 51 293 l 1
EndSplineSet
EndChar

StartChar: registered
Encoding: 174 174 110
Width: 737
Flags: MW
LayerCount: 2
Fore
SplineSet
313 365 m 1
 313 241 l 2
 313 216 313 212 315 210 c 0
 318 206 333 204 357 204 c 2
 374 204 l 1
 374 163 l 1
 171 163 l 1
 171 204 l 1
 189 204 l 2
 214 204 229 206 232 210 c 0
 234 212 234 213 234 241 c 2
 234 515 l 2
 234 544 234 544 232 547 c 0
 229 551 216 552 189 552 c 2
 171 552 l 1
 171 593 l 1
 378 593 l 2
 480 593 537 553 537 483 c 0
 537 428 507 397 435 378 c 1
 468 361 482 341 495 294 c 1
 504 257 l 2
 514 217 516 213 526 213 c 0
 537 213 543 233 543 270 c 1
 581 270 l 1
 581 257 l 2
 581 192 552 155 503 155 c 0
 453 155 430 183 423 253 c 1
 419 283 l 1
 413 342 391 365 339 365 c 2
 313 365 l 1
313 406 m 1
 368 406 l 2
 426 406 452 430 452 482 c 0
 452 533 431 552 376 552 c 2
 345 552 l 2
 313 552 313 552 313 526 c 2
 313 406 l 1
368 737 m 0
 575 737 744 569 744 362 c 0
 744 151 576 -15 363 -15 c 0
 161 -15 -8 156 -8 361 c 0
 -8 568 161 737 368 737 c 0
369 691 m 0
 188 691 41 543 41 361 c 0
 41 181 188 31 365 31 c 0
 549 31 695 177 695 362 c 0
 695 543 548 691 369 691 c 0
EndSplineSet
EndChar

StartChar: macron
Encoding: 175 175 111
Width: 333
Flags: MW
LayerCount: 2
Fore
SplineSet
10 622 m 1
 323 622 l 1
 323 568 l 1
 10 568 l 1
 10 622 l 1
EndSplineSet
EndChar

StartChar: degree
Encoding: 176 176 112
Width: 400
Flags: MW
LayerCount: 2
Fore
SplineSet
203 686 m 0
 286 686 350 619 350 533 c 0
 350 447 284 380 200 380 c 0
 116 380 50 448 50 534 c 0
 50 619 118 686 203 686 c 0
202 629 m 0
 148 629 106 586 106 533 c 0
 106 480 149 437 200 437 c 0
 252 437 293 479 293 533 c 0
 293 586 252 629 202 629 c 0
EndSplineSet
EndChar

StartChar: plusminus
Encoding: 177 177 113
Width: 606
Flags: HMW
LayerCount: 2
Fore
SplineSet
263 288 m 1
 51 288 l 1
 51 368 l 1
 263 368 l 1
 263 581 l 1
 343 581 l 1
 343 368 l 1
 555 368 l 1
 555 288 l 1
 343 288 l 1
 343 113 l 1
 263 113 l 1
 263 288 l 1
EndSplineSet
Refer: 709 8722 S 1 0 0 1 0 -213 2
EndChar

StartChar: twosuperior
Encoding: 178 178 114
Width: 333
Flags: MW
LayerCount: 2
Fore
SplineSet
13 289 m 1
 13 311 l 1
 41 346 53 359 76 384 c 0
 87 396 116 424 162 470 c 0
 214 521 236 561 236 603 c 0
 236 651 206 679 156 679 c 0
 112 679 72 651 72 622 c 0
 72 616 72 616 95 607 c 0
 110 601 120 587 120 570 c 0
 120 547 102 531 77 531 c 0
 45 531 23 558 23 597 c 0
 23 662 86 712 169 712 c 0
 253 712 314 662 314 593 c 0
 314 536 289 504 187 430 c 0
 146 400 134 390 94 352 c 1
 230 352 l 2
 266 352 271 356 278 391 c 2
 285 424 l 1
 319 424 l 1
 307 289 l 1
 13 289 l 1
EndSplineSet
EndChar

StartChar: threesuperior
Encoding: 179 179 115
Width: 333
Flags: MW
LayerCount: 2
Fore
SplineSet
138 527 m 2
 162 526 l 1
 207 526 229 552 229 606 c 0
 229 654 206 679 163 679 c 0
 131 679 94 663 94 649 c 0
 94 646 96 644 100 641 c 0
 115 631 121 622 121 608 c 0
 121 585 104 569 80 569 c 0
 54 569 35 588 35 614 c 0
 35 670 93 712 169 712 c 0
 250 712 302 671 302 607 c 0
 302 564 275 528 229 512 c 1
 229 512 228 511 226 510 c 1
 282 495 314 456 314 403 c 0
 314 329 251 280 158 280 c 0
 76 280 18 322 18 381 c 0
 18 414 38 437 67 437 c 0
 91 437 110 419 110 396 c 0
 110 377 103 369 77 354 c 0
 73 352 72 350 72 348 c 0
 72 332 115 313 151 313 c 0
 206 313 236 346 236 405 c 0
 236 462 212 491 167 491 c 0
 164 491 148 491 122 490 c 0
 108 490 100 497 100 509 c 0
 100 521 109 528 124 528 c 0
 127 528 133 528 138 527 c 2
EndSplineSet
EndChar

StartChar: acute
Encoding: 180 180 116
Width: 333
Flags: MW
LayerCount: 2
Fore
SplineSet
91 535 m 1
 231 675 l 2
 256 700 266 706 281 706 c 0
 300 706 316 690 316 671 c 0
 316 657 306 642 291 632 c 2
 132 535 l 1
 91 535 l 1
EndSplineSet
EndChar

StartChar: mu
Encoding: 181 181 117
Width: 611
Flags: MW
LayerCount: 2
Fore
SplineSet
412 -7 m 1
 412 76 l 1
 369 12 322 -15 258 -15 c 0
 208 -15 171 2 141 39 c 1
 141 -8 141 -12 153 -53 c 0
 169 -110 172 -124 172 -145 c 0
 172 -189 152 -219 123 -219 c 0
 94 -219 73 -189 73 -147 c 0
 73 -124 74 -117 90 -56 c 0
 98 -27 102 -1 102 20 c 2
 102 362 l 2
 102 405 96 412 59 412 c 2
 21 412 l 1
 21 455 l 1
 196 466 l 1
 196 161 l 2
 196 106 198 96 211 77 c 0
 224 57 250 46 281 46 c 0
 330 46 370 72 391 116 c 0
 406 149 412 182 412 239 c 2
 412 362 l 2
 412 405 406 412 369 412 c 2
 318 412 l 1
 318 455 l 1
 506 466 l 1
 506 116 l 2
 506 52 514 43 569 43 c 2
 594 43 l 1
 594 0 l 1
 412 -7 l 1
EndSplineSet
EndChar

StartChar: paragraph
Encoding: 182 182 118
Width: 606
Flags: MW
LayerCount: 2
Fore
SplineSet
277 324 m 1
 247 324 l 2
 118 324 49 393 49 523 c 0
 49 608 79 671 135 700 c 0
 157 712 189 720 222 722 c 1
 282 722 l 1
 557 722 l 1
 557 686 l 1
 498 683 492 678 492 639 c 2
 492 599 l 1
 492 -21 l 2
 492 -86 492 -86 499 -94 c 0
 506 -103 514 -105 557 -108 c 1
 557 -144 l 1
 198 -144 l 1
 198 -108 l 1
 202 -108 l 2
 240 -108 263 -103 271 -94 c 0
 277 -86 277 -86 277 -21 c 2
 277 324 l 1
277 357 m 1
 277 686 l 1
 208 686 185 655 185 563 c 2
 185 481 l 2
 185 440 195 400 209 381 c 0
 222 364 238 357 265 357 c 2
 277 357 l 1
427 686 m 1
 342 686 l 1
 342 -107 l 1
 427 -107 l 1
 427 686 l 1
EndSplineSet
EndChar

StartChar: cedilla
Encoding: 184 184 120
Width: 333
Flags: MW
LayerCount: 2
Fore
SplineSet
150 0 m 1
 126 -63 l 1
 140 -61 147 -60 155 -60 c 0
 204 -60 237 -88 237 -128 c 0
 237 -179 188 -215 117 -215 c 0
 85 -215 57 -209 29 -198 c 1
 43 -165 l 1
 67 -173 85 -177 104 -177 c 0
 139 -177 161 -161 161 -137 c 0
 161 -114 142 -98 114 -98 c 0
 105 -98 92 -100 80 -103 c 1
 71 -98 l 1
 115 0 l 1
 150 0 l 1
EndSplineSet
EndChar

StartChar: onesuperior
Encoding: 185 185 121
Width: 333
Flags: MW
LayerCount: 2
Fore
SplineSet
181 712 m 1
 209 712 l 1
 205 666 204 639 204 610 c 2
 204 365 l 2
 204 336 204 335 207 331 c 0
 212 326 226 324 256 324 c 2
 294 324 l 1
 294 289 l 1
 39 289 l 1
 39 324 l 1
 82 324 l 2
 113 324 127 326 132 331 c 0
 135 334 135 336 135 365 c 2
 135 602 l 2
 135 635 134 636 99 636 c 2
 40 636 l 1
 40 669 l 1
 100 669 159 687 181 712 c 1
EndSplineSet
EndChar

StartChar: ordmasculine
Encoding: 186 186 122
Width: 300
Flags: MW
LayerCount: 2
Fore
SplineSet
152 730 m 0
 230 730 291 664 291 578 c 0
 291 492 233 433 148 433 c 0
 67 433 10 494 10 581 c 0
 10 665 71 730 152 730 c 0
152 704 m 0
 102 704 78 664 78 579 c 0
 78 501 103 459 150 459 c 0
 199 459 223 501 223 587 c 0
 223 662 198 704 152 704 c 0
21 369 m 1
 281 369 l 1
 281 329 l 1
 21 329 l 1
 21 369 l 1
EndSplineSet
EndChar

StartChar: onequarter
Encoding: 188 188 124
Width: 834
Flags: HMW
LayerCount: 2
Fore
SplineSet
689 423 m 1
 721 423 l 1
 718 373 718 373 718 301 c 2
 718 143 l 1
 795 143 l 1
 795 103 l 1
 718 103 l 1
 718 76 l 1
 718 59 l 2
 718 36 719 36 777 35 c 1
 777 0 l 1
 586 0 l 1
 586 35 l 1
 597 35 l 2
 646 35 650 37 650 59 c 2
 650 76 l 1
 650 103 l 1
 473 103 l 1
 473 140 l 1
 689 423 l 1
650 143 m 1
 650 308 l 1
 523 143 l 1
 650 143 l 1
EndSplineSet
Refer: 699 8260 S 1 0 0 1 372 0 2
Refer: 121 185 S 1 0 0 1 0 0 2
EndChar

StartChar: onehalf
Encoding: 189 189 125
Width: 834
Flags: HMW
LayerCount: 2
Fore
SplineSet
515 0 m 1
 515 22 l 1
 543 57 555 70 578 95 c 0
 586 104 582 100 590 108 c 0
 602 121 615 134 627 145 c 0
 640 157 652 169 664 182 c 1
 716 232 738 272 738 314 c 0
 738 362 708 390 658 390 c 0
 614 390 574 362 574 333 c 0
 574 327 574 327 597 318 c 0
 612 312 622 298 622 281 c 0
 622 258 604 242 579 242 c 0
 547 242 525 269 525 308 c 0
 525 373 588 423 671 423 c 0
 755 423 816 373 816 304 c 0
 816 247 791 215 689 141 c 0
 649 112 636 101 596 63 c 1
 732 63 l 2
 768 63 773 67 780 102 c 2
 787 135 l 1
 821 135 l 1
 809 0 l 1
 515 0 l 1
EndSplineSet
Refer: 699 8260 S 1 0 0 1 366 0 2
Refer: 121 185 S 1 0 0 1 0 0 2
EndChar

StartChar: threequarters
Encoding: 190 190 126
Width: 834
Flags: HMW
LayerCount: 2
Fore
SplineSet
689 423 m 1
 721 423 l 1
 718 373 718 373 718 301 c 2
 718 143 l 1
 795 143 l 1
 795 103 l 1
 718 103 l 1
 718 76 l 1
 718 59 l 2
 718 36 719 36 777 35 c 1
 777 0 l 1
 586 0 l 1
 586 35 l 1
 597 35 l 2
 646 35 650 37 650 59 c 2
 650 76 l 1
 650 103 l 1
 473 103 l 1
 473 140 l 1
 689 423 l 1
650 143 m 1
 650 308 l 1
 523 143 l 1
 650 143 l 1
EndSplineSet
Refer: 699 8260 S 1 0 0 1 382 0 2
Refer: 115 179 S 1 0 0 1 10 0 2
EndChar

StartChar: questiondown
Encoding: 191 191 127
Width: 444
Flags: MW
LayerCount: 2
Fore
SplineSet
224 343 m 1
 268 343 l 1
 268 311 l 2
 268 264 264 238 254 210 c 0
 241 175 241 175 167 74 c 0
 146 45 135 7 135 -34 c 0
 135 -112 176 -157 247 -157 c 0
 295 -157 339 -133 339 -107 c 0
 339 -99 338 -97 323 -85 c 0
 304 -69 294 -52 294 -32 c 0
 294 -1 319 23 351 23 c 0
 388 23 416 -10 416 -54 c 0
 416 -140 334 -202 221 -202 c 0
 107 -202 30 -132 30 -28 c 0
 30 42 52 76 150 163 c 1
 212 216 224 243 224 332 c 2
 224 343 l 1
249 549 m 0
 283 549 311 521 311 486 c 0
 311 452 283 424 248 424 c 0
 214 424 186 452 186 486 c 0
 186 521 214 549 249 549 c 0
EndSplineSet
EndChar

StartChar: AE
Encoding: 198 198 134
Width: 1000
Flags: MW
LayerCount: 2
Fore
SplineSet
933 722 m 1
 947 466 l 1
 904 466 l 1
 889 555 865 613 833 639 c 1
 803 662 744 675 667 675 c 2
 643 675 l 2
 589 675 580 668 580 625 c 2
 580 397 l 1
 593 397 l 2
 688 397 728 436 733 534 c 1
 780 534 l 1
 780 206 l 1
 733 206 l 1
 731 265 721 297 695 323 c 0
 675 344 650 350 589 350 c 2
 580 350 l 1
 580 95 l 2
 580 74 581 68 588 62 c 0
 597 53 622 47 652 47 c 2
 687 47 l 2
 771 47 828 66 859 106 c 0
 883 136 906 197 920 267 c 1
 963 267 l 1
 943 0 l 1
 359 0 l 1
 359 47 l 1
 378 47 l 2
 459 47 468 52 468 94 c 2
 468 123 l 1
 468 269 l 1
 229 269 l 1
 158 139 l 2
 149 121 144 105 144 93 c 0
 144 62 170 47 222 47 c 2
 233 47 l 1
 233 0 l 1
 0 0 l 1
 0 47 l 1
 35 54 55 73 89 132 c 1
 336 576 l 2
 344 591 349 607 349 621 c 0
 349 643 335 661 314 668 c 0
 297 674 286 675 251 675 c 2
 240 675 l 1
 240 722 l 1
 933 722 l 1
468 323 m 1
 468 648 l 2
 468 668 466 671 458 671 c 0
 452 671 448 667 441 653 c 2
 258 323 l 1
 468 323 l 1
EndSplineSet
EndChar

StartChar: Eth
Encoding: 208 208 144
Width: 778
Flags: MW
LayerCount: 2
Fore
SplineSet
137 350 m 1
 29 350 l 1
 29 397 l 1
 137 397 l 1
 137 599 l 1
 137 628 l 2
 137 670 128 675 48 675 c 2
 29 675 l 1
 29 722 l 1
 347 722 l 2
 461 722 536 706 590 671 c 0
 680 613 732 498 732 361 c 0
 732 215 675 100 575 44 c 0
 522 14 455 0 365 0 c 2
 29 0 l 1
 29 47 l 1
 48 47 l 2
 128 47 137 52 137 94 c 2
 137 123 l 1
 137 350 l 1
249 350 m 1
 249 102 l 2
 249 53 256 47 306 47 c 2
 374 47 l 2
 536 47 600 136 600 361 c 0
 600 582 529 675 359 675 c 2
 306 675 l 2
 256 675 249 668 249 619 c 2
 249 397 l 1
 429 397 l 1
 429 350 l 1
 249 350 l 1
EndSplineSet
EndChar

StartChar: multiply
Encoding: 215 215 151
Width: 606
Flags: MW
LayerCount: 2
Fore
SplineSet
303 196 m 1
 107 1 l 1
 51 57 l 1
 247 253 l 1
 51 448 l 1
 107 505 l 1
 303 309 l 1
 499 505 l 1
 555 448 l 1
 359 253 l 1
 555 57 l 1
 499 1 l 1
 303 196 l 1
EndSplineSet
EndChar

StartChar: Oslash
Encoding: 216 216 152
Width: 778
Flags: MW
LayerCount: 2
Fore
SplineSet
585 674 m 1
 650 762 l 1
 704 762 l 1
 618 645 l 1
 690 573 733 468 733 366 c 0
 733 256 679 133 600 62 c 0
 546 14 466 -15 387 -15 c 0
 310 -15 246 8 183 58 c 1
 84 -76 l 1
 30 -76 l 1
 151 88 l 1
 85 157 44 261 44 360 c 0
 44 471 95 586 176 657 c 0
 236 710 309 737 391 737 c 0
 463 737 524 717 585 674 c 1
206 163 m 1
 542 616 l 1
 505 666 454 690 388 690 c 0
 249 690 176 574 176 353 c 0
 176 271 186 208 206 163 c 1
566 575 m 1
 229 120 l 1
 266 62 320 32 390 32 c 0
 455 32 512 61 545 112 c 0
 585 174 601 246 601 372 c 0
 601 467 591 523 566 575 c 1
EndSplineSet
EndChar

StartChar: Thorn
Encoding: 222 222 158
Width: 667
Flags: MW
LayerCount: 2
Fore
SplineSet
250 574 m 1
 316 574 l 2
 434 574 488 564 549 531 c 0
 614 497 649 444 649 379 c 0
 649 313 610 251 548 219 c 0
 487 188 422 176 307 176 c 2
 250 176 l 1
 250 123 l 1
 250 94 l 2
 250 52 259 47 339 47 c 2
 359 47 l 1
 359 0 l 1
 28 0 l 1
 28 47 l 1
 48 47 l 2
 129 47 138 52 138 95 c 2
 138 123 l 1
 138 599 l 1
 138 628 l 2
 138 670 129 675 48 675 c 2
 28 675 l 1
 28 722 l 1
 359 722 l 1
 359 675 l 1
 339 675 l 2
 259 675 250 670 250 628 c 2
 250 599 l 1
 250 574 l 1
250 221 m 1
 296 221 l 2
 470 221 526 260 526 381 c 0
 526 437 508 477 471 499 c 0
 435 521 401 528 323 528 c 2
 301 528 l 2
 254 528 250 524 250 476 c 2
 250 221 l 1
EndSplineSet
EndChar

StartChar: germandbls
Encoding: 223 223 159
Width: 574
Flags: MW
LayerCount: 2
Fore
SplineSet
108 123 m 1
 108 493 l 2
 108 587 116 623 147 665 c 0
 181 711 238 737 306 737 c 0
 422 737 497 668 497 563 c 0
 497 494 467 451 391 412 c 1
 431 397 453 384 475 362 c 0
 512 323 535 259 535 194 c 0
 535 70 468 -15 371 -15 c 0
 298 -15 252 21 252 77 c 0
 252 114 274 138 307 138 c 0
 337 138 361 115 361 85 c 0
 361 74 360 70 349 49 c 0
 348 46 347 43 347 39 c 0
 347 29 355 23 366 23 c 0
 404 23 430 93 430 195 c 0
 430 299 404 360 351 384 c 0
 337 390 328 392 297 394 c 0
 276 395 269 400 269 414 c 0
 269 431 279 436 306 436 c 0
 374 436 403 472 403 559 c 0
 403 648 369 695 305 695 c 0
 240 695 202 644 202 557 c 2
 202 0 l 1
 29 0 l 1
 29 36 l 1
 33 36 l 2
 97 36 108 43 108 84 c 2
 108 123 l 1
EndSplineSet
EndChar

StartChar: ae
Encoding: 230 230 166
Width: 796
Flags: MW
LayerCount: 2
Fore
SplineSet
723 146 m 1
 759 127 l 1
 714 30 649 -15 554 -15 c 0
 496 -15 435 5 398 38 c 0
 389 45 383 52 363 73 c 1
 311 10 260 -15 184 -15 c 0
 94 -15 36 30 36 99 c 0
 36 165 76 214 154 244 c 0
 205 264 230 270 337 289 c 1
 337 335 l 2
 337 410 311 438 240 438 c 0
 193 438 154 421 154 400 c 0
 154 396 155 393 161 386 c 0
 171 372 176 358 176 345 c 0
 176 315 153 294 122 294 c 0
 86 294 63 318 63 356 c 0
 63 426 146 481 253 481 c 0
 322 481 379 460 407 424 c 1
 447 461 498 481 552 481 c 0
 614 481 670 453 705 403 c 1
 738 358 758 297 758 243 c 2
 758 225 l 1
 433 225 l 1
 434 165 440 134 457 105 c 0
 484 61 522 39 573 39 c 0
 639 39 682 70 723 146 c 1
337 193 m 2
 337 246 l 1
 255 232 224 224 196 209 c 0
 157 187 137 157 137 120 c 0
 137 72 168 37 212 37 c 0
 253 37 294 59 317 92 c 0
 334 118 337 131 337 193 c 2
434 268 m 1
 609 268 l 2
 641 268 650 276 650 305 c 0
 650 384 610 437 549 437 c 0
 501 437 468 408 448 348 c 0
 438 321 434 298 434 268 c 1
EndSplineSet
EndChar

StartChar: eth
Encoding: 240 240 176
Width: 500
Flags: MW
LayerCount: 2
Fore
SplineSet
339 694 m 1
 234 632 l 1
 310 576 349 538 387 484 c 0
 439 411 466 325 466 236 c 0
 466 95 371 -15 250 -15 c 0
 130 -15 34 95 34 233 c 0
 34 371 130 481 251 481 c 0
 266 481 279 479 294 476 c 1
 257 521 251 527 175 597 c 1
 57 529 l 1
 34 567 l 1
 136 626 l 1
 106 647 95 654 45 686 c 1
 71 725 l 1
 122 702 149 687 192 659 c 1
 314 731 l 1
 339 694 l 1
252 438 m 0
 177 438 139 368 139 232 c 0
 139 100 178 28 250 28 c 0
 322 28 361 100 361 233 c 0
 361 365 322 438 252 438 c 0
EndSplineSet
EndChar

StartChar: divide
Encoding: 247 247 183
Width: 606
Flags: HMW
LayerCount: 2
Fore
SplineSet
304 115 m 0
 337 115 365 87 365 53 c 0
 365 19 337 -9 303 -9 c 0
 269 -9 241 19 241 54 c 0
 241 88 269 115 304 115 c 0
304 515 m 0
 337 515 365 487 365 453 c 0
 365 419 337 391 303 391 c 0
 269 391 241 419 241 454 c 0
 241 487 269 515 304 515 c 0
EndSplineSet
Refer: 709 8722 S 1 0 0 1 0 0 2
EndChar

StartChar: oslash
Encoding: 248 248 184
Width: 500
Flags: MW
LayerCount: 2
Fore
SplineSet
341 458 m 1
 391 555 l 1
 441 555 l 1
 378 433 l 1
 433 386 466 309 466 228 c 0
 466 85 375 -15 247 -15 c 0
 213 -15 183 -9 158 4 c 1
 109 -91 l 1
 59 -91 l 1
 120 28 l 1
 65 76 34 149 34 232 c 0
 34 371 130 481 250 481 c 0
 282 481 310 474 341 458 c 1
158 102 m 1
 316 409 l 1
 296 430 277 438 251 438 c 0
 177 438 139 367 139 229 c 0
 139 176 145 138 158 102 c 1
343 364 m 1
 185 57 l 1
 202 37 223 28 249 28 c 0
 290 28 326 56 341 98 c 0
 354 136 361 188 361 242 c 0
 361 289 355 329 343 364 c 1
EndSplineSet
EndChar

StartChar: thorn
Encoding: 254 254 190
Width: 574
Flags: MW
LayerCount: 2
Fore
SplineSet
201 737 m 1
 201 394 l 1
 236 455 277 481 339 481 c 0
 449 481 535 372 535 235 c 0
 535 92 449 -15 333 -15 c 0
 272 -15 234 8 201 66 c 1
 201 -79 l 1
 201 -119 l 2
 201 -159 212 -166 277 -166 c 2
 288 -166 l 1
 288 -202 l 1
 28 -202 l 1
 28 -166 l 1
 32 -166 l 2
 96 -166 107 -159 107 -119 c 2
 107 -79 l 1
 107 633 l 2
 107 676 101 683 64 683 c 2
 28 683 l 1
 28 727 l 1
 201 737 l 1
321 427 m 0
 246 427 200 352 200 228 c 0
 200 113 247 39 318 39 c 0
 389 39 430 112 430 241 c 0
 430 358 389 427 321 427 c 0
EndSplineSet
EndChar

StartChar: Aogonek
Encoding: 260 260 196
Width: 722
Flags: MW
LayerCount: 2
Fore
SplineSet
336 736 m 1
 378 736 l 1
 633 111 l 2
 656 55 667 47 717 47 c 2
 731 47 l 1
 731 0 l 1
 704 -1 697 -1 687 -4 c 0
 660 -12 641 -38 641 -67 c 0
 641 -91 659 -111 681 -111 c 0
 703 -111 724 -100 753 -74 c 1
 769 -95 l 1
 728 -137 698 -152 661 -152 c 0
 621 -152 591 -123 591 -84 c 0
 591 -50 607 -24 643 0 c 1
 421 0 l 1
 421 47 l 1
 463 47 l 2
 500 47 525 57 525 73 c 0
 525 78 523 85 517 100 c 2
 463 234 l 1
 198 234 l 1
 165 146 l 2
 159 130 156 116 156 104 c 0
 156 66 183 47 237 47 c 2
 257 47 l 1
 257 0 l 1
 -8 0 l 1
 -8 47 l 1
 -4 47 l 2
 23 47 51 59 67 78 c 1
 82 94 86 101 106 153 c 2
 336 736 l 1
329 572 m 1
 218 288 l 1
 442 288 l 1
 329 572 l 1
EndSplineSet
Ligature2: "CCMP" A uni0328
EndChar

StartChar: aogonek
Encoding: 261 261 197
Width: 556
Flags: MW
LayerCount: 2
Fore
SplineSet
548 -74 m 1
 564 -95 l 1
 523 -137 493 -152 456 -152 c 0
 416 -152 386 -123 386 -84 c 0
 386 -52 400 -27 430 -5 c 1
 396 1 376 21 363 64 c 1
 320 13 258 -15 189 -15 c 0
 101 -15 44 31 44 102 c 0
 44 165 86 212 172 244 c 0
 221 263 253 271 358 289 c 1
 358 328 l 2
 358 373 351 397 332 413 c 1
 316 428 281 438 250 438 c 0
 202 438 161 420 161 399 c 0
 161 396 162 393 168 386 c 0
 178 372 183 358 183 345 c 0
 183 315 160 294 129 294 c 0
 94 294 71 318 71 356 c 0
 71 428 154 481 266 481 c 0
 330 481 379 467 412 441 c 0
 441 417 452 385 452 322 c 2
 452 121 l 2
 452 71 462 52 490 52 c 0
 498 52 502 53 518 59 c 0
 525 62 529 63 533 63 c 0
 538 63 543 58 543 51 c 0
 543 41 535 28 523 18 c 0
 513 9 513 9 468 -10 c 0
 451 -17 436 -45 436 -67 c 0
 436 -91 454 -111 476 -111 c 0
 498 -111 519 -100 548 -74 c 1
358 200 m 2
 358 246 l 1
 280 233 241 223 210 209 c 0
 166 188 145 158 145 116 c 0
 145 71 179 38 224 38 c 0
 267 38 313 63 338 100 c 0
 355 126 358 140 358 200 c 2
EndSplineSet
Ligature2: "CCMP" a uni0328
EndChar

StartChar: dcaron
Encoding: 271 271 207
Width: 606
Flags: MW
LayerCount: 2
Fore
SplineSet
508 478 m 1
 488 503 l 1
 547 540 579 583 579 626 c 0
 579 631 577 634 573 634 c 2
 570 634 l 1
 566 633 563 633 558 633 c 0
 518 633 494 653 494 686 c 0
 494 717 519 740 553 740 c 0
 596 740 627 705 627 654 c 0
 627 617 613 577 589 545 c 0
 576 528 561 516 523 488 c 0
 519 485 513 481 508 478 c 1
EndSplineSet
Refer: 69 100 S 1 0 0 1 0 0 2
Ligature2: "CCMP" d uni030C
EndChar

StartChar: dcroat
Encoding: 273 273 209
Width: 574
Flags: MW
LayerCount: 2
Fore
SplineSet
380 568 m 1
 241 568 l 1
 241 615 l 1
 380 615 l 1
 380 633 l 2
 380 676 373 683 337 683 c 2
 278 683 l 1
 278 726 l 1
 474 737 l 1
 474 615 l 1
 554 615 l 1
 554 568 l 1
 474 568 l 1
 474 116 l 2
 474 53 482 43 536 43 c 2
 554 43 l 1
 554 0 l 1
 380 -7 l 1
 380 72 l 1
 348 12 305 -15 242 -15 c 0
 126 -15 43 86 43 228 c 0
 43 372 129 481 243 481 c 0
 300 481 343 458 380 407 c 1
 380 568 l 1
262 427 m 0
 221 427 184 398 167 354 c 0
 154 320 148 275 148 216 c 0
 148 105 191 39 261 39 c 0
 333 39 379 114 379 231 c 0
 379 279 372 321 360 351 c 0
 342 397 303 427 262 427 c 0
EndSplineSet
EndChar

StartChar: Eogonek
Encoding: 280 280 216
Width: 722
Flags: MW
LayerCount: 2
Fore
SplineSet
460 534 m 1
 460 206 l 1
 413 206 l 1
 411 265 401 297 375 323 c 0
 355 344 330 350 269 350 c 2
 249 350 l 1
 249 95 l 2
 249 74 250 68 257 62 c 0
 266 53 291 47 321 47 c 2
 387 47 l 2
 471 47 528 66 559 106 c 1
 583 135 606 197 619 267 c 1
 663 267 l 1
 643 0 l 1
 616 -1 609 -1 599 -4 c 0
 572 -12 552 -38 552 -67 c 0
 552 -91 570 -111 592 -111 c 0
 614 -111 636 -100 664 -74 c 1
 680 -95 l 1
 640 -136 610 -152 572 -152 c 0
 532 -152 502 -123 502 -84 c 0
 502 -50 518 -24 555 0 c 1
 29 0 l 1
 29 47 l 1
 47 47 l 2
 100 47 122 51 131 61 c 0
 137 69 137 69 137 123 c 2
 137 599 l 1
 137 628 l 2
 137 670 128 675 47 675 c 2
 29 675 l 1
 29 722 l 1
 630 722 l 1
 644 466 l 1
 601 466 l 1
 586 556 562 612 529 638 c 0
 495 666 452 675 364 675 c 2
 312 675 l 2
 258 675 249 668 249 625 c 2
 249 397 l 1
 273 397 l 2
 368 397 408 436 413 534 c 1
 460 534 l 1
EndSplineSet
Ligature2: "CCMP" E uni0328
EndChar

StartChar: eogonek
Encoding: 281 281 217
Width: 500
Flags: MW
LayerCount: 2
Fore
SplineSet
430 146 m 1
 465 127 l 1
 450 88 412 36 359 -17 c 0
 341 -35 335 -47 335 -65 c 0
 335 -91 352 -111 375 -111 c 0
 397 -111 418 -100 447 -74 c 1
 463 -95 l 1
 422 -137 392 -152 355 -152 c 0
 315 -152 285 -123 285 -84 c 0
 285 -52 298 -28 329 -6 c 1
 303 -13 286 -15 262 -15 c 0
 126 -15 35 79 35 220 c 0
 35 370 131 481 259 481 c 0
 380 481 465 376 465 228 c 2
 465 225 l 1
 141 225 l 1
 141 216 l 2
 141 166 149 133 166 105 c 0
 192 61 229 39 280 39 c 0
 347 39 389 69 430 146 c 1
142 268 m 1
 317 268 l 2
 349 268 358 276 358 305 c 0
 358 385 318 438 257 438 c 0
 209 438 177 409 156 349 c 0
 146 321 142 299 142 268 c 1
EndSplineSet
Ligature2: "CCMP" e uni0328
EndChar

StartChar: gcommaaccent
Encoding: 291 291 227
Width: 537
Flags: MW
LayerCount: 2
Fore
SplineSet
316 780 m 1
 337 755 l 1
 278 717 246 674 246 631 c 0
 246 626 249 623 252 623 c 0
 253 623 254 623 255 624 c 2
 266 625 l 1
 306 625 330 605 330 572 c 0
 330 540 305 517 272 517 c 0
 228 517 198 552 198 603 c 0
 198 641 212 680 236 712 c 0
 249 729 264 742 302 769 c 1
 316 780 l 1
EndSplineSet
Refer: 72 103 S 1 0 0 1 0 0 2
Ligature2: "CCMP" g uni0327
EndChar

StartChar: Hbar
Encoding: 294 294 230
Width: 833
Flags: MW
LayerCount: 2
Fore
SplineSet
696 494 m 1
 695 494 l 1
 695 123 l 1
 695 94 l 2
 695 52 704 47 785 47 c 2
 803 47 l 1
 803 0 l 1
 475 0 l 1
 475 47 l 1
 493 47 l 2
 574 47 583 52 583 94 c 2
 583 123 l 1
 583 347 l 1
 248 347 l 1
 248 123 l 1
 248 94 l 2
 248 52 257 47 338 47 c 2
 357 47 l 1
 357 0 l 1
 28 0 l 1
 28 47 l 1
 46 47 l 2
 127 47 136 52 136 94 c 2
 136 123 l 1
 136 494 l 1
 53 494 l 1
 53 548 l 1
 137 548 l 1
 137 599 l 1
 137 628 l 2
 137 670 128 675 47 675 c 2
 29 675 l 1
 29 722 l 1
 358 722 l 1
 358 675 l 1
 339 675 l 2
 258 675 249 670 249 628 c 2
 249 599 l 1
 249 548 l 1
 584 548 l 1
 584 599 l 1
 584 628 l 2
 584 670 575 675 494 675 c 2
 480 675 l 1
 480 722 l 1
 804 722 l 1
 804 675 l 1
 786 675 l 2
 705 675 696 670 696 628 c 2
 696 599 l 1
 696 548 l 1
 789 548 l 1
 789 494 l 1
 696 494 l 1
583 494 m 1
 248 494 l 1
 248 401 l 1
 583 401 l 1
 583 494 l 1
EndSplineSet
EndChar

StartChar: hbar
Encoding: 295 295 231
Width: 611
Flags: MW
LayerCount: 2
Fore
SplineSet
106 544 m 1
 16 544 l 1
 16 598 l 1
 106 598 l 1
 106 633 l 2
 106 676 100 683 63 683 c 2
 15 683 l 1
 15 726 l 1
 200 737 l 1
 200 598 l 1
 330 598 l 1
 330 544 l 1
 200 544 l 1
 200 384 l 1
 245 451 294 481 358 481 c 0
 418 481 468 452 493 404 c 0
 511 370 514 352 514 280 c 2
 514 123 l 1
 514 83 l 2
 514 43 525 36 589 36 c 2
 593 36 l 1
 593 0 l 1
 340 0 l 1
 340 36 l 1
 344 36 l 2
 409 36 420 43 420 83 c 2
 420 123 l 1
 420 284 l 2
 420 333 413 363 398 385 c 1
 383 405 353 420 327 420 c 0
 284 420 239 389 218 344 c 0
 207 321 200 276 200 226 c 2
 200 123 l 1
 200 83 l 2
 200 43 211 36 276 36 c 2
 280 36 l 1
 280 0 l 1
 27 0 l 1
 27 36 l 1
 31 36 l 2
 95 36 106 43 106 83 c 2
 106 123 l 1
 106 544 l 1
EndSplineSet
EndChar

StartChar: Iogonek
Encoding: 302 302 238
Width: 407
Flags: MW
LayerCount: 2
Fore
SplineSet
369 47 m 1
 369 0 l 1
 342 -1 335 -1 325 -4 c 0
 298 -12 279 -38 279 -67 c 0
 279 -91 297 -111 319 -111 c 0
 341 -111 362 -100 391 -74 c 1
 407 -95 l 1
 366 -137 336 -152 299 -152 c 0
 259 -152 229 -123 229 -84 c 0
 229 -50 245 -24 281 0 c 1
 38 0 l 1
 38 47 l 1
 58 47 l 2
 111 47 133 51 141 61 c 0
 148 69 148 70 148 123 c 2
 148 599 l 1
 148 628 l 2
 148 670 139 675 58 675 c 2
 38 675 l 1
 38 722 l 1
 369 722 l 1
 369 675 l 1
 349 675 l 2
 269 675 260 670 260 628 c 2
 260 599 l 1
 260 123 l 2
 260 69 260 69 266 61 c 0
 275 51 297 47 349 47 c 2
 369 47 l 1
EndSplineSet
Ligature2: "CCMP" I uni0328
EndChar

StartChar: iogonek
Encoding: 303 303 239
Width: 315
Flags: MW
LayerCount: 2
Fore
SplineSet
289 36 m 1
 289 0 l 1
 262 -1 255 -1 245 -4 c 0
 218 -12 199 -38 199 -67 c 0
 199 -91 217 -111 239 -111 c 0
 261 -111 282 -100 311 -74 c 1
 327 -95 l 1
 286 -137 256 -152 219 -152 c 0
 179 -152 149 -123 149 -84 c 0
 149 -50 165 -24 201 0 c 1
 30 0 l 1
 30 36 l 1
 37 36 l 2
 76 36 98 41 106 50 c 0
 112 58 112 58 112 123 c 2
 112 362 l 2
 112 405 106 412 69 412 c 2
 18 412 l 1
 18 455 l 1
 206 466 l 1
 206 123 l 2
 206 58 206 58 212 50 c 0
 220 41 243 36 282 36 c 2
 289 36 l 1
159 715 m 0
 191 715 217 689 217 657 c 0
 217 625 191 599 158 599 c 0
 127 599 101 626 101 657 c 0
 101 689 127 715 159 715 c 0
EndSplineSet
Ligature2: "CCMP" dotlessi uni0328
EndChar

StartChar: dotlessi
Encoding: 305 305 241
Width: 315
Flags: MW
LayerCount: 2
Fore
SplineSet
206 466 m 1
 206 123 l 1
 206 83 l 2
 206 43 217 36 282 36 c 2
 289 36 l 1
 289 0 l 1
 30 0 l 1
 30 36 l 1
 37 36 l 2
 101 36 112 43 112 83 c 2
 112 123 l 1
 112 362 l 2
 112 404 106 412 69 412 c 2
 18 412 l 1
 18 455 l 1
 206 466 l 1
EndSplineSet
EndChar

StartChar: kgreenlandic
Encoding: 312 312 248
Width: 591
Flags: MW
LayerCount: 2
Fore
SplineSet
323 373 m 1
 323 375 l 2
 323 446 371 475 449 475 c 0
 515 475 527 463 547 423 c 0
 549 418 551 413 551 408 c 0
 551 391 537 374 519 368 c 0
 511 365 502 364 493 364 c 0
 468 364 444 376 444 400 c 0
 444 425 464 424 464 431 c 1
 464 431 463 432 463 433 c 0
 461 437 453 441 441 441 c 2
 440 441 l 2
 426 441 382 411 381 371 c 0
 380 292 357 250 293 235 c 1
 394 226 447 170 448 95 c 0
 449 39 475 39 498 39 c 0
 525 39 537 59 541 103 c 1
 583 103 l 1
 580 26 541 -10 459 -10 c 0
 380 -10 343 20 331 93 c 1
 331 116 332 136 332 151 c 0
 332 198 317 213 190 213 c 1
 190 122 l 1
 190 104 l 2
 190 97 189 90 189 82 c 0
 189 59 196 35 252 35 c 2
 271 35 l 1
 271 0 l 1
 17 0 l 1
 17 35 l 1
 35 35 l 2
 90 35 99 53 99 72 c 0
 99 82 97 91 97 100 c 2
 97 118 l 1
 97 346 l 1
 97 365 l 1
 97 379 l 2
 97 404 92 431 35 431 c 2
 17 431 l 1
 17 466 l 1
 271 466 l 1
 271 431 l 1
 252 431 l 2
 197 431 190 408 190 385 c 0
 190 377 191 369 191 362 c 2
 191 343 l 1
 191 257 l 1
 200 257 l 2
 311 257 324 271 324 315 c 0
 324 328 323 344 323 363 c 2
 323 373 l 1
EndSplineSet
EndChar

StartChar: Lcaron
Encoding: 317 317 253
Width: 667
Flags: MW
LayerCount: 2
Fore
SplineSet
483 478 m 1
 463 503 l 1
 522 540 554 583 554 626 c 0
 554 631 552 634 548 634 c 2
 545 634 l 1
 541 633 538 633 533 633 c 0
 493 633 469 653 469 686 c 0
 469 717 494 740 528 740 c 0
 571 740 602 705 602 654 c 0
 602 617 588 577 564 545 c 0
 551 528 536 516 498 488 c 0
 494 485 488 481 483 478 c 1
EndSplineSet
Refer: 45 76 S 1 0 0 1 0 0 2
Ligature2: "CCMP" L uni030C
EndChar

StartChar: lcaron
Encoding: 318 318 254
Width: 339
Flags: MW
LayerCount: 2
Fore
SplineSet
240 478 m 1
 220 503 l 1
 279 540 311 583 311 626 c 0
 311 631 309 634 305 634 c 2
 302 634 l 1
 298 633 295 633 290 633 c 0
 250 633 226 653 226 686 c 0
 226 717 251 740 285 740 c 0
 328 740 359 705 359 654 c 0
 359 617 345 577 321 545 c 0
 308 528 293 516 255 488 c 0
 251 485 245 481 240 478 c 1
EndSplineSet
Refer: 77 108 S 1 0 0 1 0 0 2
Ligature2: "CCMP" l uni030C
EndChar

StartChar: Ldot
Encoding: 319 319 255
Width: 667
Flags: HMW
LayerCount: 2
Fore
SplineSet
439 425 m 0
 473 425 501 397 501 363 c 0
 501 328 473 300 438 300 c 0
 404 300 376 328 376 363 c 0
 376 397 404 425 439 425 c 0
EndSplineSet
Refer: 45 76 N 1 0 0 1 0 0 2
LCarets2: 1 0 
Ligature2: "CCMP" L periodcentered
EndChar

StartChar: ldot
Encoding: 320 320 256
Width: 460
Flags: HMW
LayerCount: 2
Fore
SplineSet
348 377 m 0
 382 377 410 349 410 315 c 0
 410 280 382 252 347 252 c 0
 313 252 285 280 285 315 c 0
 285 349 313 377 348 377 c 0
EndSplineSet
Refer: 77 108 N 1 0 0 1 0 0 2
LCarets2: 1 0 
Ligature2: "CCMP" l periodcentered
EndChar

StartChar: Lslash
Encoding: 321 321 257
Width: 667
Flags: MW
LayerCount: 2
Fore
SplineSet
142 268 m 1
 34 193 l 1
 34 248 l 1
 142 324 l 1
 142 599 l 1
 142 628 l 2
 142 670 133 675 52 675 c 2
 34 675 l 1
 34 722 l 1
 362 722 l 1
 362 675 l 1
 344 675 l 2
 263 675 254 670 254 628 c 2
 254 599 l 1
 254 389 l 1
 441 526 l 1
 441 468 l 1
 254 332 l 1
 254 95 l 2
 254 74 255 68 262 62 c 0
 271 53 296 47 326 47 c 2
 369 47 l 2
 456 47 508 64 541 105 c 0
 569 141 591 202 601 274 c 1
 645 274 l 1
 625 0 l 1
 34 0 l 1
 34 47 l 1
 52 47 l 2
 133 47 142 52 142 94 c 2
 142 123 l 1
 142 268 l 1
EndSplineSet
EndChar

StartChar: lslash
Encoding: 322 322 258
Width: 315
Flags: MW
LayerCount: 2
Fore
SplineSet
204 421 m 1
 282 475 l 1
 282 419 l 1
 204 365 l 1
 204 123 l 1
 204 83 l 2
 204 43 215 36 280 36 c 2
 287 36 l 1
 287 0 l 1
 28 0 l 1
 28 36 l 1
 35 36 l 2
 99 36 110 43 110 83 c 2
 110 123 l 1
 110 309 l 1
 32 255 l 1
 32 311 l 1
 110 365 l 1
 110 633 l 2
 110 676 104 683 68 683 c 2
 19 683 l 1
 19 726 l 1
 204 737 l 1
 204 421 l 1
EndSplineSet
EndChar

StartChar: Eng
Encoding: 330 330 266
Width: 810
Flags: MW
LayerCount: 2
Fore
SplineSet
624 22 m 1
 168 539 l 1
 168 147 l 2
 168 46 187 46 272 38 c 1
 272 0 l 1
 13 0 l 1
 13 38 l 1
 104 50 120 44 120 147 c 2
 120 588 l 1
 79 632 62 634 21 634 c 2
 13 634 l 1
 13 672 l 1
 201 672 l 1
 625 178 l 1
 625 515 l 2
 625 577 615 613 593 627 c 0
 586 631 579 631 571 631 c 2
 552 631 l 2
 543 631 533 632 519 634 c 1
 519 672 l 1
 778 672 l 1
 778 634 l 1
 762 630 749 630 740 630 c 2
 728 630 l 2
 719 630 712 629 705 625 c 0
 684 612 673 575 673 515 c 2
 673 0 l 2
 673 -142 651 -218 530 -218 c 0
 471 -218 427 -195 427 -163 c 0
 427 -141 447 -124 472 -124 c 0
 490 -124 505 -133 525 -156 c 0
 543 -177 554 -184 571 -184 c 0
 586 -184 602 -176 608 -166 c 0
 620 -146 624 -121 624 -45 c 2
 624 22 l 1
EndSplineSet
EndChar

StartChar: eng
Encoding: 331 331 267
Width: 584
Flags: MW
LayerCount: 2
Fore
SplineSet
509 0 m 2
 509 -142 438 -218 306 -218 c 0
 241 -218 193 -195 193 -163 c 0
 193 -141 215 -124 242 -124 c 0
 262 -124 278 -133 300 -156 c 0
 320 -177 332 -184 350 -184 c 0
 367 -184 384 -176 391 -166 c 0
 404 -146 408 -121 408 -45 c 2
 408 308 l 2
 408 374 379 405 320 405 c 0
 281 405 254 393 197 348 c 1
 197 67 l 2
 197 31 215 38 276 30 c 1
 276 0 l 1
 22 0 l 1
 22 30 l 1
 83 38 96 33 96 90 c 2
 96 338 l 2
 96 387 85 402 52 402 c 0
 38 402 26 401 19 398 c 1
 18 432 l 1
 85 446 124 451 185 460 c 1
 193 458 l 1
 194 392 l 1
 276 456 314 468 370 468 c 0
 458 468 509 404 509 310 c 2
 509 0 l 2
EndSplineSet
EndChar

StartChar: OE
Encoding: 338 338 274
Width: 1000
Flags: MW
LayerCount: 2
Fore
SplineSet
951 722 m 1
 965 466 l 1
 921 466 l 1
 906 555 883 613 850 639 c 0
 820 662 762 675 685 675 c 2
 659 675 l 2
 605 675 596 668 596 625 c 2
 596 397 l 1
 609 397 l 2
 704 397 744 436 749 534 c 1
 796 534 l 1
 796 206 l 1
 749 206 l 1
 747 265 737 297 711 323 c 0
 691 344 666 350 605 350 c 2
 596 350 l 1
 596 95 l 2
 596 74 597 68 604 62 c 0
 613 53 638 47 668 47 c 2
 705 47 l 2
 853 47 903 95 937 267 c 1
 981 267 l 1
 961 0 l 1
 373 0 l 2
 265 0 192 27 130 90 c 0
 60 162 19 264 19 366 c 0
 19 480 69 590 151 654 c 0
 208 699 285 722 381 722 c 2
 951 722 l 1
484 237 m 2
 484 509 l 2
 484 583 480 603 458 630 c 0
 435 659 395 675 347 675 c 0
 284 675 229 647 201 600 c 0
 168 545 151 463 151 360 c 0
 151 151 216 47 348 47 c 0
 400 47 444 68 464 102 c 0
 480 131 484 160 484 237 c 2
EndSplineSet
EndChar

StartChar: oe
Encoding: 339 339 275
Width: 833
Flags: MW
LayerCount: 2
Fore
SplineSet
765 146 m 1
 800 127 l 1
 759 32 690 -15 594 -15 c 0
 522 -15 457 13 418 62 c 1
 375 10 320 -15 248 -15 c 0
 123 -15 34 87 34 232 c 0
 34 371 131 481 253 481 c 0
 318 481 383 448 420 394 c 1
 465 452 523 481 592 481 c 0
 715 481 800 376 800 225 c 1
 472 225 l 1
 472 170 480 134 497 105 c 0
 524 60 562 39 613 39 c 0
 680 39 724 70 765 146 c 1
254 438 m 0
 178 438 139 368 139 229 c 0
 139 100 179 28 252 28 c 0
 294 28 331 55 346 98 c 0
 358 135 366 188 366 239 c 0
 366 367 326 438 254 438 c 0
473 268 m 1
 650 268 l 2
 683 268 692 276 692 305 c 0
 692 385 651 438 590 438 c 0
 542 438 508 409 487 349 c 0
 478 321 474 298 473 268 c 1
EndSplineSet
EndChar

StartChar: tcaron
Encoding: 357 357 293
Width: 389
Flags: MW
LayerCount: 2
Fore
SplineSet
270 478 m 1
 250 503 l 1
 309 540 341 583 341 626 c 0
 341 631 339 634 335 634 c 2
 332 634 l 1
 328 633 325 633 320 633 c 0
 280 633 256 653 256 686 c 0
 256 717 281 740 315 740 c 0
 358 740 389 705 389 654 c 0
 389 617 375 577 351 545 c 0
 338 528 323 516 285 488 c 0
 281 485 275 481 270 478 c 1
EndSplineSet
Refer: 85 116 S 1 0 0 1 0 0 2
Ligature2: "CCMP" t uni030C
EndChar

StartChar: Tbar
Encoding: 358 358 294
Width: 667
Flags: MW
LayerCount: 2
Fore
SplineSet
278 382 m 1
 178 382 l 1
 178 436 l 1
 278 436 l 1
 278 639 l 2
 278 664 264 675 231 675 c 0
 163 675 115 637 89 564 c 0
 78 532 69 494 62 444 c 1
 19 444 l 1
 34 722 l 1
 633 722 l 1
 648 444 l 1
 605 444 l 1
 597 501 587 544 572 581 c 0
 547 641 498 675 437 675 c 0
 404 675 390 664 390 639 c 2
 390 436 l 1
 490 436 l 1
 490 382 l 1
 390 382 l 1
 390 123 l 1
 390 94 l 2
 390 52 399 47 479 47 c 2
 505 47 l 1
 505 0 l 1
 162 0 l 1
 162 47 l 1
 188 47 l 2
 269 47 278 52 278 94 c 2
 278 123 l 1
 278 382 l 1
EndSplineSet
EndChar

StartChar: tbar
Encoding: 359 359 295
Width: 389
Flags: MW
LayerCount: 2
Fore
SplineSet
100 260 m 1
 18 260 l 1
 18 314 l 1
 100 314 l 1
 100 423 l 1
 18 423 l 1
 18 462 l 1
 99 468 143 534 153 664 c 1
 194 664 l 1
 194 466 l 1
 341 466 l 1
 341 423 l 1
 194 423 l 1
 194 314 l 1
 332 314 l 1
 332 260 l 1
 194 260 l 1
 194 150 l 2
 194 114 197 89 203 75 c 0
 210 58 230 46 253 46 c 0
 302 46 328 92 331 182 c 1
 373 182 l 1
 374 172 374 165 374 159 c 0
 374 104 355 51 322 19 c 0
 299 -3 265 -15 226 -15 c 0
 168 -15 128 8 112 50 c 1
 102 73 100 98 100 168 c 2
 100 260 l 1
EndSplineSet
EndChar

StartChar: Uogonek
Encoding: 370 370 306
Width: 815
Flags: MW
LayerCount: 2
Fore
SplineSet
621 -74 m 1
 637 -95 l 1
 596 -137 567 -152 529 -152 c 0
 489 -152 459 -123 459 -84 c 0
 459 -51 475 -24 509 -2 c 1
 472 -11 440 -15 399 -15 c 0
 287 -15 198 22 153 88 c 0
 134 116 126 148 123 201 c 1
 123 270 l 1
 123 599 l 1
 123 628 l 2
 123 670 114 675 34 675 c 2
 17 675 l 1
 17 722 l 1
 344 722 l 1
 344 675 l 1
 325 675 l 2
 244 675 235 670 235 628 c 2
 235 599 l 1
 235 264 l 2
 235 171 240 147 267 110 c 0
 300 65 359 39 427 39 c 0
 508 39 573 75 605 137 c 0
 624 172 629 204 629 284 c 2
 629 505 l 2
 629 642 609 671 514 675 c 1
 514 722 l 1
 799 722 l 1
 799 675 l 1
 703 671 683 642 683 505 c 2
 683 278 l 2
 683 187 672 143 638 91 c 0
 610 48 595 33 541 -10 c 0
 519 -28 509 -45 509 -65 c 0
 509 -91 526 -111 549 -111 c 0
 571 -111 593 -100 621 -74 c 1
EndSplineSet
Ligature2: "CCMP" U uni0328
EndChar

StartChar: uogonek
Encoding: 371 371 307
Width: 611
Flags: MW
LayerCount: 2
Fore
SplineSet
196 466 m 1
 196 161 l 2
 196 106 198 96 211 77 c 0
 224 57 250 46 281 46 c 0
 330 46 370 72 391 116 c 0
 406 149 412 182 412 239 c 2
 412 362 l 2
 412 405 406 412 369 412 c 2
 318 412 l 1
 318 455 l 1
 506 466 l 1
 506 116 l 2
 506 52 514 43 569 43 c 2
 594 43 l 1
 594 0 l 1
 567 0 553 -2 541 -7 c 0
 520 -17 504 -42 504 -67 c 0
 504 -91 522 -111 544 -111 c 0
 566 -111 587 -100 616 -74 c 1
 632 -95 l 1
 591 -137 561 -152 524 -152 c 0
 484 -152 454 -123 454 -84 c 0
 454 -51 468 -27 500 -4 c 1
 412 -7 l 1
 412 76 l 1
 368 12 322 -15 256 -15 c 0
 196 -15 148 8 121 49 c 0
 106 72 102 95 102 146 c 2
 102 362 l 2
 102 405 96 412 59 412 c 2
 21 412 l 1
 21 455 l 1
 196 466 l 1
EndSplineSet
Ligature2: "CCMP" u uni0328
EndChar

StartChar: longs
Encoding: 383 383 319
Width: 333
Flags: MW
LayerCount: 2
Fore
SplineSet
201 123 m 1
 201 83 l 2
 201 43 212 36 277 36 c 2
 295 36 l 1
 295 0 l 1
 28 0 l 1
 28 36 l 1
 32 36 l 2
 96 36 107 43 107 83 c 2
 107 123 l 1
 107 423 l 1
 19 423 l 1
 19 466 l 1
 107 466 l 1
 107 497 l 2
 107 578 117 621 147 663 c 0
 183 713 233 737 302 737 c 0
 383 737 433 701 433 643 c 0
 433 607 410 582 377 582 c 0
 346 582 322 605 322 635 c 0
 322 646 325 657 331 667 c 0
 336 675 337 677 337 680 c 0
 337 691 324 697 303 697 c 0
 263 697 228 670 212 626 c 0
 204 606 201 573 201 523 c 2
 201 123 l 1
EndSplineSet
EndChar

StartChar: uni018F
Encoding: 399 399 320
Width: 666
Flags: MW
LayerCount: 2
Fore
SplineSet
47 321 m 1
 479 321 l 1
 479 333 l 2
 479 400 468 444 445 481 c 1
 411 540 361 569 293 569 c 0
 204 569 148 529 93 427 c 1
 47 452 l 1
 101 579 192 641 319 641 c 0
 499 641 620 515 620 328 c 0
 620 128 492 -20 321 -20 c 0
 160 -20 47 120 47 317 c 2
 47 321 l 1
477 264 m 1
 244 264 l 2
 201 264 189 253 189 215 c 0
 189 108 243 37 324 37 c 0
 388 37 431 76 459 156 c 0
 472 193 477 223 477 264 c 1
EndSplineSet
EndChar

StartChar: florin
Encoding: 402 402 321
Width: 556
Flags: MW
LayerCount: 2
Fore
SplineSet
332 437 m 1
 465 437 l 1
 465 390 l 1
 328 390 l 1
 309 163 l 2
 296 9 278 -69 243 -121 c 1
 208 -175 158 -205 105 -205 c 0
 47 -205 3 -170 3 -126 c 0
 3 -90 27 -63 60 -63 c 0
 89 -63 112 -84 112 -110 c 0
 112 -122 107 -135 100 -143 c 0
 96 -148 95 -149 95 -152 c 0
 95 -158 100 -162 109 -162 c 0
 136 -162 167 -134 181 -97 c 0
 199 -47 201 -32 218 181 c 2
 235 390 l 1
 119 390 l 1
 119 437 l 1
 239 437 l 1
 245 485 l 2
 253 555 270 612 295 651 c 0
 329 706 383 737 442 737 c 0
 501 737 541 704 541 655 c 0
 541 620 519 597 485 597 c 0
 455 597 432 616 432 640 c 0
 432 652 437 665 447 681 c 0
 449 684 450 686 450 688 c 0
 450 693 442 697 432 697 c 0
 415 697 396 686 381 666 c 0
 360 639 346 585 338 500 c 2
 332 437 l 1
EndSplineSet
EndChar

StartChar: uni0237
Encoding: 567 567 345
Width: 296
Flags: MW
LayerCount: 2
Fore
SplineSet
207 466 m 1
 207 71 l 2
 207 -42 197 -93 166 -137 c 0
 137 -177 86 -202 30 -202 c 4
 -37 -202 -82 -169 -82 -120 c 0
 -82 -86 -58 -60 -26 -60 c 0
 2 -60 26 -82 26 -107 c 0
 26 -114 24 -120 19 -131 c 0
 15 -141 14 -143 14 -147 c 0
 14 -154 25 -160 39 -160 c 0
 60 -160 84 -145 94 -125 c 0
 108 -96 113 -58 113 23 c 2
 113 362 l 2
 113 405 107 412 70 412 c 2
 12 412 l 1
 12 455 l 1
 207 466 l 1
EndSplineSet
EndChar

StartChar: uni0259
Encoding: 601 601 346
Width: 500
Flags: MW
LayerCount: 2
Fore
SplineSet
35 241 m 1
 359 241 l 1
 359 250 l 2
 359 300 351 333 334 361 c 0
 308 405 271 427 220 427 c 0
 153 427 111 397 70 320 c 1
 35 339 l 1
 76 434 144 481 239 481 c 0
 374 481 465 386 465 246 c 0
 465 96 369 -15 241 -15 c 0
 120 -15 35 90 35 238 c 2
 35 241 l 1
358 198 m 1
 183 198 l 2
 151 198 142 190 142 161 c 0
 142 81 182 28 243 28 c 0
 291 28 323 57 344 117 c 0
 354 145 358 167 358 198 c 1
EndSplineSet
EndChar

StartChar: circumflex
Encoding: 710 710 347
Width: 333
Flags: MW
LayerCount: 2
Fore
SplineSet
198 701 m 1
 323 535 l 1
 287 535 l 1
 167 636 l 1
 46 535 l 1
 10 535 l 1
 135 701 l 1
 198 701 l 1
EndSplineSet
EndChar

StartChar: caron
Encoding: 711 711 348
Width: 333
Flags: MW
LayerCount: 2
Fore
SplineSet
135 535 m 1
 10 701 l 1
 46 701 l 1
 166 600 l 1
 287 701 l 1
 323 701 l 1
 198 535 l 1
 135 535 l 1
EndSplineSet
EndChar

StartChar: breve
Encoding: 728 728 349
Width: 333
Flags: MW
LayerCount: 2
Fore
SplineSet
272 692 m 1
 308 692 l 1
 308 678 l 2
 308 597 247 535 166 535 c 0
 85 535 25 597 25 679 c 2
 25 692 l 1
 61 692 l 1
 66 632 104 597 167 597 c 0
 229 597 267 632 272 692 c 1
EndSplineSet
EndChar

StartChar: dotaccent
Encoding: 729 729 350
Width: 333
Flags: MW
LayerCount: 2
Fore
SplineSet
167 644 m 0
 194 644 217 621 217 594 c 0
 217 566 194 544 166 544 c 0
 140 544 117 567 117 594 c 0
 117 621 140 644 167 644 c 0
EndSplineSet
EndChar

StartChar: ring
Encoding: 730 730 351
Width: 333
Flags: MW
LayerCount: 2
Fore
SplineSet
166 729 m 0
 221 729 266 684 266 630 c 0
 266 574 221 530 165 530 c 0
 112 530 67 575 67 630 c 0
 67 684 112 729 166 729 c 0
167 693 m 0
 132 693 103 664 103 630 c 0
 103 595 132 566 166 566 c 0
 202 566 230 594 230 630 c 0
 230 664 201 693 167 693 c 0
EndSplineSet
EndChar

StartChar: ogonek
Encoding: 731 731 352
Width: 333
Flags: MW
LayerCount: 2
Fore
SplineSet
120 0 m 1
 208 0 l 2
 180 0 167 -2 156 -7 c 0
 134 -17 118 -42 118 -67 c 0
 118 -91 136 -111 158 -111 c 0
 180 -111 202 -100 230 -74 c 1
 246 -95 l 1
 205 -137 176 -152 138 -152 c 0
 98 -152 68 -123 68 -84 c 0
 68 -50 84 -24 120 0 c 1
EndSplineSet
EndChar

StartChar: tilde
Encoding: 732 732 353
Width: 333
Flags: MW
LayerCount: 2
Fore
SplineSet
297 659 m 1
 332 659 l 1
 325 596 281 553 224 553 c 0
 198 553 186 557 135 581 c 0
 116 590 97 595 83 595 c 0
 60 595 43 580 36 553 c 1
 1 553 l 1
 14 615 52 654 101 654 c 0
 124 654 132 652 187 627 c 0
 221 612 232 608 246 608 c 0
 269 608 291 630 297 659 c 1
EndSplineSet
EndChar

StartChar: hungarumlaut
Encoding: 733 733 354
Width: 333
Flags: MW
LayerCount: 2
Fore
SplineSet
45 544 m 1
 80 642 l 2
 95 684 110 701 133 701 c 0
 148 701 160 688 160 673 c 0
 160 660 155 648 142 633 c 2
 61 535 l 1
 45 544 l 1
173 544 m 1
 208 642 l 2
 223 684 238 701 261 701 c 0
 276 701 288 688 288 673 c 0
 288 660 283 649 270 633 c 2
 189 535 l 1
 173 544 l 1
EndSplineSet
EndChar

StartChar: uni0324
Encoding: 804 804 368
Width: 0
Flags: MW
LayerCount: 2
Fore
SplineSet
-219 -147 m 0
 -198 -147 -180 -165 -180 -186 c 0
 -180 -208 -198 -225 -220 -225 c 0
 -240 -225 -258 -207 -258 -186 c 0
 -258 -165 -240 -147 -219 -147 c 0
-60 -147 m 0
 -39 -147 -21 -165 -21 -186 c 0
 -21 -208 -39 -225 -61 -225 c 0
 -81 -225 -99 -207 -99 -186 c 0
 -99 -165 -81 -147 -60 -147 c 0
EndSplineSet
EndChar

StartChar: uni0325
Encoding: 805 805 369
Width: 0
Flags: MW
LayerCount: 2
Fore
SplineSet
-140 -83 m 1
 -141 -84 l 1
 -97 -84 -61 -120 -61 -163 c 0
 -61 -207 -97 -242 -141 -242 c 0
 -183 -242 -219 -206 -219 -162 c 0
 -219 -119 -183 -83 -140 -83 c 1
-141 -112 m 1
 -140 -111 l 1
 -168 -111 -191 -134 -191 -161 c 0
 -191 -189 -168 -212 -141 -212 c 0
 -113 -212 -91 -190 -91 -162 c 0
 -91 -135 -114 -112 -141 -112 c 1
EndSplineSet
EndChar

StartChar: uni0326
Encoding: 806 806 370
Width: 0
Flags: MW
AnchorPoint: "Bottom" -140 0 mark 0
LayerCount: 2
Fore
SplineSet
-189 -302 m 1
 -209 -277 l 1
 -150 -240 -118 -197 -118 -154 c 0
 -118 -149 -120 -146 -124 -146 c 2
 -127 -146 l 1
 -131 -147 -134 -147 -139 -147 c 0
 -179 -147 -203 -127 -203 -94 c 0
 -203 -63 -178 -40 -144 -40 c 0
 -101 -40 -70 -75 -70 -126 c 0
 -70 -163 -84 -203 -108 -235 c 0
 -121 -252 -136 -264 -174 -292 c 0
 -179 -296 -184 -299 -189 -302 c 1
EndSplineSet
EndChar

StartChar: uni032E
Encoding: 814 814 373
Width: 0
Flags: MW
LayerCount: 2
Fore
SplineSet
-55 -111 m 1
 -26 -111 l 1
 -26 -122 l 2
 -26 -186 -74 -235 -138 -235 c 0
 -202 -235 -250 -186 -250 -121 c 2
 -250 -111 l 1
 -222 -111 l 1
 -218 -159 -188 -187 -138 -187 c 0
 -89 -187 -59 -159 -55 -111 c 1
EndSplineSet
EndChar

StartChar: uni0330
Encoding: 816 816 374
Width: 0
Flags: MW
LayerCount: 2
Fore
SplineSet
-35 -133 m 1
 -8 -133 l 1
 -13 -183 -48 -217 -93 -217 c 0
 -113 -217 -122 -214 -162 -195 c 0
 -177 -188 -192 -184 -203 -184 c 0
 -221 -184 -234 -196 -239 -217 c 1
 -267 -217 l 1
 -257 -168 -227 -137 -188 -137 c 0
 -170 -137 -164 -138 -120 -158 c 0
 -93 -170 -85 -173 -74 -173 c 0
 -56 -173 -39 -156 -35 -133 c 1
EndSplineSet
EndChar

StartChar: uni0331
Encoding: 817 817 375
Width: 0
Flags: MW
LayerCount: 2
Fore
SplineSet
-250 -82 m 1
 -28 -82 l 1
 -28 -134 l 1
 -250 -134 l 1
 -250 -82 l 1
EndSplineSet
EndChar

StartChar: uni0394
Encoding: 916 916 380
Width: 669
VWidth: 1093
Flags: HMW
LayerCount: 2
Fore
SplineSet
6.56445 0 m 1
 357.738 752.672 l 1
 665.152 0 l 1
 6.56445 0 l 1
84.2383 55.7939 m 1
 524.026 55.7939 l 1
 317.26 556.846 l 1
 84.2383 55.7939 l 1
EndSplineSet
EndChar

StartChar: Theta
Encoding: 920 920 384
Width: 778
VWidth: 1093
Flags: HMW
LayerCount: 2
Fore
SplineSet
528.47 499.958 m 1
 528.47 248.338 l 1
 502.214 248.338 l 1
 497.838 316.166 480.334 331.482 409.224 331.482 c 2
 373.122 331.482 l 2
 300.918 331.482 283.414 316.166 277.944 248.338 c 1
 251.688 248.338 l 1
 251.688 499.958 l 1
 277.944 499.958 l 1
 282.32 435.412 302.012 417.908 369.84 417.908 c 2
 407.036 417.908 l 2
 478.146 417.908 496.744 433.224 502.214 499.958 c 1
 528.47 499.958 l 1
EndSplineSet
Refer: 391 927 N 1 0 0 1 0 0 2
EndChar

StartChar: Lambda
Encoding: 923 923 387
Width: 722
Flags: HMW
LayerCount: 2
Fore
SplineSet
378 736 m 1
 633 111 l 2
 656 55 667 47 717 47 c 2
 731 47 l 1
 731 0 l 1
 421 0 l 1
 421 47 l 1
 463 47 l 2
 500 47 525 57 525 73 c 0
 525 78 522.976 84.9961 517 100 c 2
 329 572 l 1
 198 234 l 1
 165 146 l 2
 159 130 156 116 156 104 c 0
 156 66 183 47 237 47 c 2
 257 47 l 1
 257 0 l 1
 -8 0 l 1
 -8 47 l 1
 -4 47 l 2
 23 47 51 59 67 78 c 1
 82 94 86 101 106 153 c 2
 336 736 l 1
 378 736 l 1
329 572 m 1025
EndSplineSet
EndChar

StartChar: Xi
Encoding: 926 926 390
Width: 705
VWidth: 1093
Flags: HMW
LayerCount: 2
Fore
SplineSet
612.64 736.262 m 1
 623.58 552.47 l 1
 595.136 552.47 l 1
 580.914 630.144 563.41 644.366 472.608 644.366 c 2
 226.458 644.366 l 2
 133.468 644.366 115.964 631.238 102.836 552.47 c 1
 74.3916 552.47 l 1
 85.332 736.262 l 1
 612.64 736.262 l 1
624.674 196.92 m 1
 655.306 196.92 l 1
 612.64 0 l 1
 85.332 0 l 1
 43.7598 196.92 l 1
 72.2041 196.92 l 1
 99.5537 107.212 124.716 91.8965 247.244 91.8965 c 2
 435.412 91.8965 l 2
 571.068 91.8965 597.324 107.212 624.674 196.92 c 1
487.924 499.958 m 1
 487.924 248.338 l 1
 461.668 248.338 l 1
 457.292 316.166 439.788 331.482 368.678 331.482 c 2
 332.576 331.482 l 2
 260.372 331.482 242.868 316.166 237.398 248.338 c 1
 211.142 248.338 l 1
 211.142 499.958 l 1
 237.398 499.958 l 1
 241.774 435.412 261.466 417.908 329.294 417.908 c 2
 366.49 417.908 l 2
 437.6 417.908 456.198 433.224 461.668 499.958 c 1
 487.924 499.958 l 1
EndSplineSet
EndChar

StartChar: Sigma
Encoding: 931 931 394
Width: 722
VWidth: 1093
Flags: HMW
LayerCount: 2
Fore
SplineSet
98.0645 47.3955 m 1
 359.926 403.686 l 1
 158.637 675.094 l 2
 364 675 l 2
 451.999 674.96 495 666 529 638 c 0
 562 612 586 556 601 466 c 1
 644 466 l 1
 630 722 l 1
 29 722 l 1
 29 675 l 1
 262.56 350.08 l 1
 31.9072 38 l 1
 28.4697 0 l 1
 643 0 l 1
 663 267 l 1
 619 267 l 1
 606 197 583 135 559 106 c 1
 528 66 471 46.8848 387 47 c 2
 98.0645 47.3955 l 1
EndSplineSet
EndChar

StartChar: Psi
Encoding: 936 936 399
Width: 869
VWidth: 1093
Flags: HMW
LayerCount: 2
Fore
SplineSet
378 340 m 1
 365 340 l 2
 318 340 288 346 267 356 c 1
 211 388 200 412 195 536 c 0
 187 688 143 740 15 750 c 1
 15 725 l 1
 60 715 73 690 73 609 c 1
 71 517 l 1
 71 440 104 378 164 340 c 0
 211 310 272 296 367 296 c 2
 378 296 l 1
 378 94 l 2
 378 52 369 47 288 47 c 2
 268 47 l 1
 268 0 l 1
 599 0 l 1
 599 47 l 1
 579 47 l 2
 499 47 490 52 490 94 c 2
 490 296 l 1
 503 296 l 2
 584 296 638 306 682 328 c 1
 756 363 797 431 797 517 c 1
 795 609 l 1
 795 690 808 715 853 725 c 1
 853 750 l 1
 725 740 682 688 674 536 c 0
 669 418 666 384 614 362 c 0
 578 347 560 340 503 340 c 2
 490 340 l 1
 490 665 l 2
 490 707 499 712 579 712 c 2
 599 712 l 1
 599 759 l 1
 268 759 l 1
 268 712 l 1
 288 712 l 2
 369 712 378 707 378 665 c 2
 378 340 l 1
EndSplineSet
EndChar

StartChar: uni03A9
Encoding: 937 937 400
Width: 840
VWidth: 1093
Flags: HMW
LayerCount: 2
Fore
SplineSet
356.644 0 m 1
 37.1963 0 l 1
 37.1963 167.382 l 1
 63.4521 167.382 l 1
 71.1104 119.246 95.1777 98.46 138.938 98.46 c 2
 298.662 98.46 l 1
 295.38 140.032 l 1
 255.996 154.254 233.022 165.194 207.86 181.604 c 0
 124.716 235.21 74.3916 323.824 74.3916 417.908 c 0
 74.3916 490.112 106.118 571.068 158.63 632.332 c 0
 225.364 708.912 317.26 750.484 421.19 750.484 c 0
 525.12 750.484 617.016 708.912 683.75 632.332 c 0
 736.262 571.068 767.988 490.112 767.988 417.908 c 0
 767.988 323.824 717.664 235.21 634.52 181.604 c 0
 608.264 165.194 585.29 154.254 547 140.032 c 1
 543.718 98.46 l 1
 703.442 98.46 l 2
 747.202 98.46 771.27 119.246 778.928 167.382 c 1
 805.184 167.382 l 1
 805.184 0 l 1
 485.736 0 l 1
 505.428 169.57 l 1
 590.76 217.706 645.46 315.072 645.46 417.908 c 0
 645.46 474.796 629.05 539.342 600.606 590.76 c 0
 561.222 661.87 495.582 702.348 421.19 702.348 c 0
 346.798 702.348 281.158 661.87 241.774 590.76 c 0
 213.33 539.342 196.92 474.796 196.92 417.908 c 0
 196.92 315.072 251.62 217.706 336.952 169.57 c 1
 356.644 0 l 1
EndSplineSet
EndChar

StartChar: alpha
Encoding: 945 945 401
Width: 676
VWidth: 1070
Flags: HMW
LayerCount: 2
Fore
SplineSet
639 99 m 2
 639 70 632 45 614 24 c 0
 594 2 570 -9 539 -9 c 0
 486 -9 453 21 442 82 c 1
 391 18 336 -13 277 -13 c 0
 207 -13 148 12 99 63 c 0
 51 112 28 170 29 238 c 0
 29 308 53 368 104 418 c 0
 155 468 214 494 286 494 c 0
 321 494 354 484 382 463 c 0
 410 443 432 420 445 390 c 1
 494 494 l 1
 524 494 l 1
 524 87 l 2
 524 74 529 61 535 50 c 0
 542 37 552 31 565 32 c 0
 592 32 606 61 606 119 c 1
 603 163 l 1
 639 163 l 1
 639 99 l 2
437 153 m 2
 437 308 l 2
 437 346 424 382 398 412 c 0
 370 446 337 462 299 462 c 0
 266 462 236 448 208 422 c 0
 183 399 165 371 154 337 c 0
 144 308 138 274 138 238 c 0
 138 186 149 140 172 97 c 0
 200 45 239 17 288 17 c 0
 323 17 357 31 389 59 c 0
 421 87 437 118 437 153 c 2
EndSplineSet
EndChar

StartChar: beta
Encoding: 946 946 402
Width: 529
VWidth: 1070
Flags: HMW
LayerCount: 2
Fore
SplineSet
503 221 m 0
 503 152 480 96 433 51 c 0
 388 7 338 -13 283 -13 c 0
 235 -13 187 7 139 50 c 1
 139 38 139 38 139 9 c 1
 139 -31 l 2
 139 -109 129 -170 114 -217 c 1
 27 -217 l 1
 40 -157 47 -104 47 -56 c 2
 47 525 l 2
 47 688 113 769 247 769 c 0
 305 769 353 754 388 724 c 0
 426 693 445 650 445 596 c 0
 445 532 405 477 328 432 c 1
 445 385 503 316 503 221 c 0
396 188 m 0
 396 226 387 266 370 310 c 0
 352 359 330 395 302 417 c 1
 282 407 265 401 246 400 c 0
 236 400 224 404 214 410 c 0
 200 417 193 426 193 436 c 0
 193 456 208 464 237 463 c 0
 256 463 276 457 302 446 c 1
 332 481 347 532 346 596 c 0
 347 692 313 739 242 739 c 0
 173 739 139 679 139 561 c 2
 139 125 l 2
 139 108 149 88 169 64 c 0
 195 33 227 17 264 17 c 0
 308 17 341 37 366 74 c 0
 386 104 396 142 396 188 c 0
EndSplineSet
EndChar

StartChar: gamma
Encoding: 947 947 403
Width: 505
VWidth: 1070
Flags: HMW
LayerCount: 2
Fore
SplineSet
482 442 m 0
 482 404 459 338 412 247 c 1
 377 183 341 119 305 55 c 1
 320 -25 328 -93 327 -149 c 0
 327 -200 310 -226 278 -226 c 0
 243 -226 227 -200 227 -146 c 0
 227 -85 241 -17 270 58 c 1
 253 130 235 196 211 257 c 0
 173 355 133 404 95 403 c 0
 67 403 52 377 49 323 c 1
 27 323 l 1
 27 330 l 2
 27 432 53 482 106 482 c 0
 154 482 198 427 235 317 c 0
 242 297 262 223 295 91 c 1
 348 201 378 290 387 363 c 0
 391 397 397 423 401 436 c 0
 410 468 424 483 444 482 c 0
 469 483 482 469 482 442 c 0
EndSplineSet
EndChar

StartChar: delta
Encoding: 948 948 404
Width: 514
VWidth: 1070
Flags: HMW
LayerCount: 2
Fore
SplineSet
489 241 m 0
 489 176 466 118 419 67 c 0
 369 13 311 -13 244 -13 c 0
 180 -13 126 10 88 57 c 1
 48 97 28 148 27 209 c 0
 27 270 49 323 95 367 c 0
 140 409 198 435 267 443 c 1
 255 456 230 478 195 507 c 0
 162 534 138 556 122 575 c 0
 100 603 90 634 91 668 c 0
 91 702 110 731 151 752 c 0
 183 769 219 775 257 774 c 0
 300 774 336 764 368 743 c 1
 414 721 439 690 439 652 c 0
 439 617 418 599 377 599 c 0
 359 599 345 605 333 615 c 0
 321 625 317 636 317 651 c 0
 317 684 338 701 379 702 c 1
 352 728 314 742 265 742 c 0
 238 742 215 737 194 728 c 0
 169 716 158 696 158 672 c 0
 158 639 182 601 232 560 c 0
 334 485 390 444 399 435 c 0
 459 377 489 311 489 241 c 0
397 211 m 0
 397 275 358 348 278 428 c 1
 227 420 188 395 161 358 c 0
 135 322 121 276 121 222 c 0
 121 169 132 125 152 89 c 0
 178 42 214 19 263 19 c 0
 309 19 344 41 369 84 c 0
 388 119 397 161 397 211 c 0
EndSplineSet
EndChar

StartChar: epsilon
Encoding: 949 949 405
Width: 478
VWidth: 1070
Flags: HMW
LayerCount: 2
Fore
SplineSet
447 128 m 0
 447 118 440 103 429 83 c 0
 390 19 331 -13 251 -13 c 0
 197 -13 150 -3 107 19 c 0
 57 45 32 80 32 126 c 0
 32 159 48 186 81 209 c 0
 108 229 142 243 182 250 c 1
 146 258 117 272 94 293 c 0
 69 316 55 344 55 377 c 0
 54 421 81 453 137 475 c 1
 171 493 214 502 264 502 c 0
 301 502 334 497 364 487 c 0
 407 472 429 446 430 413 c 0
 430 401 426 390 417 381 c 0
 408 372 398 368 387 368 c 0
 374 368 361 376 350 394 c 0
 332 424 322 441 319 445 c 0
 302 464 280 472 253 472 c 0
 182 472 147 438 147 369 c 0
 147 303 181 270 251 271 c 0
 258 271 270 273 284 277 c 0
 298 281 308 283 316 283 c 0
 346 283 361 272 361 250 c 0
 361 228 346 218 316 218 c 0
 308 218 297 219 282 224 c 0
 267 229 256 231 250 231 c 0
 171 231 132 198 132 131 c 0
 132 57 177 20 265 19 c 0
 337 19 388 54 418 125 c 0
 421 135 428 141 434 141 c 0
 443 141 447 136 447 128 c 0
EndSplineSet
EndChar

StartChar: zeta
Encoding: 950 950 406
Width: 456
VWidth: 1070
Flags: HMW
LayerCount: 2
Fore
SplineSet
456 -45 m 0
 455 -98 438 -143 408 -176 c 0
 376 -212 336 -229 285 -229 c 0
 235 -229 211 -212 211 -177 c 0
 211 -150 223 -136 249 -136 c 0
 259 -136 273 -138 292 -143 c 0
 311 -148 326 -150 336 -150 c 0
 357 -150 374 -143 389 -127 c 0
 402 -111 410 -93 411 -73 c 0
 411 -55 404 -40 388 -26 c 0
 372 -12 356 -5 336 -5 c 0
 325 -5 308 -6 286 -10 c 0
 264 -13 247 -13 237 -13 c 0
 98 -13 28 62 27 213 c 0
 27 348 81 471 190 580 c 1
 119 579 84 607 84 665 c 0
 84 711 117 742 182 761 c 1
 190 740 l 1
 154 723 135 700 135 670 c 0
 135 650 142 634 154 622 c 0
 166 610 181 605 199 605 c 0
 202 605 207 605 211 606 c 1
 232 631 262 657 301 685 c 0
 347 718 378 736 401 736 c 0
 418 736 427 728 427 713 c 0
 427 679 400 646 347 618 c 0
 309 598 270 585 229 578 c 1
 176 533 135 480 106 414 c 0
 79 352 66 288 66 220 c 0
 66 169 78 132 103 110 c 0
 128 88 168 77 224 77 c 0
 236 77 256 77 279 78 c 0
 302 80 321 82 333 82 c 0
 368 82 397 69 420 45 c 0
 443 21 456 -9 456 -45 c 0
EndSplineSet
EndChar

StartChar: eta
Encoding: 951 951 407
Width: 606
VWidth: 1070
Flags: HMW
LayerCount: 2
Fore
SplineSet
582 -224 m 1
 494 -224 l 1
 477 -177 470 -117 469 -43 c 2
 469 350 l 2
 469 432 440 472 386 472 c 0
 340 472 304 454 275 419 c 0
 248 386 235 347 235 300 c 2
 235 0 l 1
 143 0 l 1
 143 401 l 2
 143 414 139 426 133 437 c 0
 126 450 114 457 101 457 c 0
 74 457 62 426 62 367 c 0
 62 364 62 365 62 325 c 1
 27 325 l 1
 27 389 l 2
 27 419 35 442 53 463 c 0
 72 486 96 498 128 498 c 0
 160 498 184 483 203 455 c 1
 218 435 227 410 227 379 c 1
 264 461 321 502 400 502 c 0
 508 502 562 446 562 336 c 2
 562 313 l 1
 562 303 562 294 561 289 c 2
 561 -56 l 2
 562 -105 569 -161 582 -224 c 1
EndSplineSet
EndChar

StartChar: theta
Encoding: 952 952 408
Width: 544
VWidth: 1070
Flags: HMW
LayerCount: 2
Fore
SplineSet
518 378 m 0
 518 289 500 207 466 132 c 0
 420 35 356 -13 272 -13 c 0
 189 -13 127 35 81 132 c 0
 47 207 28 289 27 378 c 0
 27 470 44 554 78 630 c 0
 124 730 188 779 272 778 c 0
 357 778 421 728 466 630 c 0
 500 553 518 469 518 378 c 0
418 401 m 1
 418 474 409 542 391 605 c 0
 365 699 325 745 272 745 c 256
 219 745 179 699 153 605 c 0
 135 541 127 473 127 401 c 1
 418 401 l 1
418 369 m 1
 127 369 l 1
 127 296 135 227 153 162 c 0
 179 66 219 19 272 19 c 256
 325 19 365 66 391 162 c 0
 409 227 418 296 418 369 c 1
EndSplineSet
EndChar

StartChar: iota
Encoding: 953 953 409
Width: 409
VWidth: 1070
Flags: HMW
LayerCount: 2
Fore
SplineSet
383 139 m 2
 383 97 375 63 357 36 c 0
 335 3 305 -13 266 -13 c 0
 216 -13 178 2 152 34 c 1
 122 60 109 96 110 141 c 2
 110 383 l 2
 110 412 103 431 88 437 c 1
 81 441 60 444 27 444 c 1
 27 482 l 1
 199 495 l 1
 199 140 l 2
 199 60 225 20 276 19 c 0
 311 19 334 43 344 91 c 0
 348 113 351 151 351 203 c 1
 383 203 l 1
 383 139 l 2
EndSplineSet
EndChar

StartChar: kappa
Encoding: 954 954 410
Width: 618
VWidth: 1070
Flags: HMW
LayerCount: 2
Fore
SplineSet
593 0 m 1
 455 0 l 1
 264 256 l 1
 200 202 l 1
 200 0 l 1
 116 0 l 1
 116 380 l 2
 116 411 108 431 92 437 c 0
 84 441 62 444 27 444 c 1
 27 482 l 1
 205 495 l 1
 205 245 l 1
 403 413 l 2
 456 459 497 482 524 482 c 0
 558 482 576 463 577 427 c 0
 577 413 572 400 561 389 c 0
 550 378 539 372 524 372 c 0
 514 372 505 378 495 387 c 0
 485 396 476 401 467 401 c 0
 451 401 405 370 328 310 c 1
 331 302 336 294 342 289 c 2
 485 97 l 2
 502 74 517 59 531 52 c 0
 545 45 565 41 593 41 c 1
 593 0 l 1
EndSplineSet
EndChar

StartChar: lambda
Encoding: 955 955 411
Width: 555
VWidth: 1070
Flags: HMW
LayerCount: 2
Fore
SplineSet
530 143 m 2
 530 39 503 -13 449 -13 c 0
 394 -13 350 46 319 164 c 2
 266 350 l 1
 120 0 l 1
 27 0 l 1
 229 482 l 1
 217 522 218 523 195 602 c 1
 176 665 146 697 102 697 c 0
 76 696 60 668 56 614 c 1
 32 614 l 1
 32 623 l 2
 32 726 60 778 116 779 c 256
 172 779 215 720 246 602 c 2
 370 164 l 2
 388 101 418 69 463 69 c 0
 490 69 505 96 508 151 c 1
 530 151 l 1
 530 143 l 2
EndSplineSet
EndChar

StartChar: uni03BC
Encoding: 956 956 412
Width: 618
VWidth: 1070
Flags: HMW
LayerCount: 2
Fore
SplineSet
579 100 m 2
 579 70 572 45 554 24 c 0
 534 2 508 -9 477 -9 c 0
 445 -9 422 4 404 30 c 0
 390 52 382 78 381 109 c 1
 346 27 289 -13 214 -13 c 0
 185 -13 161 -8 139 1 c 1
 139 -32 l 2
 139 -109 129 -171 114 -217 c 1
 27 -217 l 1
 40 -157 47 -104 47 -56 c 2
 47 482 l 1
 139 482 l 1
 139 138 l 2
 139 56 165 15 220 15 c 0
 265 15 302 33 332 69 c 0
 359 102 372 142 372 189 c 2
 372 482 l 1
 464 482 l 1
 464 87 l 2
 464 74 468 61 474 50 c 0
 481 37 492 31 505 32 c 0
 532 32 546 62 546 120 c 1
 546 164 l 1
 579 164 l 1
 579 100 l 2
EndSplineSet
EndChar

StartChar: nu
Encoding: 957 957 413
Width: 565
VWidth: 1070
Flags: HMW
LayerCount: 2
Fore
SplineSet
539 453 m 0
 539 421 522 378 486 324 c 2
 308 8 l 2
 299 -7 289 -13 281 -13 c 0
 269 -13 260 -7 255 8 c 2
 132 340 l 2
 115 386 100 413 87 420 c 0
 78 424 58 427 27 427 c 1
 27 455 l 1
 56 455 89 470 128 499 c 1
 153 499 l 1
 175 463 194 424 211 383 c 2
 317 100 l 1
 416 275 l 2
 431 301 438 322 438 340 c 0
 438 352 434 370 429 394 c 0
 424 418 421 435 421 447 c 0
 421 481 443 500 485 500 c 0
 499 500 513 495 523 485 c 0
 533 475 539 465 539 453 c 0
EndSplineSet
EndChar

StartChar: xi
Encoding: 958 958 414
Width: 507
VWidth: 1070
Flags: HMW
LayerCount: 2
Fore
SplineSet
502 -41 m 0
 502 -91 487 -134 456 -171 c 0
 424 -210 382 -231 334 -231 c 0
 316 -231 302 -226 287 -218 c 0
 267 -208 257 -195 257 -178 c 0
 257 -168 262 -159 269 -151 c 0
 276 -143 285 -139 294 -139 c 0
 303 -139 317 -141 335 -146 c 0
 353 -151 367 -153 376 -153 c 0
 402 -153 422 -146 437 -131 c 0
 452 -116 460 -97 460 -72 c 0
 460 -54 452 -39 439 -26 c 0
 426 -13 410 -6 391 -6 c 0
 378 -6 356 -8 329 -10 c 0
 302 -12 282 -13 270 -13 c 0
 202 -13 145 2 101 31 c 0
 51 64 27 112 27 175 c 0
 27 264 75 339 172 398 c 1
 127 427 105 460 105 496 c 0
 105 528 124 562 162 597 c 1
 98 610 66 641 66 685 c 0
 66 730 102 754 172 758 c 1
 172 738 l 1
 131 733 111 716 111 686 c 0
 111 649 136 629 186 625 c 1
 257 696 312 732 356 732 c 0
 372 732 379 723 379 705 c 0
 379 672 357 646 310 626 c 0
 275 610 237 603 201 602 c 1
 164 567 144 532 144 501 c 0
 144 467 164 437 207 415 c 1
 228 429 257 441 291 451 c 0
 325 461 356 467 382 467 c 0
 393 467 403 465 412 460 c 0
 424 454 430 445 429 436 c 0
 429 416 411 402 378 392 c 0
 354 386 330 382 304 381 c 0
 276 381 244 385 209 392 c 1
 116 332 69 267 69 199 c 0
 69 158 85 126 118 104 c 0
 147 85 185 75 231 74 c 0
 248 74 271 75 302 78 c 0
 333 80 356 83 373 83 c 0
 411 83 441 72 465 50 c 0
 489 28 502 -3 502 -41 c 0
EndSplineSet
EndChar

StartChar: omicron
Encoding: 959 959 415
Width: 500
VWidth: 1070
Flags: HMW
LayerCount: 2
Fore
SplineSet
528 255 m 0
 528 183 506 120 461 68 c 0
 413 13 352 -13 276 -13 c 0
 206 -13 147 13 101 68 c 1
 51 116 27 173 27 241 c 0
 27 310 50 370 97 422 c 0
 146 475 207 502 278 502 c 0
 352 502 412 477 460 428 c 0
 506 381 528 325 528 255 c 0
425 212 m 0
 425 275 414 333 392 381 c 0
 363 442 319 472 261 472 c 0
 214 472 180 452 156 410 c 0
 138 377 130 335 130 285 c 0
 130 222 141 165 165 116 c 0
 195 53 238 20 296 19 c 0
 382 19 425 83 425 212 c 0
EndSplineSet
EndChar

StartChar: pi
Encoding: 960 960 416
Width: 632
VWidth: 1070
Flags: HMW
LayerCount: 2
Fore
SplineSet
609 423 m 1
 454 423 l 1
 454 340 l 2
 454 215 478 118 523 50 c 0
 532 37 536 28 536 23 c 0
 536 0 519 -12 484 -12 c 0
 451 -12 427 22 413 90 c 0
 403 134 396 180 396 230 c 2
 396 423 l 1
 277 423 l 1
 235 61 l 2
 229 13 209 -12 177 -12 c 0
 146 -12 131 -1 131 21 c 0
 131 24 133 32 138 43 c 0
 180 149 214 276 241 423 c 1
 132 423 l 2
 110 423 88 416 65 402 c 0
 42 388 31 381 35 381 c 1
 30 381 27 384 27 390 c 0
 27 403 37 422 57 444 c 1
 82 471 115 483 153 482 c 2
 609 482 l 1
 609 423 l 1
EndSplineSet
EndChar

StartChar: rho
Encoding: 961 961 417
Width: 546
VWidth: 1070
Flags: HMW
LayerCount: 2
Fore
SplineSet
522 255 m 0
 522 183 499 120 453 68 c 0
 405 13 345 -13 271 -13 c 0
 218 -13 175 8 139 51 c 1
 139 39 139 39 139 6 c 1
 139 -36 l 2
 139 -112 130 -171 116 -217 c 1
 27 -217 l 1
 40 -157 47 -104 47 -56 c 2
 47 253 l 2
 47 326 65 383 101 428 c 0
 140 477 197 502 273 502 c 0
 346 502 405 477 453 428 c 0
 499 381 522 325 522 255 c 0
419 212 m 0
 419 275 408 333 386 381 c 0
 357 442 313 472 255 472 c 0
 218 472 188 457 167 427 c 0
 148 400 139 366 139 328 c 2
 139 150 l 2
 139 113 154 82 185 57 c 0
 215 33 250 20 288 19 c 0
 375 19 419 83 419 212 c 0
EndSplineSet
EndChar

StartChar: sigma1
Encoding: 962 962 418
Width: 499
VWidth: 1070
Flags: HMW
LayerCount: 2
Fore
SplineSet
476 402 m 0
 476 390 470 379 460 372 c 0
 450 365 438 360 424 360 c 0
 403 359 388 367 378 387 c 0
 361 420 353 438 352 440 c 0
 337 460 315 469 286 469 c 0
 265 469 245 463 224 452 c 0
 167 420 138 352 138 249 c 0
 138 213 149 176 170 140 c 0
 193 98 222 77 258 77 c 0
 265 77 276 77 291 78 c 0
 306 79 316 81 323 81 c 0
 360 81 391 69 414 47 c 0
 437 25 448 -7 448 -46 c 0
 448 -95 432 -137 400 -173 c 0
 367 -210 326 -228 277 -227 c 0
 227 -227 202 -212 201 -180 c 0
 201 -172 205 -163 213 -155 c 0
 221 -147 228 -142 236 -142 c 0
 246 -142 261 -145 279 -151 c 0
 297 -157 311 -161 321 -161 c 0
 345 -161 364 -152 380 -135 c 0
 396 -118 404 -98 404 -76 c 0
 404 -29 383 -6 340 -6 c 0
 333 -6 323 -7 311 -9 c 0
 299 -11 288 -13 283 -13 c 0
 216 -13 159 16 111 75 c 1
 56 123 29 180 29 248 c 0
 29 316 52 374 100 424 c 0
 150 476 213 502 287 502 c 0
 324 502 363 493 403 476 c 0
 452 456 476 432 476 402 c 0
EndSplineSet
EndChar

StartChar: sigma
Encoding: 963 963 419
Width: 599
VWidth: 1070
Flags: HMW
LayerCount: 2
Fore
SplineSet
575 423 m 1
 412 423 l 1
 476 377 509 316 509 240 c 0
 509 172 487 113 442 65 c 0
 395 12 337 -13 263 -13 c 0
 194 -13 136 12 90 62 c 0
 46 109 26 166 27 231 c 0
 27 297 48 356 91 405 c 0
 138 457 196 483 265 482 c 2
 575 482 l 1
 575 423 l 1
410 203 m 0
 410 307 385 380 332 423 c 1
 252 423 l 2
 208 423 177 407 154 377 c 0
 134 351 125 316 126 271 c 0
 126 211 136 158 159 111 c 0
 188 51 229 19 284 19 c 0
 368 19 410 80 410 203 c 0
EndSplineSet
EndChar

StartChar: tau
Encoding: 964 964 420
Width: 506
VWidth: 1070
Flags: HMW
LayerCount: 2
Fore
SplineSet
484 133 m 2
 484 96 475 63 457 35 c 0
 435 3 405 -13 367 -13 c 0
 319 -13 283 0 258 25 c 0
 233 50 220 86 220 131 c 2
 220 423 l 1
 124 423 l 2
 104 423 83 416 62 402 c 0
 41 388 31 381 35 381 c 1
 30 381 27 385 27 390 c 0
 27 403 37 422 57 444 c 1
 82 471 113 483 150 482 c 2
 482 482 l 1
 482 423 l 1
 307 423 l 1
 307 131 l 2
 307 55 331 18 379 19 c 0
 413 19 435 42 445 88 c 0
 449 110 452 145 451 195 c 1
 484 195 l 1
 484 133 l 2
EndSplineSet
EndChar

StartChar: upsilon
Encoding: 965 965 421
Width: 604
VWidth: 1070
Flags: HMW
LayerCount: 2
Fore
SplineSet
579 259 m 0
 579 185 560 123 522 72 c 0
 478 15 421 -13 347 -13 c 0
 282 -13 232 6 198 45 c 1
 161 79 142 127 142 188 c 2
 142 402 l 2
 142 415 138 428 132 438 c 0
 125 451 113 458 100 458 c 0
 72 458 59 428 59 369 c 0
 59 367 60 353 61 327 c 1
 27 327 l 1
 27 390 l 2
 27 419 35 443 53 464 c 0
 72 487 96 499 128 499 c 0
 162 499 189 487 208 464 c 0
 226 444 234 417 234 385 c 2
 234 200 l 2
 234 78 272 17 350 17 c 0
 406 17 449 48 477 107 c 0
 499 153 510 206 510 266 c 0
 510 379 469 451 389 479 c 1
 391 499 l 1
 450 493 498 464 533 415 c 0
 564 370 579 318 579 259 c 0
EndSplineSet
EndChar

StartChar: phi
Encoding: 966 966 422
Width: 669
VWidth: 1070
Flags: HMW
LayerCount: 2
Fore
SplineSet
645 252 m 0
 646 187 622 128 572 78 c 0
 518 24 449 -6 363 -12 c 1
 363 -216 l 1
 310 -216 l 1
 310 -12 l 1
 226 -9 157 20 102 72 c 0
 52 120 27 177 27 241 c 0
 27 305 52 363 102 413 c 0
 156 467 224 497 310 502 c 1
 310 708 l 5
 363 708 l 5
 363 502 l 1
 446 498 514 470 568 420 c 0
 619 373 645 316 645 252 c 0
541 220 m 0
 545 277 532 328 505 374 c 0
 473 431 425 464 363 471 c 1
 363 21 l 1
 423 24 469 46 500 89 c 0
 525 123 539 167 541 220 c 0
310 21 m 1
 310 472 l 1
 248 468 200 442 168 395 c 0
 145 362 133 324 131 279 c 0
 128 223 141 170 168 122 c 0
 201 63 249 29 310 21 c 1
EndSplineSet
EndChar

StartChar: chi
Encoding: 967 967 423
Width: 509
VWidth: 1070
Flags: HMW
LayerCount: 2
Fore
SplineSet
483 -72 m 2
 483 -176 456 -227 403 -227 c 0
 346 -227 305 -168 279 -50 c 2
 255 62 l 1
 118 -213 l 1
 27 -213 l 1
 228 191 l 1
 222 221 212 267 198 329 c 0
 193 354 184 376 169 394 c 0
 151 415 132 425 109 425 c 0
 83 425 67 398 63 343 c 1
 41 343 l 1
 41 352 l 2
 41 456 68 507 121 507 c 0
 178 507 218 447 244 329 c 2
 260 256 l 1
 383 503 l 1
 474 503 l 1
 287 127 l 1
 299 68 300 68 326 -50 c 0
 331 -75 340 -97 355 -115 c 0
 373 -136 392 -146 415 -146 c 0
 441 -146 457 -119 461 -65 c 1
 483 -65 l 1
 483 -72 l 2
EndSplineSet
EndChar

StartChar: psi
Encoding: 968 968 424
Width: 690
VWidth: 1070
Flags: HMW
LayerCount: 2
Fore
SplineSet
666 345 m 0
 666 260 648 183 612 114 c 0
 567 30 505 -12 424 -12 c 1
 424 -216 l 1
 373 -216 l 1
 373 -12 l 1
 220 -12 142 55 142 188 c 2
 142 405 l 2
 142 418 138 430 132 441 c 0
 125 454 113 461 100 461 c 0
 72 461 59 431 59 373 c 0
 59 371 60 357 61 331 c 1
 27 331 l 1
 27 394 l 2
 27 423 35 446 53 467 c 0
 72 490 96 502 128 502 c 0
 162 502 189 491 208 467 c 0
 226 447 234 420 234 388 c 2
 234 205 l 2
 234 141 240 95 255 70 c 0
 274 36 314 19 373 19 c 1
 373 482 l 1
 424 482 l 1
 424 19 l 1
 476 19 520 45 554 96 c 0
 584 142 599 193 599 247 c 0
 599 272 590 305 572 350 c 0
 554 395 545 430 545 455 c 0
 545 488 559 505 587 505 c 0
 623 505 648 485 658 443 c 0
 663 423 666 390 666 345 c 0
EndSplineSet
EndChar

StartChar: omega
Encoding: 969 969 425
Width: 745
VWidth: 1070
Flags: HMW
LayerCount: 2
Fore
SplineSet
719 224 m 0
 719 164 704 111 674 66 c 0
 639 12 590 -13 529 -13 c 0
 460 -13 408 25 374 104 c 1
 339 25 287 -13 217 -13 c 0
 156 -13 107 12 72 66 c 0
 42 111 27 164 27 224 c 0
 27 310 48 377 94 425 c 0
 142 475 211 501 300 502 c 1
 300 472 l 1
 187 469 130 389 130 231 c 0
 130 90 165 19 238 19 c 0
 286 19 326 61 358 144 c 1
 330 192 317 241 317 293 c 0
 318 368 337 405 374 405 c 256
 411 405 431 368 431 293 c 0
 431 241 416 192 388 144 c 1
 420 62 461 20 509 19 c 0
 582 19 618 90 618 231 c 0
 618 389 560 469 447 472 c 1
 447 502 l 1
 536 501 604 475 652 425 c 0
 698 376 719 309 719 224 c 0
EndSplineSet
EndChar

StartChar: theta1
Encoding: 977 977 426
Width: 671
VWidth: 1070
Flags: HMW
LayerCount: 2
Fore
SplineSet
647 371 m 0
 647 365 643 361 638 360 c 0
 625 360 607 364 585 371 c 1
 585 285 569 205 536 132 c 0
 494 36 433 -11 356 -12 c 0
 262 -12 200 18 170 77 c 0
 151 114 142 181 142 278 c 0
 142 291 138 304 132 315 c 0
 125 328 113 335 100 335 c 0
 72 335 59 305 59 246 c 1
 27 246 l 1
 27 264 l 2
 27 294 35 319 53 340 c 0
 73 362 98 373 129 373 c 0
 163 373 189 362 208 340 c 0
 225 320 232 293 232 261 c 2
 232 238 l 2
 232 88 273 14 356 15 c 0
 409 15 445 60 466 149 c 0
 480 204 486 269 485 346 c 1
 485 387 l 1
 419 406 365 434 323 470 c 0
 270 514 244 565 244 623 c 0
 244 665 254 701 275 732 c 0
 299 770 331 789 370 788 c 0
 446 788 502 738 540 638 c 0
 568 566 583 486 585 398 c 1
 627 392 647 382 647 371 c 0
485 418 m 1
 485 489 479 553 467 610 c 0
 448 705 419 751 377 751 c 0
 348 751 324 735 307 702 c 0
 294 675 287 645 286 613 c 0
 287 524 353 459 485 418 c 1
EndSplineSet
EndChar

StartChar: phi1
Encoding: 981 981 427
Width: 669
VWidth: 1070
Flags: HMW
LayerCount: 2
Fore
SplineSet
645 252 m 0
 646 187 622 128 572 78 c 0
 518 23 449 -7 363 -12 c 1
 363 -216 l 1
 310 -216 l 1
 310 -12 l 1
 226 -9 157 20 102 72 c 0
 52 120 27 177 27 241 c 0
 27 297 48 348 87 395 c 0
 129 444 185 475 253 491 c 1
 252 461 l 1
 209 445 178 419 158 378 c 0
 142 348 133 315 131 279 c 0
 128 223 141 171 168 122 c 1
 201 63 249 29 310 21 c 1
 310 328 l 2
 310 380 314 415 321 434 c 0
 335 469 365 487 413 487 c 0
 471 487 525 462 573 414 c 0
 621 366 645 311 645 252 c 0
541 219 m 0
 544 273 534 322 511 366 c 0
 485 417 450 443 405 443 c 0
 377 443 363 410 363 345 c 2
 363 21 l 1
 423 24 469 46 500 89 c 0
 525 123 539 167 541 219 c 0
EndSplineSet
EndChar

StartChar: omega1
Encoding: 982 982 428
Width: 920
VWidth: 1070
Flags: HMW
LayerCount: 2
Fore
SplineSet
896 423 m 1
 753 423 l 1
 818 385 850 320 850 227 c 0
 850 168 835 115 805 69 c 0
 769 14 720 -13 660 -13 c 0
 591 -13 539 25 505 103 c 1
 470 25 418 -13 348 -13 c 0
 287 -13 238 14 203 69 c 0
 173 115 158 168 158 227 c 0
 158 320 191 385 258 423 c 1
 132 423 l 2
 110 423 87 416 64 402 c 0
 41 388 31 381 35 381 c 1
 30 381 27 385 27 390 c 0
 27 403 37 422 57 444 c 1
 82 471 114 483 152 482 c 2
 896 482 l 1
 896 423 l 1
749 239 m 0
 749 333 725 394 678 423 c 1
 332 423 l 1
 285 394 262 333 261 239 c 0
 261 92 296 19 369 19 c 0
 417 19 457 61 489 143 c 1
 462 191 449 233 449 274 c 0
 449 342 468 375 505 375 c 256
 542 375 562 342 562 274 c 0
 562 232 547 190 519 143 c 1
 551 62 591 20 640 19 c 0
 713 19 749 92 749 239 c 0
EndSplineSet
EndChar

StartChar: afii10051
Encoding: 1026 1026 431
Width: 843
Flags: MW
LayerCount: 2
Fore
SplineSet
390 639 m 2
 390 401 l 1
 503 401 l 2
 593 401 640 394 680 375 c 0
 751 341 791 277 791 198 c 0
 791 122 756 64 690 31 c 0
 651 11 589 0 520 0 c 2
 162 0 l 1
 162 47 l 1
 188 47 l 2
 269 47 278 52 278 94 c 2
 278 639 l 2
 278 664 264 675 231 675 c 0
 163 675 115 637 89 564 c 0
 78 532 69 494 62 444 c 1
 19 444 l 1
 34 722 l 1
 633 722 l 1
 648 444 l 1
 605 444 l 1
 597 501 587 544 572 581 c 0
 547 641 498 675 437 675 c 0
 404 675 390 664 390 639 c 2
390 354 m 1
 390 98 l 2
 390 52 396 47 451 47 c 2
 515 47 l 2
 619 47 668 96 668 202 c 0
 668 305 617 354 511 354 c 2
 390 354 l 1
EndSplineSet
EndChar

StartChar: afii10053
Encoding: 1028 1028 433
Width: 722
Flags: MW
LayerCount: 2
Fore
SplineSet
383 -15 m 0
 186 -15 45 139 45 354 c 0
 45 457 75 541 139 617 c 0
 207 698 287 737 384 737 c 0
 451 737 478 733 549 681 c 1
 589 740 l 1
 627 740 l 1
 642 451 l 1
 598 451 l 1
 575 528 560 567 541 600 c 0
 503 664 453 690 383 690 c 0
 319 690 257 655 226 599 c 0
 197 548 181 485 177 397 c 1
 464 397 l 1
 464 350 l 1
 177 350 l 1
 177 135 247 32 395 32 c 0
 476 32 540 67 581 136 c 0
 599 166 611 202 621 255 c 1
 668 247 l 1
 645 79 543 -15 383 -15 c 0
EndSplineSet
EndChar

StartChar: afii10058
Encoding: 1033 1033 438
Width: 1165
Flags: MW
LayerCount: 2
Fore
SplineSet
712 615 m 2
 712 401 l 1
 825 401 l 2
 915 401 962 394 1002 375 c 0
 1073 341 1113 277 1113 198 c 0
 1113 122 1078 64 1012 31 c 0
 973 11 911 0 842 0 c 2
 492 0 l 1
 492 47 l 1
 510 47 l 2
 591 47 600 52 600 94 c 2
 600 600 l 1
 600 603 l 2
 600 632 572 667 524 669 c 1
 457 668 l 1
 455 668 l 2
 388 668 375 620 374 492 c 0
 373 300 376 0 150 -15 c 1
 89 -15 83 -8 50 21 c 1
 14 51 5 81 5 129 c 0
 5 200 40 228 98 228 c 0
 142 228 155 215 164 174 c 0
 167 162 168 153 168 146 c 0
 168 129 161 120 148 99 c 1
 123 95 110 94 110 82 c 0
 110 77 113 69 119 57 c 1
 125 49 127 45 127 42 c 0
 127 40 126 39 126 39 c 2
 125 39 128 42 148 42 c 0
 206 42 231 72 250 119 c 0
 293 224 300 312 300 411 c 0
 300 460 298 512 298 570 c 1
 295 612 289 675 208 675 c 2
 190 675 l 1
 190 722 l 1
 820 722 l 1
 820 675 l 1
 802 675 l 2
 721 675 712 657 712 615 c 2
712 354 m 1
 712 98 l 2
 712 52 718 47 773 47 c 2
 837 47 l 2
 941 47 990 96 990 202 c 0
 990 305 939 354 833 354 c 2
 712 354 l 1
EndSplineSet
EndChar

StartChar: afii10059
Encoding: 1034 1034 439
Width: 1149
Flags: MW
LayerCount: 2
Fore
SplineSet
696 628 m 2
 696 401 l 1
 809 401 l 2
 899 401 946 394 986 375 c 0
 1057 341 1097 277 1097 198 c 0
 1097 122 1062 64 996 31 c 0
 957 11 895 0 826 0 c 2
 476 0 l 1
 476 47 l 1
 494 47 l 2
 575 47 584 52 584 94 c 2
 584 347 l 1
 249 347 l 1
 249 94 l 2
 249 52 258 47 339 47 c 2
 358 47 l 1
 358 0 l 1
 29 0 l 1
 29 47 l 1
 47 47 l 2
 128 47 137 52 137 94 c 2
 137 628 l 2
 137 670 128 675 47 675 c 2
 29 675 l 1
 29 722 l 1
 358 722 l 1
 358 675 l 1
 339 675 l 2
 258 675 249 670 249 628 c 2
 249 401 l 1
 584 401 l 1
 584 628 l 2
 584 670 575 675 494 675 c 2
 480 675 l 1
 480 722 l 1
 804 722 l 1
 804 675 l 1
 786 675 l 2
 705 675 696 670 696 628 c 2
696 354 m 1
 696 98 l 2
 696 52 702 47 757 47 c 2
 821 47 l 2
 925 47 974 96 974 202 c 0
 974 305 923 354 817 354 c 2
 696 354 l 1
EndSplineSet
EndChar

StartChar: afii10061
Encoding: 1036 1036 441
Width: 755
Flags: HMW
LayerCount: 2
Fore
SplineSet
474 578 m 1
 474 581 l 2
 474 691 522 736 600 736 c 0
 666 736 692 718 712 656 c 0
 715 648 716 640 716 633 c 0
 716 605 699 579 670 570 c 0
 664 568 657 567 651 567 c 0
 619 567 588 588 588 620 c 0
 588 661 615 659 615 669 c 0
 615 670 614 671 614 672 c 0
 611 679 599 684 592 684 c 0
 577 684 533 638 532 575 c 0
 531 453 508 388 444 364 c 1
 545 351 598 264 599 147 c 0
 600 62 625 61 647 61 c 2
 649 61 l 2
 676 61 688 91 692 160 c 1
 734 160 l 1
 731 40 692 -15 610 -15 c 0
 531 -15 494 31 482 144 c 1
 481 288 420 333 250 334 c 1
 250 123 l 1
 250 94 l 2
 250 52 259 47 340 47 c 2
 359 47 l 1
 359 0 l 1
 30 0 l 1
 30 47 l 1
 48 47 l 2
 129 47 138 52 138 94 c 2
 138 123 l 1
 138 599 l 1
 138 628 l 2
 138 670 129 675 48 675 c 2
 30 675 l 1
 30 722 l 1
 359 722 l 1
 359 675 l 1
 340 675 l 2
 259 675 250 670 250 628 c 2
 250 599 l 1
 250 389 l 1
 255 389 l 2
 411 389 472 436 474 578 c 1
EndSplineSet
Refer: 356 769 S 1 0 0 1 85 237 2
EndChar

StartChar: afii10062
Encoding: 1038 1038 443
Width: 720
Flags: MW
LayerCount: 2
Fore
SplineSet
183 47 m 1
 236 48 246 70 284 127 c 1
 340 238 l 1
 95 637 l 2
 74 671 60 675 11 675 c 2
 -6 675 l 1
 -6 722 l 1
 303 722 l 1
 303 675 l 1
 265 675 l 2
 227 675 217 672 217 662 c 0
 217 657 222 648 228 637 c 2
 397 344 l 1
 523 602 l 2
 532 619 537 625 537 636 c 0
 537 663 516 675 468 675 c 2
 454 675 l 1
 454 722 l 1
 729 722 l 1
 729 675 l 1
 713 675 l 2
 660 675 632 656 576 581 c 1
 334 95 l 1
 306 46 290 0 183 0 c 0
 122 0 116 7 83 36 c 1
 48 65 45 70 45 120 c 0
 45 175 70 198 127 198 c 0
 171 198 202 192 204 150 c 0
 205 140 205 133 205 128 c 0
 205 113 202 109 188 87 c 1
 165 75 157 66 157 59 c 0
 157 51 169 48 183 47 c 1
EndSplineSet
Refer: 360 774 S 1 0 0 1 207 205 2
EndChar

StartChar: afii10145
Encoding: 1039 1039 444
Width: 833
Flags: MW
LayerCount: 2
Fore
SplineSet
249 54 m 1
 584 54 l 1
 584 599 l 1
 584 628 l 2
 584 670 575 675 494 675 c 2
 475 675 l 1
 475 722 l 1
 804 722 l 1
 804 675 l 1
 786 675 l 2
 705 675 696 670 696 628 c 2
 696 599 l 1
 696 123 l 1
 696 94 l 2
 696 52 705 47 786 47 c 2
 804 47 l 1
 804 0 l 1
 29 0 l 1
 29 47 l 1
 47 47 l 2
 128 47 137 52 137 94 c 2
 137 123 l 1
 137 599 l 1
 137 628 l 2
 137 670 128 675 47 675 c 2
 29 675 l 1
 29 722 l 1
 357 722 l 1
 357 675 l 1
 339 675 l 2
 258 675 249 670 249 628 c 2
 249 599 l 1
 249 54 l 1
EndSplineSet
EndChar

StartChar: afii10018
Encoding: 1041 1041 446
Width: 722
Flags: MW
LayerCount: 2
Fore
SplineSet
670 201 m 0
 670 79 566 0 393 0 c 2
 30 0 l 1
 30 47 l 1
 48 47 l 2
 129 47 138 52 138 94 c 2
 138 123 l 1
 138 599 l 1
 138 628 l 2
 138 670 129 675 48 675 c 2
 30 675 l 1
 30 722 l 1
 624 722 l 1
 638 466 l 1
 594 466 l 1
 566 637 527 675 365 675 c 2
 316 675 l 2
 264 675 250 664 250 625 c 2
 250 402 l 1
 250 402 311 419 352 419 c 2
 358 419 l 2
 583 419 670 359 670 201 c 0
250 355 m 1
 250 110 l 2
 250 55 257 47 308 47 c 2
 350 47 l 2
 413 47 455 54 486 70 c 0
 525 89 547 141 547 204 c 0
 547 315 489 372 351 372 c 0
 310 372 250 355 250 355 c 1
EndSplineSet
EndChar

StartChar: afii10020
Encoding: 1043 1043 448
Width: 667
Flags: MW
LayerCount: 2
Fore
SplineSet
624 722 m 1
 638 466 l 1
 594 466 l 1
 566 637 523 675 358 675 c 2
 312 675 l 2
 258 675 249 668 249 625 c 2
 249 123 l 1
 249 94 l 2
 249 52 258 47 339 47 c 2
 372 47 l 1
 372 0 l 1
 29 0 l 1
 29 47 l 1
 47 47 l 2
 128 47 137 52 137 94 c 2
 137 123 l 1
 137 599 l 1
 137 628 l 2
 137 670 128 675 47 675 c 2
 29 675 l 1
 29 722 l 1
 624 722 l 1
EndSplineSet
EndChar

StartChar: afii10021
Encoding: 1044 1044 449
Width: 806
Flags: MW
LayerCount: 2
Fore
SplineSet
34 48 m 1
 105 48 l 1
 176 110 226 220 226 536 c 2
 226 545 l 1
 226 574 l 2
 226 616 218 675 137 675 c 2
 119 675 l 1
 119 722 l 1
 749 722 l 1
 749 675 l 1
 731 675 l 2
 650 675 641 662 641 613 c 2
 641 94 l 2
 641 55 645 47 684 47 c 2
 692 47 l 1
 773 48 l 1
 782 -190 l 1
 738 -190 l 1
 710 -19 672 0 507 0 c 2
 300 0 l 2
 135 0 97 -19 69 -190 c 1
 25 -190 l 1
 34 48 l 1
439 669 m 2
 418 669 l 2
 337 669 309 646 307 578 c 2
 306 549 l 1
 305 256 285 112 212 54 c 1
 529 54 l 1
 529 586 l 2
 529 628 520 669 439 669 c 2
EndSplineSet
EndChar

StartChar: afii10024
Encoding: 1046 1046 451
Width: 1036
Flags: MW
LayerCount: 2
Fore
SplineSet
454 600 m 1
 454 628 l 2
 454 670 445 675 364 675 c 2
 346 675 l 1
 346 722 l 1
 675 722 l 1
 675 675 l 1
 656 675 l 2
 575 675 566 670 566 628 c 2
 566 599 l 1
 566 389 l 1
 571 389 l 2
 727 389 753 436 755 578 c 1
 755 581 l 2
 755 691 803 736 881 736 c 0
 947 736 973 718 993 656 c 0
 996 648 997 640 997 633 c 0
 997 605 980 579 951 570 c 0
 945 568 938 567 932 567 c 0
 900 567 869 588 869 620 c 0
 869 661 896 659 896 669 c 0
 896 670 895 671 895 672 c 0
 892 679 880 684 873 684 c 0
 858 684 814 638 813 575 c 0
 812 453 789 388 725 364 c 1
 826 351 879 264 880 147 c 0
 881 62 906 61 928 61 c 2
 930 61 l 2
 957 61 969 91 973 160 c 1
 1015 160 l 1
 1012 40 973 -15 891 -15 c 0
 812 -15 775 31 763 144 c 1
 762 288 736 333 566 334 c 1
 566 123 l 1
 566 94 l 2
 566 52 575 47 656 47 c 2
 675 47 l 1
 675 0 l 1
 346 0 l 1
 346 47 l 1
 364 47 l 2
 445 47 454 52 454 94 c 2
 454 123 l 1
 454 334 l 1
 284 333 258 288 257 144 c 1
 245 31 208 -15 129 -15 c 0
 47 -15 8 40 5 160 c 1
 47 160 l 1
 51 91 63 61 90 61 c 2
 92 61 l 2
 114 61 139 62 140 147 c 0
 141 264 194 351 295 364 c 1
 231 388 208 453 207 575 c 0
 206 638 162 684 147 684 c 0
 140 684 128 679 125 672 c 0
 125 671 124 670 124 669 c 0
 124 659 151 661 151 620 c 0
 151 588 120 567 88 567 c 0
 82 567 75 568 69 570 c 0
 40 579 23 605 23 633 c 0
 23 640 24 648 27 656 c 0
 47 718 73 736 139 736 c 0
 217 736 265 691 265 581 c 2
 265 578 l 1
 267 436 293 389 449 389 c 2
 454 389 l 1
 454 600 l 1
EndSplineSet
EndChar

StartChar: afii10025
Encoding: 1047 1047 452
Width: 608
Flags: MW
LayerCount: 2
Fore
SplineSet
274 41 m 1
 276 41 l 2
 365 41 439 108 439 198 c 0
 439 297 364 356 306 357 c 1
 200 357 l 1
 200 410 l 1
 306 410 l 2
 394 410 423 483 423 560 c 0
 423 644 330 687 285 687 c 2
 283 687 l 1
 213 686 175 659 135 602 c 0
 106 561 88 519 75 468 c 1
 32 468 l 1
 44 728 l 1
 81 728 l 1
 121 668 l 1
 168 713 213 737 284 737 c 0
 415 737 525 670 525 545 c 0
 525 481 476 398 420 384 c 1
 466 384 483 368 494 358 c 0
 533 320 556 267 556 205 c 0
 556 71 424 -16 277 -16 c 0
 141 -16 5 69 5 224 c 0
 5 278 44 292 75 292 c 0
 108 292 136 282 143 240 c 0
 144 233 145 227 145 221 c 0
 145 198 136 180 113 174 c 0
 96 169 87 159 87 149 c 0
 87 144 89 140 92 136 c 0
 148 72 186 43 274 41 c 1
EndSplineSet
EndChar

StartChar: afii10026
Encoding: 1048 1048 453
Width: 833
Flags: MW
LayerCount: 2
Fore
SplineSet
584 477 m 1
 248 140 l 1
 249 125 249 110 249 94 c 0
 249 52 258 47 339 47 c 2
 358 47 l 1
 358 0 l 1
 29 0 l 1
 29 47 l 1
 47 47 l 2
 128 47 137 52 137 94 c 2
 137 123 l 1
 137 599 l 1
 137 628 l 2
 137 670 128 675 47 675 c 2
 29 675 l 1
 29 722 l 1
 358 722 l 1
 358 675 l 1
 339 675 l 2
 258 675 249 670 249 628 c 2
 249 599 l 1
 248 214 l 1
 584 550 l 1
 584 599 l 1
 584 628 l 2
 584 670 575 675 494 675 c 2
 480 675 l 1
 480 722 l 1
 804 722 l 1
 804 675 l 1
 786 675 l 2
 705 675 696 670 696 628 c 2
 696 599 l 1
 696 123 l 1
 696 94 l 2
 696 52 705 47 786 47 c 2
 804 47 l 1
 804 0 l 1
 476 0 l 1
 476 47 l 1
 494 47 l 2
 575 47 584 52 584 94 c 2
 584 123 l 1
 584 477 l 1
EndSplineSet
EndChar

StartChar: afii10028
Encoding: 1050 1050 455
Width: 755
Flags: MW
LayerCount: 2
Fore
SplineSet
474 578 m 1
 474 581 l 2
 474 691 522 736 600 736 c 0
 666 736 719 708 719 656 c 0
 719 600 707 581 670 570 c 0
 664 568 657 567 651 567 c 0
 619 567 588 588 588 620 c 0
 588 661 615 659 615 669 c 0
 615 670 614 671 614 672 c 0
 611 679 599 684 592 684 c 0
 577 684 533 638 532 575 c 0
 531 453 448 388 384 364 c 1
 485 351 598 264 599 147 c 0
 600 62 625 61 647 61 c 2
 649 61 l 2
 676 61 688 91 692 160 c 1
 734 160 l 1
 731 40 692 -15 610 -15 c 0
 531 -15 494 31 482 144 c 1
 481 288 360 334 250 334 c 1
 250 123 l 1
 250 94 l 2
 250 52 259 47 340 47 c 2
 359 47 l 1
 359 0 l 1
 30 0 l 1
 30 47 l 1
 48 47 l 2
 129 47 138 52 138 94 c 2
 138 123 l 1
 138 599 l 1
 138 628 l 2
 138 670 129 675 48 675 c 2
 30 675 l 1
 30 722 l 1
 359 722 l 1
 359 675 l 1
 340 675 l 2
 259 675 250 670 250 628 c 2
 250 599 l 1
 250 389 l 1
 350 389 472 434 474 578 c 1
EndSplineSet
EndChar

StartChar: afii10029
Encoding: 1051 1051 456
Width: 839
Flags: MW
LayerCount: 2
Fore
SplineSet
457 668 m 2
 388 667 375 621 374 492 c 0
 373 300 376 0 150 -15 c 1
 56 -15 5 44 5 129 c 0
 5 200 31 228 89 228 c 0
 133 228 164 198 164 159 c 0
 164 86 111 104 110 79 c 0
 110 67 122 42 148 42 c 0
 206 42 231 72 250 119 c 0
 293 224 300 312 300 411 c 0
 300 460 298 512 298 570 c 1
 295 612 289 675 208 675 c 2
 190 675 l 1
 190 722 l 1
 810 722 l 1
 810 675 l 1
 792 675 l 2
 711 675 702 657 702 615 c 2
 702 94 l 2
 702 52 711 47 792 47 c 2
 810 47 l 1
 810 0 l 1
 482 0 l 1
 482 47 l 1
 500 47 l 2
 581 47 590 52 590 94 c 2
 590 608 l 2
 590 645 565 669 517 669 c 2
 514 669 l 1
 457 668 l 2
EndSplineSet
EndChar

StartChar: afii10033
Encoding: 1055 1055 460
Width: 833
Flags: MW
LayerCount: 2
Fore
SplineSet
584 668 m 1
 249 668 l 1
 249 123 l 1
 249 94 l 2
 249 52 258 47 339 47 c 2
 358 47 l 1
 358 0 l 1
 29 0 l 1
 29 47 l 1
 47 47 l 2
 128 47 137 52 137 94 c 2
 137 123 l 1
 137 599 l 1
 137 628 l 2
 137 670 128 675 47 675 c 2
 29 675 l 1
 29 722 l 1
 804 722 l 1
 804 675 l 1
 786 675 l 2
 705 675 696 670 696 628 c 2
 696 599 l 1
 696 123 l 1
 696 94 l 2
 696 52 705 47 786 47 c 2
 804 47 l 1
 804 0 l 1
 476 0 l 1
 476 47 l 1
 494 47 l 2
 575 47 584 52 584 94 c 2
 584 123 l 1
 584 668 l 1
EndSplineSet
EndChar

StartChar: afii10037
Encoding: 1059 1059 464
Width: 725
Flags: MW
LayerCount: 2
Fore
SplineSet
188 47 m 1
 241 48 251 70 289 127 c 1
 333 212 l 1
 95 637 l 2
 75 672 60 675 11 675 c 2
 -6 675 l 1
 -6 722 l 1
 303 722 l 1
 303 675 l 1
 265 675 l 2
 227 675 217 672 217 662 c 0
 217 657 222 648 228 637 c 2
 390 318 l 1
 528 602 l 2
 536 619 542 625 542 636 c 0
 542 663 521 675 473 675 c 2
 459 675 l 1
 459 722 l 1
 734 722 l 1
 734 675 l 1
 718 675 l 2
 665 675 637 656 581 581 c 1
 339 95 l 1
 311 46 295 0 188 0 c 0
 104 0 63 42 63 109 c 0
 63 146 95 169 132 169 c 0
 161 169 184 156 185 128 c 1
 185 110 l 2
 185 96 183 98 168 75 c 1
 151 66 145 60 145 56 c 0
 145 48 171 48 188 47 c 1
EndSplineSet
EndChar

StartChar: afii10038
Encoding: 1060 1060 465
Width: 856
Flags: MW
LayerCount: 2
Fore
SplineSet
370 115 m 5
 141 116 17 187 17 377 c 0
 17 532 112 635 370 635 c 5
 370 665 l 6
 370 707 361 712 280 712 c 6
 260 712 l 5
 260 759 l 5
 591 759 l 5
 591 712 l 5
 571 712 l 6
 491 712 482 707 482 665 c 6
 482 635 l 5
 722 635 839 554 839 375 c 0
 839 198 723 114 486 114 c 6
 482 114 l 5
 482 94 l 6
 482 52 491 47 571 47 c 6
 591 47 l 5
 591 0 l 5
 260 0 l 5
 260 47 l 5
 280 47 l 6
 361 47 370 52 370 94 c 6
 370 115 l 5
482 153 m 5
 485 153 l 6
 689 153 720 246 720 375 c 0
 720 505 686 596 482 597 c 5
 482 153 l 5
370 154 m 5
 370 597 l 5
 173 597 136 505 136 377 c 0
 136 248 170 155 370 154 c 5
EndSplineSet
EndChar

StartChar: afii10040
Encoding: 1062 1062 467
Width: 854
Flags: MW
LayerCount: 2
Fore
SplineSet
29 0 m 1
 29 47 l 1
 47 47 l 2
 128 47 137 52 137 94 c 2
 137 123 l 1
 137 599 l 1
 137 628 l 2
 137 670 128 675 47 675 c 2
 29 675 l 1
 29 722 l 1
 358 722 l 1
 358 675 l 1
 339 675 l 2
 258 675 249 670 249 628 c 2
 249 599 l 1
 249 54 l 1
 584 54 l 1
 584 599 l 1
 584 628 l 2
 584 670 575 675 494 675 c 2
 476 675 l 1
 476 722 l 1
 804 722 l 1
 804 675 l 1
 786 675 l 2
 705 675 696 670 696 628 c 2
 696 599 l 1
 696 123 l 1
 696 94 l 2
 696 56 709 47 747 47 c 2
 760 47 l 2
 812 47 825 47 825 48 c 1
 812 48 l 1
 821 -190 l 1
 777 -190 l 1
 749 -19 737 0 572 0 c 2
 29 0 l 1
EndSplineSet
EndChar

StartChar: afii10041
Encoding: 1063 1063 468
Width: 786
Flags: MW
LayerCount: 2
Fore
SplineSet
537 322 m 1
 474 274 444 256 370 256 c 0
 231 256 137 311 137 390 c 2
 137 391 l 1
 137 599 l 1
 137 628 l 2
 137 670 128 675 47 675 c 2
 29 675 l 1
 29 722 l 1
 358 722 l 1
 358 675 l 1
 339 675 l 2
 258 675 249 670 249 628 c 2
 249 599 l 1
 249 403 l 1
 249 402 l 2
 249 361 297 320 363 319 c 1
 372 319 l 2
 440 319 467 331 537 388 c 1
 537 599 l 1
 537 628 l 2
 537 670 528 675 447 675 c 2
 433 675 l 1
 433 722 l 1
 757 722 l 1
 757 675 l 1
 739 675 l 2
 658 675 649 670 649 628 c 2
 649 599 l 1
 649 123 l 1
 649 94 l 2
 649 52 658 47 739 47 c 2
 757 47 l 1
 757 0 l 1
 429 0 l 1
 429 47 l 1
 447 47 l 2
 528 47 537 52 537 94 c 2
 537 123 l 1
 537 322 l 1
EndSplineSet
EndChar

StartChar: afii10042
Encoding: 1064 1064 469
Width: 1195
Flags: MW
LayerCount: 2
Fore
SplineSet
654 54 m 1
 946 54 l 1
 946 599 l 1
 946 628 l 2
 946 670 937 675 856 675 c 2
 838 675 l 1
 838 722 l 1
 1166 722 l 1
 1166 675 l 1
 1148 675 l 2
 1067 675 1058 670 1058 628 c 2
 1058 599 l 1
 1058 123 l 1
 1058 94 l 2
 1058 52 1067 47 1148 47 c 2
 1166 47 l 1
 1166 0 l 1
 29 0 l 1
 29 47 l 1
 47 47 l 2
 128 47 137 52 137 94 c 2
 137 123 l 1
 137 599 l 1
 137 628 l 2
 137 670 128 675 47 675 c 2
 29 675 l 1
 29 722 l 1
 358 722 l 1
 358 675 l 1
 339 675 l 2
 258 675 249 670 249 628 c 2
 249 599 l 1
 249 54 l 1
 542 54 l 1
 542 599 l 1
 542 628 l 2
 542 670 533 675 452 675 c 2
 434 675 l 1
 434 722 l 1
 762 722 l 1
 762 675 l 1
 744 675 l 2
 663 675 654 670 654 628 c 2
 654 599 l 1
 654 54 l 1
EndSplineSet
EndChar

StartChar: afii10043
Encoding: 1065 1065 470
Width: 1217
Flags: MW
LayerCount: 2
Fore
SplineSet
29 0 m 1
 29 47 l 1
 47 47 l 2
 128 47 137 52 137 94 c 2
 137 123 l 1
 137 599 l 1
 137 628 l 2
 137 670 128 675 47 675 c 2
 29 675 l 1
 29 722 l 1
 358 722 l 1
 358 675 l 1
 339 675 l 2
 258 675 249 670 249 628 c 2
 249 599 l 1
 249 54 l 1
 542 54 l 1
 542 599 l 1
 542 628 l 2
 542 670 533 675 452 675 c 2
 434 675 l 1
 434 722 l 1
 762 722 l 1
 762 675 l 1
 744 675 l 2
 663 675 654 670 654 628 c 2
 654 599 l 1
 654 54 l 1
 946 54 l 1
 946 599 l 1
 946 628 l 2
 946 670 937 675 856 675 c 2
 838 675 l 1
 838 722 l 1
 1166 722 l 1
 1166 675 l 1
 1148 675 l 2
 1067 675 1058 670 1058 628 c 2
 1058 599 l 1
 1058 123 l 1
 1058 94 l 2
 1058 52 1082 48 1120 47 c 1
 1179 47 l 1
 1188 -190 l 1
 1144 -190 l 1
 1116 -19 1168 0 1003 0 c 2
 29 0 l 1
EndSplineSet
EndChar

StartChar: afii10044
Encoding: 1066 1066 471
Width: 883
Flags: MW
LayerCount: 2
Fore
SplineSet
210 0 m 1
 210 47 l 1
 228 47 l 2
 309 47 318 52 318 94 c 2
 318 123 l 1
 318 599 l 1
 318 628 l 2
 318 670 309 675 228 675 c 2
 212 675 l 2
 47 675 91 637 63 466 c 1
 19 466 l 1
 33 722 l 1
 546 722 l 1
 546 675 l 1
 520 675 l 2
 439 675 430 670 430 628 c 2
 430 401 l 1
 430 401 497 416 543 416 c 0
 700 415 831 347 831 198 c 0
 831 122 796 64 730 31 c 0
 691 11 629 0 560 0 c 2
 210 0 l 1
430 354 m 1
 430 98 l 2
 430 52 436 47 491 47 c 2
 555 47 l 2
 659 47 708 96 708 202 c 0
 708 305 642 369 551 369 c 0
 502 369 430 354 430 354 c 1
EndSplineSet
EndChar

StartChar: afii10046
Encoding: 1068 1068 473
Width: 701
Flags: MW
LayerCount: 2
Fore
SplineSet
248 401 m 1
 248 401 315 416 361 416 c 0
 518 415 649 347 649 198 c 0
 649 122 614 64 548 31 c 0
 509 11 447 0 378 0 c 2
 28 0 l 1
 28 47 l 1
 46 47 l 2
 127 47 136 52 136 94 c 2
 136 628 l 2
 136 670 127 675 46 675 c 2
 28 675 l 1
 28 722 l 1
 364 722 l 1
 364 675 l 1
 338 675 l 2
 257 675 248 670 248 628 c 2
 248 401 l 1
248 354 m 1
 248 98 l 2
 248 52 254 47 309 47 c 2
 373 47 l 2
 477 47 526 96 526 202 c 0
 526 305 460 369 369 369 c 0
 320 369 248 354 248 354 c 1
EndSplineSet
EndChar

StartChar: afii10047
Encoding: 1069 1069 474
Width: 668
Flags: MW
LayerCount: 2
Fore
SplineSet
204 350 m 1
 204 397 l 1
 491 397 l 1
 488 485 471 548 442 599 c 0
 411 655 349 690 285 690 c 0
 215 690 165 664 127 600 c 0
 108 567 93 528 70 451 c 1
 26 451 l 1
 41 740 l 1
 79 740 l 1
 119 681 l 1
 190 733 217 737 284 737 c 0
 381 737 461 698 529 617 c 0
 593 541 623 457 623 354 c 0
 623 139 482 -15 285 -15 c 0
 125 -15 23 86 5 226 c 1
 5 232 l 2
 5 265 37 292 69 292 c 2
 75 292 l 1
 109 288 142 270 143 240 c 1
 143 232 l 2
 143 203 133 177 113 174 c 0
 94 171 81 170 81 157 c 0
 81 152 83 145 87 136 c 0
 122 63 192 32 273 32 c 0
 421 32 491 135 491 350 c 1
 204 350 l 1
EndSplineSet
EndChar

StartChar: afii10048
Encoding: 1070 1070 475
Width: 1106
Flags: MW
LayerCount: 2
Fore
SplineSet
248 347 m 1
 248 123 l 1
 248 94 l 2
 248 52 257 47 338 47 c 2
 357 47 l 1
 357 0 l 1
 28 0 l 1
 28 47 l 1
 46 47 l 2
 127 47 136 52 136 94 c 2
 136 123 l 1
 136 599 l 1
 136 628 l 2
 136 670 127 675 46 675 c 2
 28 675 l 1
 28 722 l 1
 357 722 l 1
 357 675 l 1
 338 675 l 2
 257 675 248 670 248 628 c 2
 248 599 l 1
 248 401 l 1
 375 401 l 1
 384 500 427 591 495 653 c 0
 556 709 632 737 721 737 c 0
 913 737 1061 573 1061 361 c 0
 1061 147 913 -15 717 -15 c 0
 526 -15 380 140 374 347 c 1
 248 347 l 1
720 690 m 0
 645 690 592 662 555 604 c 1
 518 544 505 483 505 363 c 0
 505 239 517 179 555 118 c 0
 591 62 646 32 717 32 c 0
 788 32 843 62 879 118 c 1
 916 178 929 239 929 361 c 0
 929 483 916 545 879 604 c 1
 843 659 787 690 720 690 c 0
EndSplineSet
EndChar

StartChar: afii10049
Encoding: 1071 1071 476
Width: 728
Flags: MW
LayerCount: 2
Fore
SplineSet
479 350 m 1
 421 350 l 2
 382 350 342 338 320 320 c 0
 291 297 276 261 269 195 c 2
 264 144 l 2
 252 31 215 -15 136 -15 c 0
 54 -15 15 40 12 160 c 1
 54 160 l 1
 58 91 70 61 97 61 c 0
 120 61 130 78 147 147 c 2
 163 210 l 1
 185 302 224 344 302 364 c 1
 158 384 89 442 89 543 c 0
 89 657 185 722 353 722 c 2
 699 722 l 1
 699 675 l 1
 681 675 l 2
 600 675 591 670 591 628 c 2
 591 599 l 1
 591 122 l 1
 591 94 l 2
 591 52 600 47 681 47 c 2
 699 47 l 1
 699 0 l 1
 371 0 l 1
 371 47 l 1
 389 47 l 2
 470 47 479 52 479 94 c 2
 479 122 l 1
 479 350 l 1
479 397 m 1
 479 617 l 2
 479 657 478 660 468 668 c 0
 460 674 453 675 410 675 c 2
 356 675 l 2
 257 675 212 633 212 542 c 0
 212 491 225 452 251 431 c 0
 276 410 321 397 369 397 c 2
 479 397 l 1
EndSplineSet
EndChar

StartChar: afii10066
Encoding: 1073 1073 478
Width: 500
Flags: MW
LayerCount: 2
Fore
SplineSet
106 404 m 1
 140 462 208 481 252 481 c 0
 370 481 466 370 466 233 c 0
 466 95 370 -15 250 -15 c 0
 130 -15 34 95 34 232 c 0
 34 322 35 454 82 548 c 0
 138 660 208 662 310 662 c 2
 341 662 l 2
 390 662 423 667 432 726 c 1
 474 726 l 1
 474 713 l 2
 474 572 373 559 269 559 c 0
 246 559 222 560 200 560 c 0
 140 560 114 506 106 404 c 1
252 438 m 0
 177 438 139 368 139 232 c 0
 139 100 178 28 250 28 c 0
 322 28 361 100 361 233 c 0
 361 365 322 438 252 438 c 0
EndSplineSet
EndChar

StartChar: afii10067
Encoding: 1074 1074 479
Width: 532
Flags: MW
LayerCount: 2
Fore
SplineSet
23 466 m 1
 276 466 l 2
 380 466 479 442 479 360 c 0
 479 280 434 260 349 243 c 1
 448 234 509 198 509 135 c 0
 509 56 453 0 280 0 c 2
 23 0 l 1
 23 36 l 1
 41 36 l 2
 94 36 102 49 102 76 c 2
 102 94 l 1
 102 340 l 1
 102 358 l 1
 102 376 l 2
 102 396 96 413 41 413 c 2
 23 413 l 1
 23 466 l 1
198 264 m 1
 226 264 l 2
 345 264 380 280 380 347 c 0
 380 401 312 421 247 421 c 2
 236 421 l 2
 201 421 198 416 198 402 c 2
 198 388 l 1
 198 264 l 1
198 218 m 1
 198 88 l 2
 198 53 202 47 230 47 c 2
 237 47 l 2
 325 47 411 60 411 137 c 0
 411 206 321 218 225 218 c 2
 198 218 l 1
EndSplineSet
EndChar

StartChar: afii10068
Encoding: 1075 1075 480
Width: 458
Flags: MW
LayerCount: 2
Fore
SplineSet
198 367 m 2
 198 83 l 2
 198 43 209 36 274 36 c 2
 278 36 l 1
 278 0 l 1
 25 0 l 1
 25 36 l 1
 29 36 l 2
 93 36 104 43 104 83 c 2
 104 383 l 2
 104 423 93 430 29 430 c 2
 22 430 l 1
 22 466 l 1
 437 466 l 1
 446 296 l 1
 406 296 l 1
 397 386 361 422 279 422 c 2
 240 422 l 2
 198 422 198 394 198 367 c 2
EndSplineSet
EndChar

StartChar: afii10069
Encoding: 1076 1076 481
Width: 587
Flags: MW
LayerCount: 2
Fore
SplineSet
405 0 m 2
 184 0 l 2
 102 0 66 -36 57 -126 c 1
 17 -126 l 1
 26 44 l 1
 76 44 l 2
 104 44 115 59 126 77 c 0
 158 129 163 202 163 281 c 0
 163 309 162 339 162 368 c 1
 161 394 160 430 88 430 c 2
 70 430 l 1
 70 466 l 1
 565 466 l 1
 565 430 l 1
 547 430 l 2
 493 430 482 418 482 391 c 2
 482 91 l 2
 482 51 483 44 529 44 c 2
 563 44 l 1
 572 -126 l 1
 532 -126 l 1
 523 -36 487 0 405 0 c 2
210 52 m 1
 209 52 l 1
 323 52 l 2
 362 52 388 60 388 87 c 2
 388 368 l 2
 388 409 381 412 349 412 c 2
 330 412 l 1
 291 412 l 2
 244 412 224 401 224 318 c 2
 224 269 l 2
 224 202 222 134 196 82 c 0
 193 75 191 70 191 66 c 0
 191 53 203 52 208 52 c 2
 210 52 l 1
EndSplineSet
EndChar

StartChar: afii10072
Encoding: 1078 1078 483
Width: 864
Flags: MW
LayerCount: 2
Fore
SplineSet
386 118 m 1
 386 213 l 1
 274 213 255 201 255 167 c 0
 255 149 260 125 260 93 c 1
 248 20 211 -10 132 -10 c 0
 50 -10 11 26 8 103 c 1
 50 103 l 1
 54 59 66 39 93 39 c 0
 116 39 142 39 143 95 c 0
 144 170 197 226 298 235 c 1
 234 250 211 292 210 371 c 0
 209 411 165 441 151 441 c 2
 150 441 l 2
 138 441 130 437 128 433 c 0
 128 432 127 431 127 431 c 1
 127 424 147 425 147 400 c 0
 147 375 123 364 97 364 c 0
 89 364 80 365 72 368 c 0
 53 374 37 391 37 409 c 0
 37 414 38 418 40 423 c 0
 60 463 76 475 142 475 c 0
 220 475 268 446 268 375 c 2
 268 373 l 1
 268 367 l 2
 268 337 264 315 264 299 c 0
 264 267 280 257 376 257 c 2
 385 257 l 1
 385 343 l 1
 385 365 l 1
 385 379 l 2
 385 404 380 431 323 431 c 2
 305 431 l 1
 305 466 l 1
 559 466 l 1
 559 431 l 1
 540 431 l 2
 485 431 478 408 478 385 c 0
 478 377 479 369 479 362 c 2
 479 343 l 1
 479 257 l 1
 488 257 l 2
 584 257 600 267 600 299 c 0
 600 315 596 337 596 367 c 2
 596 373 l 1
 596 375 l 2
 596 446 644 475 722 475 c 0
 788 475 804 463 824 423 c 0
 826 418 827 414 827 409 c 0
 827 391 811 374 792 368 c 0
 784 365 775 364 767 364 c 0
 741 364 717 375 717 400 c 0
 717 425 737 424 737 431 c 1
 737 431 736 432 736 433 c 0
 734 437 726 441 714 441 c 2
 713 441 l 2
 699 441 655 411 654 371 c 0
 653 292 630 250 566 235 c 1
 667 226 720 170 721 95 c 0
 722 39 748 39 771 39 c 0
 798 39 810 59 814 103 c 1
 856 103 l 1
 853 26 814 -10 732 -10 c 0
 653 -10 616 20 604 93 c 1
 604 125 609 149 609 167 c 0
 609 201 590 213 478 213 c 1
 478 122 l 1
 478 104 l 2
 478 97 477 90 477 82 c 0
 477 59 484 35 540 35 c 2
 559 35 l 1
 559 0 l 1
 305 0 l 1
 305 35 l 1
 323 35 l 2
 378 35 386 53 386 72 c 0
 386 82 385 91 385 100 c 2
 386 118 l 1
EndSplineSet
EndChar

StartChar: afii10073
Encoding: 1079 1079 484
Width: 411
Flags: MW
LayerCount: 2
Fore
SplineSet
84 71 m 1
 84 71 108 28 192 28 c 0
 232 28 288 58 289 133 c 0
 289 170 263 218 182 218 c 2
 140 218 l 1
 140 266 l 1
 180 266 l 2
 262 266 282 306 282 352 c 0
 282 396 246 436 190 437 c 1
 186 437 l 2
 154 437 132 425 108 397 c 0
 88 374 79 355 63 309 c 1
 28 309 l 1
 28 477 l 1
 63 477 l 1
 92 441 l 1
 128 469 150 481 200 481 c 0
 288 481 351 435 351 348 c 0
 351 283 318 259 308 252 c 1
 321 250 329 245 335 240 c 0
 363 217 380 183 380 139 c 0
 380 47 309 -15 202 -15 c 2
 199 -15 l 1
 117 -14 88 0 49 39 c 0
 20 69 10 95 10 116 c 0
 10 128 14 139 18 147 c 0
 28 167 45 181 65 181 c 0
 70 181 75 180 80 178 c 0
 101 172 119 157 119 136 c 0
 119 130 118 123 114 116 c 0
 101 91 77 102 74 93 c 0
 72 88 75 80 84 71 c 1
EndSplineSet
EndChar

StartChar: afii10074
Encoding: 1080 1080 485
Width: 617
Flags: MW
LayerCount: 2
Fore
SplineSet
600 466 m 1
 600 430 l 1
 593 430 l 2
 528 430 517 423 517 383 c 2
 517 83 l 2
 517 43 528 36 592 36 c 2
 596 36 l 1
 596 0 l 1
 343 0 l 1
 343 36 l 1
 347 36 l 2
 412 36 423 43 423 83 c 2
 423 297 l 1
 203 108 l 1
 203 83 l 2
 203 43 214 36 279 36 c 2
 283 36 l 1
 283 0 l 1
 30 0 l 1
 30 36 l 1
 34 36 l 2
 98 36 109 43 109 83 c 2
 109 383 l 2
 109 423 98 430 34 430 c 2
 27 430 l 1
 27 466 l 1
 285 466 l 1
 285 430 l 1
 278 430 l 2
 214 430 203 423 203 383 c 2
 203 166 l 1
 423 355 l 1
 423 383 l 2
 423 423 412 430 347 430 c 2
 340 430 l 1
 340 466 l 1
 600 466 l 1
EndSplineSet
EndChar

StartChar: afii10076
Encoding: 1082 1082 487
Width: 591
Flags: MW
LayerCount: 2
Fore
SplineSet
323 369 m 0
 323 388 323 364 323 375 c 0
 323 444 380 475 431 475 c 0
 498 475 511 463 531 423 c 0
 533 418 535 413 535 408 c 0
 535 381 508 364 477 364 c 0
 452 364 428 376 428 400 c 0
 428 425 448 424 448 431 c 0
 448 437 437 441 425 441 c 2
 424 441 l 2
 410 441 382 411 381 371 c 0
 380 292 327 250 263 235 c 1
 364 226 447 170 448 95 c 0
 449 39 475 39 498 39 c 0
 525 39 537 59 541 103 c 1
 583 103 l 1
 580 26 541 -10 459 -10 c 0
 380 -10 343 20 331 93 c 1
 330 185 232 213 191 213 c 1
 191 82 l 2
 191 59 196 35 252 35 c 2
 271 35 l 1
 271 0 l 1
 17 0 l 1
 17 35 l 1
 35 35 l 2
 90 35 96 53 96 72 c 2
 96 379 l 2
 96 404 92 431 35 431 c 2
 17 431 l 1
 17 466 l 1
 271 466 l 1
 271 431 l 1
 252 431 l 2
 197 431 191 408 191 385 c 2
 191 296 l 1
 191 257 l 1
 240 257 323 302 323 369 c 0
EndSplineSet
EndChar

StartChar: afii10077
Encoding: 1083 1083 488
Width: 636
Flags: MW
LayerCount: 2
Fore
SplineSet
354 412 m 2
 312 412 304 406 304 370 c 2
 304 362 l 1
 304 318 l 1
 304 311 l 2
 304 161 270 -8 131 -9 c 0
 51 -9 21 23 21 84 c 0
 21 117 43 142 81 142 c 0
 116 142 139 123 139 94 c 0
 139 50 108 72 108 48 c 0
 108 41 109 38 128 38 c 0
 156 38 176 52 192 77 c 0
 225 130 228 203 228 284 c 2
 228 347 l 1
 228 368 l 1
 227 394 235 430 154 430 c 2
 136 430 l 1
 136 466 l 1
 609 466 l 1
 609 430 l 1
 591 430 l 2
 537 430 526 418 526 391 c 2
 526 69 l 2
 526 42 558 36 587 36 c 2
 605 36 l 1
 605 0 l 1
 352 0 l 1
 352 36 l 1
 367 36 l 2
 406 36 432 44 432 71 c 2
 432 373 l 2
 432 416 419 411 371 412 c 1
 354 412 l 2
EndSplineSet
EndChar

StartChar: afii10078
Encoding: 1084 1084 489
Width: 678
Flags: MW
LayerCount: 2
Fore
SplineSet
474 323 m 1
 337 -15 l 1
 302 -15 l 1
 157 323 l 1
 157 83 l 2
 157 43 168 36 233 36 c 2
 237 36 l 1
 237 0 l 1
 30 0 l 1
 30 36 l 1
 34 36 l 2
 98 36 109 43 109 83 c 2
 109 383 l 2
 109 423 98 430 34 430 c 2
 27 430 l 1
 27 466 l 1
 292 466 l 1
 292 430 l 1
 278 430 l 2
 237 430 224 424 224 407 c 0
 224 401 226 392 229 386 c 2
 343 121 l 1
 435 353 l 2
 440 368 444 384 444 395 c 0
 444 418 425 430 390 430 c 2
 376 430 l 1
 376 466 l 1
 651 466 l 1
 651 430 l 1
 644 430 l 2
 579 430 568 423 568 383 c 2
 568 83 l 2
 568 43 579 36 643 36 c 2
 647 36 l 1
 647 0 l 1
 394 0 l 1
 394 36 l 1
 398 36 l 2
 463 36 474 43 474 83 c 2
 474 323 l 1
EndSplineSet
EndChar

StartChar: afii10079
Encoding: 1085 1085 490
Width: 617
Flags: MW
LayerCount: 2
Fore
SplineSet
600 466 m 1
 600 430 l 1
 593 430 l 2
 528 430 517 423 517 383 c 2
 517 83 l 2
 517 43 528 36 592 36 c 2
 596 36 l 1
 596 0 l 1
 343 0 l 1
 343 36 l 1
 347 36 l 2
 412 36 423 43 423 83 c 2
 423 214 l 1
 203 214 l 1
 203 83 l 2
 203 43 214 36 279 36 c 2
 283 36 l 1
 283 0 l 1
 30 0 l 1
 30 36 l 1
 34 36 l 2
 98 36 109 43 109 83 c 2
 109 383 l 2
 109 423 98 430 34 430 c 2
 27 430 l 1
 27 466 l 1
 285 466 l 1
 285 430 l 1
 278 430 l 2
 214 430 203 423 203 383 c 2
 203 265 l 1
 423 265 l 1
 423 383 l 2
 423 423 412 430 347 430 c 2
 340 430 l 1
 340 466 l 1
 600 466 l 1
EndSplineSet
EndChar

StartChar: afii10081
Encoding: 1087 1087 492
Width: 611
Flags: MW
LayerCount: 2
Fore
SplineSet
345 413 m 2
 276 413 l 2
 204 413 200 406 200 366 c 2
 200 83 l 2
 200 43 211 36 276 36 c 2
 280 36 l 1
 280 0 l 1
 27 0 l 1
 27 36 l 1
 31 36 l 2
 95 36 106 43 106 83 c 2
 106 383 l 2
 106 423 95 430 31 430 c 2
 24 430 l 1
 24 466 l 1
 597 466 l 1
 597 430 l 1
 590 430 l 2
 525 430 514 423 514 383 c 2
 514 83 l 2
 514 43 525 36 589 36 c 2
 593 36 l 1
 593 0 l 1
 340 0 l 1
 340 36 l 1
 344 36 l 2
 409 36 420 43 420 83 c 2
 420 366 l 2
 420 406 418 413 345 413 c 2
EndSplineSet
EndChar

StartChar: afii10084
Encoding: 1090 1090 495
Width: 521
Flags: MW
LayerCount: 2
Fore
SplineSet
500 466 m 1
 509 296 l 1
 469 296 l 1
 460 386 444 422 362 422 c 2
 352 422 l 2
 310 422 310 394 310 367 c 2
 310 83 l 2
 310 43 321 36 386 36 c 2
 390 36 l 1
 390 0 l 1
 137 0 l 1
 137 36 l 1
 141 36 l 2
 205 36 216 43 216 83 c 2
 216 367 l 2
 216 394 216 422 174 422 c 2
 164 422 l 2
 82 422 66 386 57 296 c 1
 17 296 l 1
 26 466 l 1
 500 466 l 1
EndSplineSet
EndChar

StartChar: afii10086
Encoding: 1092 1092 497
Width: 840
Flags: MW
LayerCount: 2
Fore
SplineSet
373 407 m 1
 373 568 l 2
 373 611 367 618 330 618 c 2
 294 618 l 1
 294 661 l 1
 467 672 l 1
 467 395 l 1
 502 455 543 481 605 481 c 0
 715 481 801 373 801 235 c 0
 801 92 715 -15 599 -15 c 0
 538 -15 500 8 467 66 c 1
 467 -79 l 1
 467 -119 l 2
 467 -159 478 -166 543 -166 c 2
 554 -166 l 1
 554 -202 l 1
 294 -202 l 1
 294 -166 l 1
 298 -166 l 2
 362 -166 372 -159 373 -119 c 2
 374 -78 l 1
 373 72 l 1
 341 12 298 -15 235 -15 c 0
 119 -15 36 86 36 228 c 0
 36 372 122 481 235 481 c 0
 293 481 336 458 373 407 c 1
255 427 m 0
 214 427 177 398 160 354 c 0
 147 320 141 275 141 216 c 0
 141 105 184 39 254 39 c 0
 326 39 372 115 372 231 c 0
 372 279 365 321 353 351 c 0
 335 397 296 427 255 427 c 0
587 427 m 0
 511 427 466 352 466 228 c 0
 466 113 513 39 584 39 c 0
 655 39 696 112 696 241 c 0
 696 358 656 427 587 427 c 0
EndSplineSet
EndChar

StartChar: afii10088
Encoding: 1094 1094 499
Width: 623
Flags: MW
LayerCount: 2
Fore
SplineSet
598 44 m 1
 607 -126 l 1
 567 -126 l 1
 558 -36 522 0 440 0 c 2
 27 0 l 1
 27 36 l 1
 34 36 l 2
 98 36 109 43 109 83 c 2
 109 383 l 2
 109 423 98 430 34 430 c 2
 30 430 l 1
 30 466 l 1
 283 466 l 1
 283 430 l 1
 279 430 l 2
 214 430 203 423 203 383 c 2
 203 99 l 2
 203 59 207 52 279 52 c 2
 348 52 l 2
 421 52 423 59 423 99 c 2
 423 383 l 2
 423 423 412 430 347 430 c 2
 343 430 l 1
 343 466 l 1
 596 466 l 1
 596 430 l 1
 592 430 l 2
 528 430 517 423 517 383 c 2
 517 91 l 2
 517 51 518 44 564 44 c 2
 598 44 l 1
EndSplineSet
EndChar

StartChar: afii10089
Encoding: 1095 1095 500
Width: 599
Flags: MW
LayerCount: 2
Fore
SplineSet
582 466 m 1
 582 430 l 1
 575 430 l 2
 510 430 499 423 499 383 c 2
 499 83 l 2
 499 43 510 36 574 36 c 2
 578 36 l 1
 578 0 l 1
 325 0 l 1
 325 36 l 1
 329 36 l 2
 394 36 405 43 405 83 c 2
 405 191 l 1
 368 159 350 152 308 152 c 0
 218 152 109 173 109 264 c 2
 109 383 l 2
 109 423 98 430 34 430 c 2
 27 430 l 1
 27 466 l 1
 285 466 l 1
 285 430 l 1
 278 430 l 2
 214 430 203 423 203 383 c 2
 203 291 l 1
 204 244 252 203 306 203 c 2
 308 203 l 1
 360 204 404 243 405 291 c 1
 405 383 l 2
 405 423 394 430 329 430 c 2
 322 430 l 1
 322 466 l 1
 582 466 l 1
EndSplineSet
EndChar

StartChar: afii10090
Encoding: 1096 1096 501
Width: 859
Flags: MW
LayerCount: 2
Fore
SplineSet
842 0 m 1
 27 0 l 1
 27 36 l 1
 34 36 l 2
 98 36 109 43 109 83 c 2
 109 383 l 2
 109 423 98 430 34 430 c 2
 30 430 l 1
 30 466 l 1
 283 466 l 1
 283 430 l 1
 279 430 l 2
 214 430 203 423 203 383 c 2
 203 99 l 2
 203 59 207 52 279 52 c 2
 387 52 l 1
 387 383 l 2
 387 423 376 430 312 430 c 2
 308 430 l 1
 308 466 l 1
 561 466 l 1
 561 430 l 1
 557 430 l 2
 492 430 481 423 481 383 c 2
 481 52 l 1
 591 52 l 2
 664 52 666 59 666 99 c 2
 666 383 l 2
 666 423 655 430 590 430 c 2
 586 430 l 1
 586 466 l 1
 839 466 l 1
 839 430 l 1
 835 430 l 2
 771 430 760 424 760 384 c 2
 760 100 l 2
 760 60 771 36 835 36 c 2
 842 36 l 1
 842 0 l 1
EndSplineSet
EndChar

StartChar: afii10091
Encoding: 1097 1097 502
Width: 866
Flags: MW
LayerCount: 2
Fore
SplineSet
481 52 m 1
 591 52 l 2
 664 52 666 59 666 99 c 2
 666 383 l 2
 666 423 655 430 590 430 c 2
 586 430 l 1
 586 466 l 1
 839 466 l 1
 839 430 l 1
 835 430 l 2
 771 430 760 423 760 383 c 2
 760 91 l 2
 760 51 761 44 807 44 c 2
 841 44 l 1
 850 -126 l 1
 810 -126 l 1
 801 -36 765 0 683 0 c 2
 27 0 l 1
 27 36 l 1
 34 36 l 2
 98 36 109 43 109 83 c 2
 109 383 l 2
 109 423 98 430 34 430 c 2
 30 430 l 1
 30 466 l 1
 283 466 l 1
 283 430 l 1
 279 430 l 2
 214 430 203 423 203 383 c 2
 203 99 l 2
 203 59 207 52 279 52 c 2
 387 52 l 1
 387 383 l 2
 387 423 376 430 312 430 c 2
 308 430 l 1
 308 466 l 1
 561 466 l 1
 561 430 l 1
 557 430 l 2
 492 430 481 423 481 383 c 2
 481 52 l 1
EndSplineSet
EndChar

StartChar: afii10092
Encoding: 1098 1098 503
Width: 650
Flags: MW
LayerCount: 2
Fore
SplineSet
157 0 m 1
 157 36 l 1
 175 36 l 2
 228 36 236 49 236 76 c 2
 236 94 l 1
 236 349 l 1
 236 367 l 2
 236 394 236 422 194 422 c 2
 184 422 l 2
 102 422 66 386 57 296 c 1
 17 296 l 1
 26 466 l 1
 411 466 l 1
 411 413 l 1
 393 413 l 2
 338 413 332 396 332 376 c 2
 332 358 l 1
 332 264 l 1
 332 264 373 279 401 279 c 0
 551 279 633 229 633 137 c 0
 633 55 586 0 414 0 c 2
 157 0 l 1
332 218 m 1
 332 88 l 2
 332 53 336 47 364 47 c 2
 371 47 l 2
 434 47 443 52 474 62 c 0
 513 75 535 96 535 137 c 0
 535 185 498 232 374 233 c 0
 356 233 332 218 332 218 c 1
EndSplineSet
EndChar

StartChar: afii10093
Encoding: 1099 1099 504
Width: 790
Flags: HMW
LayerCount: 2
Fore
SplineSet
680 383 m 2
 680 83 l 2
 680 43 691 36 756 36 c 2
 763 36 l 1
 763 0 l 1
 504 0 l 1
 504 36 l 1
 511 36 l 2
 575 36 586 43 586 83 c 2
 586 383 l 2
 586 423 575 430 511 430 c 2
 504 430 l 1
 504 466 l 1
 763 466 l 1
 763 430 l 1
 756 430 l 2
 691 430 680 423 680 383 c 2
EndSplineSet
Refer: 505 1100 S 1 0 0 1 0 0 2
EndChar

StartChar: afii10094
Encoding: 1100 1100 505
Width: 526
Flags: MW
LayerCount: 2
Fore
SplineSet
27 466 m 1
 281 466 l 1
 281 413 l 1
 263 413 l 2
 208 413 202 396 202 376 c 2
 202 358 l 1
 202 264 l 1
 202 264 243 279 271 279 c 0
 421 279 503 229 503 137 c 0
 503 55 454 0 284 0 c 2
 27 0 l 1
 27 36 l 1
 45 36 l 2
 98 36 106 49 106 76 c 2
 106 358 l 1
 106 376 l 2
 106 396 100 413 45 413 c 2
 27 413 l 1
 27 466 l 1
202 218 m 1
 202 88 l 2
 202 53 206 47 234 47 c 2
 241 47 l 2
 304 47 313 52 344 62 c 0
 383 75 405 96 405 137 c 0
 405 185 368 232 244 233 c 0
 226 233 202 218 202 218 c 1
EndSplineSet
EndChar

StartChar: afii10095
Encoding: 1101 1101 506
Width: 439
Flags: MW
LayerCount: 2
Fore
SplineSet
171 39 m 0
 245 39 294 111 301 214 c 1
 172 214 l 1
 172 265 l 1
 300 265 l 1
 293 370 246 438 178 438 c 0
 148 438 122 424 122 408 c 0
 122 405 124 402 128 396 c 0
 144 377 148 367 148 350 c 0
 148 317 123 294 88 294 c 0
 53 294 27 322 27 362 c 0
 27 429 94 481 183 481 c 0
 313 481 406 374 406 225 c 0
 406 83 321 -15 197 -15 c 1
 115 -14 86 0 47 39 c 0
 18 69 8 95 8 116 c 0
 8 128 12 139 16 147 c 0
 26 167 43 181 63 181 c 0
 68 181 73 180 78 178 c 0
 99 172 117 157 117 136 c 0
 117 130 116 123 112 116 c 0
 99 91 75 102 72 93 c 0
 70 88 73 80 82 71 c 1
 82 71 87 39 171 39 c 0
EndSplineSet
EndChar

StartChar: afii10096
Encoding: 1102 1102 507
Width: 777
Flags: MW
LayerCount: 2
Fore
SplineSet
312 214 m 1
 203 214 l 1
 203 83 l 2
 203 43 214 36 279 36 c 2
 283 36 l 1
 283 0 l 1
 30 0 l 1
 30 36 l 1
 34 36 l 2
 98 36 109 43 109 83 c 2
 109 383 l 2
 109 423 98 430 34 430 c 2
 27 430 l 1
 27 466 l 1
 285 466 l 1
 285 430 l 1
 278 430 l 2
 214 430 203 423 203 383 c 2
 203 265 l 1
 203 265 241 266 273 266 c 0
 290 266 305 266 313 265 c 1
 326 389 416 481 529 481 c 0
 647 481 743 370 743 233 c 0
 743 95 647 -15 527 -15 c 0
 413 -15 320 86 312 214 c 1
529 438 m 0
 454 438 416 368 416 232 c 0
 416 100 455 28 527 28 c 0
 599 28 638 100 638 233 c 0
 638 365 599 438 529 438 c 0
EndSplineSet
EndChar

StartChar: afii10097
Encoding: 1103 1103 508
Width: 552
Flags: MW
LayerCount: 2
Fore
SplineSet
208 208 m 1
 77 223 59 266 59 331 c 0
 59 410 105 466 278 466 c 2
 535 466 l 1
 535 430 l 1
 517 430 l 2
 464 430 456 417 456 390 c 2
 456 372 l 1
 456 126 l 1
 456 108 l 1
 456 90 l 2
 456 70 462 53 517 53 c 2
 535 53 l 1
 535 0 l 1
 281 0 l 1
 281 53 l 1
 299 53 l 2
 354 53 360 70 360 90 c 2
 360 108 l 1
 360 126 l 1
 360 202 l 1
 332 202 l 1
 292 202 l 1
 264 192 259 176 259 149 c 0
 259 135 260 119 260 100 c 2
 260 93 l 1
 248 20 211 -10 132 -10 c 0
 50 -10 11 26 8 103 c 1
 50 103 l 1
 54 59 66 39 93 39 c 0
 116 39 142 39 143 95 c 0
 144 143 165 183 208 208 c 1
360 248 m 1
 360 378 l 2
 360 413 356 419 328 419 c 2
 321 419 l 2
 230 419 157 409 157 329 c 0
 157 257 234 248 333 248 c 2
 360 248 l 1
EndSplineSet
EndChar

StartChar: afii10099
Encoding: 1106 1106 511
Width: 663
Flags: MW
LayerCount: 2
Fore
SplineSet
310 367 m 2
 310 264 l 1
 338 264 l 2
 577 264 631 218 631 135 c 0
 631 56 565 0 392 0 c 2
 137 0 l 1
 137 36 l 1
 141 36 l 2
 205 36 216 43 216 83 c 2
 216 367 l 2
 216 394 216 422 174 422 c 2
 164 422 l 2
 82 422 66 386 57 296 c 1
 17 296 l 1
 26 466 l 1
 500 466 l 1
 509 296 l 1
 469 296 l 1
 460 386 444 422 362 422 c 2
 352 422 l 2
 310 422 310 394 310 367 c 2
310 218 m 1
 310 88 l 2
 310 53 314 47 342 47 c 2
 349 47 l 2
 412 47 441 52 472 62 c 0
 511 75 533 96 533 137 c 0
 533 179 508 191 461 206 c 1
 431 214 401 218 337 218 c 2
 310 218 l 1
EndSplineSet
EndChar

StartChar: afii10101
Encoding: 1108 1108 513
Width: 444
Flags: MW
LayerCount: 2
Fore
SplineSet
139 214 m 1
 145 111 195 46 269 46 c 0
 321 46 355 75 387 147 c 1
 426 132 l 1
 383 26 332 -15 243 -15 c 0
 119 -15 34 83 34 225 c 0
 34 374 127 481 257 481 c 0
 346 481 413 429 413 362 c 0
 413 322 387 294 352 294 c 0
 317 294 292 317 292 350 c 0
 292 367 296 377 312 396 c 0
 316 402 318 405 318 408 c 0
 318 424 292 438 262 438 c 0
 194 438 147 370 140 265 c 1
 268 265 l 1
 268 214 l 1
 139 214 l 1
EndSplineSet
EndChar

StartChar: afii10104
Encoding: 1111 1111 516
Width: 315
Flags: MW
LayerCount: 2
Fore
SplineSet
210 466 m 1
 210 123 l 1
 210 83 l 2
 210 43 221 36 286 36 c 2
 293 36 l 1
 293 0 l 1
 34 0 l 1
 34 36 l 1
 41 36 l 2
 105 36 116 43 116 83 c 2
 116 123 l 1
 116 362 l 2
 116 405 110 412 73 412 c 2
 22 412 l 1
 22 455 l 1
 210 466 l 1
EndSplineSet
Refer: 362 776 S 1 0 0 1 -9 0 2
EndChar

StartChar: afii10106
Encoding: 1113 1113 518
Width: 919
Flags: MW
LayerCount: 2
Fore
SplineSet
566 391 m 2
 566 264 l 1
 594 264 l 2
 833 264 887 218 887 135 c 0
 887 56 821 0 648 0 c 2
 392 0 l 1
 392 36 l 1
 407 36 l 2
 446 36 472 44 472 71 c 2
 472 90 l 1
 472 368 l 1
 472 373 l 2
 472 416 459 411 411 412 c 1
 384 412 l 2
 339 412 334 405 334 362 c 2
 334 318 l 2
 334 170 302 -8 161 -9 c 0
 127 -9 98 -6 78 14 c 0
 53 39 51 53 51 70 c 2
 51 84 l 2
 51 117 73 142 111 142 c 0
 140 142 157 128 163 113 c 0
 167 103 169 95 169 89 c 0
 169 80 165 73 158 64 c 0
 152 57 138 61 138 52 c 0
 138 42 136 38 158 38 c 0
 186 38 206 52 222 77 c 0
 255 130 258 203 258 284 c 2
 258 347 l 1
 258 368 l 1
 257 394 265 430 184 430 c 2
 166 430 l 1
 166 466 l 1
 649 466 l 1
 649 430 l 1
 631 430 l 2
 577 430 566 418 566 391 c 2
566 218 m 1
 566 88 l 2
 566 53 570 47 598 47 c 2
 605 47 l 2
 668 47 697 52 728 62 c 0
 767 75 789 96 789 137 c 0
 789 179 764 191 717 206 c 1
 687 214 657 218 593 218 c 2
 566 218 l 1
EndSplineSet
EndChar

StartChar: afii10107
Encoding: 1114 1114 519
Width: 870
Flags: MW
LayerCount: 2
Fore
SplineSet
517 383 m 2
 517 264 l 1
 545 264 l 2
 784 264 838 218 838 135 c 0
 838 56 772 0 599 0 c 2
 343 0 l 1
 343 36 l 1
 347 36 l 2
 412 36 423 43 423 83 c 2
 423 214 l 1
 203 214 l 1
 203 83 l 2
 203 43 214 36 279 36 c 2
 283 36 l 1
 283 0 l 1
 30 0 l 1
 30 36 l 1
 34 36 l 2
 98 36 109 43 109 83 c 2
 109 383 l 2
 109 423 98 430 34 430 c 2
 27 430 l 1
 27 466 l 1
 285 466 l 1
 285 430 l 1
 278 430 l 2
 214 430 203 423 203 383 c 2
 203 265 l 1
 423 265 l 1
 423 383 l 2
 423 423 412 430 347 430 c 2
 340 430 l 1
 340 466 l 1
 600 466 l 1
 600 430 l 1
 593 430 l 2
 528 430 517 423 517 383 c 2
517 218 m 1
 517 88 l 2
 517 53 521 47 549 47 c 2
 556 47 l 2
 619 47 648 52 679 62 c 0
 718 75 740 96 740 137 c 0
 740 179 715 191 668 206 c 1
 638 214 608 218 544 218 c 2
 517 218 l 1
EndSplineSet
EndChar

StartChar: afii10109
Encoding: 1116 1116 521
Width: 591
Flags: MW
LayerCount: 2
Fore
SplineSet
323 373 m 1
 323 375 l 2
 323 446 371 475 449 475 c 0
 515 475 527 463 547 423 c 0
 549 418 551 413 551 408 c 0
 551 391 537 374 519 368 c 0
 511 365 502 364 493 364 c 0
 468 364 444 376 444 400 c 0
 444 425 464 424 464 431 c 1
 464 431 463 432 463 433 c 0
 461 437 453 441 441 441 c 2
 440 441 l 2
 426 441 382 411 381 371 c 0
 380 292 357 250 293 235 c 1
 394 226 447 170 448 95 c 0
 449 39 475 39 498 39 c 0
 525 39 537 59 541 103 c 1
 583 103 l 1
 580 26 541 -10 459 -10 c 0
 380 -10 343 20 331 93 c 1
 331 98 l 2
 331 119 332 137 332 151 c 0
 332 198 317 213 190 213 c 1
 190 122 l 1
 190 104 l 2
 190 97 189 90 189 82 c 0
 189 59 196 35 252 35 c 2
 271 35 l 1
 271 0 l 1
 17 0 l 1
 17 35 l 1
 35 35 l 2
 90 35 99 53 99 72 c 0
 99 82 97 91 97 100 c 2
 97 118 l 1
 97 346 l 1
 97 365 l 1
 97 379 l 2
 97 404 92 431 35 431 c 2
 17 431 l 1
 17 466 l 1
 271 466 l 1
 271 431 l 1
 252 431 l 2
 197 431 190 408 190 385 c 0
 190 377 191 369 191 362 c 2
 191 343 l 1
 191 257 l 1
 200 257 l 2
 311 257 324 271 324 315 c 0
 324 328 323 344 323 363 c 2
 323 373 l 1
EndSplineSet
Refer: 356 769 S 1 0 0 1 41 -9 2
EndChar

StartChar: afii10193
Encoding: 1119 1119 524
Width: 611
Flags: MW
LayerCount: 2
Fore
SplineSet
276 53 m 2
 345 53 l 2
 417 53 421 60 421 100 c 2
 421 383 l 2
 421 423 410 430 345 430 c 2
 341 430 l 1
 341 466 l 1
 594 466 l 1
 594 430 l 1
 590 430 l 2
 526 430 515 423 515 383 c 2
 515 83 l 2
 515 43 526 36 590 36 c 2
 597 36 l 1
 597 0 l 1
 24 0 l 1
 24 36 l 1
 31 36 l 2
 96 36 107 43 107 83 c 2
 107 383 l 2
 107 423 96 430 32 430 c 2
 28 430 l 1
 28 466 l 1
 281 466 l 1
 281 430 l 1
 277 430 l 2
 212 430 201 423 201 383 c 2
 201 100 l 2
 201 60 203 53 276 53 c 2
EndSplineSet
EndChar

StartChar: uni048C
Encoding: 1164 1164 525
Width: 701
Flags: MW
HStem: 0 47<28 46 46 86.5 309 373 373 378 28 46> 354 47<248 361 361 369 248 361> 508 54<40 136 40 136 248 352> 675 47<28 46 28 364 297.5 338 338 364>
VStem: 526 123<160 237.5 160 253.5>
LayerCount: 2
Fore
SplineSet
526 202 m 0
 526 305 475 354 369 354 c 2
 248 354 l 1
 248 98 l 2
 248 52 254 47 309 47 c 2
 373 47 l 2
 477 47 526 96 526 202 c 0
649 198 m 0
 649 122 614 64 548 31 c 0
 509 11 447 0 378 0 c 2
 28 0 l 1
 28 47 l 1
 46 47 l 2
 127 47 136 52 136 94 c 2
 136 123 l 1
 136 508 l 1
 40 508 l 1
 40 562 l 1
 136 562 l 1
 136 599 l 1
 136 628 l 2
 136 670 127 675 46 675 c 2
 28 675 l 1
 28 722 l 1
 364 722 l 1
 364 675 l 1
 338 675 l 2
 257 675 248 670 248 628 c 2
 248 599 l 1
 248 562 l 1
 352 562 l 1
 352 508 l 1
 248 508 l 1
 248 401 l 1
 361 401 l 2
 451 401 498 394 538 375 c 0
 609 341 649 277 649 198 c 0
EndSplineSet
EndChar

StartChar: uni048D
Encoding: 1165 1165 526
Width: 555
Flags: MW
HStem: 0 36<27 45 45 71.5 27 284 27 45> 0 47<234 241 241 272.5 234 284> 218 46<202 229 202 230> 296 54<28 106 28 106 202 283> 413 53<27 45 27 281 227.5 263 263 281>
VStem: 106 96<76 88 88 94 94 218 264 296 350 358> 425 98<116.5 158>
LayerCount: 2
Fore
SplineSet
425 137 m 0x7e
 425 179 400 191 353 206 c 0
 323 214 293 218 229 218 c 2
 202 218 l 1
 202 88 l 2
 202 53 206 47 234 47 c 2
 241 47 l 2
 304 47 333 52 364 62 c 0
 403 75 425 96 425 137 c 0x7e
523 135 m 0
 523 56 457 0 284 0 c 2
 27 0 l 1
 27 36 l 1
 45 36 l 2x82
 98 36 106 49 106 76 c 2
 106 94 l 1
 106 296 l 1
 28 296 l 1
 28 350 l 1
 106 350 l 1
 106 358 l 2
 106 385 116 413 45 413 c 2
 27 413 l 1
 27 466 l 1
 281 466 l 1
 281 413 l 1
 263 413 l 2
 192 413 202 385 202 358 c 2
 202 350 l 1
 283 350 l 1
 283 296 l 1
 202 296 l 1
 202 264 l 1
 230 264 l 2
 469 264 523 218 523 135 c 0
EndSplineSet
EndChar

StartChar: uni048E
Encoding: 1166 1166 527
Width: 667
Flags: MW
HStem: 0 47<28 46 46 86.5 338 364 28 46> 321 47<248 361 248 369> 675 47<28 46 28 378 281.5 309 309 373>
VStem: 526 123<496.5 562 487 573>
LayerCount: 2
Fore
SplineSet
526 520 m 0
 526 626 477 675 373 675 c 2
 309 675 l 2
 254 675 248 670 248 624 c 2
 248 368 l 1
 369 368 l 2
 400 368 426 372 448 381 c 1
 368 461 l 1
 406 499 l 1
 493 412 l 1
 515 437 526 473 526 520 c 0
649 524 m 0
 649 450 614 389 551 354 c 1
 628 277 l 1
 590 239 l 1
 496 332 l 1
 464 324 422 321 361 321 c 2
 248 321 l 1
 248 123 l 1
 248 94 l 2
 248 52 257 47 338 47 c 2
 364 47 l 1
 364 0 l 1
 28 0 l 1
 28 47 l 1
 46 47 l 2
 127 47 136 52 136 94 c 2
 136 123 l 1
 136 599 l 1
 136 628 l 2
 136 670 127 675 46 675 c 2
 28 675 l 1
 28 722 l 1
 378 722 l 2
 447 722 509 711 548 691 c 0
 614 658 649 600 649 524 c 0
EndSplineSet
EndChar

StartChar: uni048F
Encoding: 1167 1167 528
Width: 574
Flags: MW
HStem: -202 36<28 32 32 64 277 288 28 32> -15 54<302.5 325 282.5 345.5> 427 54<308 355.5>
VStem: 107 94<-119 -79 -79 66> 430 105<206.5 299.5>
LayerCount: 2
Fore
SplineSet
430 241 m 0
 430 358 390 427 321 427 c 0
 245 427 200 352 200 228 c 0
 200 113 247 39 318 39 c 0
 332 39 345 42 356 47 c 1
 273 131 l 1
 311 169 l 1
 396 84 l 1
 418 118 430 172 430 241 c 0
535 235 m 0
 535 147 503 73 451 29 c 1
 533 -53 l 1
 495 -91 l 1
 404 0 l 1
 382 -10 358 -15 333 -15 c 0
 272 -15 234 8 201 66 c 1
 201 -79 l 1
 201 -119 l 2
 201 -159 212 -166 277 -166 c 2
 288 -166 l 1
 288 -202 l 1
 28 -202 l 1
 28 -166 l 1
 32 -166 l 2
 96 -166 107 -159 107 -119 c 2
 107 -79 l 1
 107 362 l 2
 107 405 101 412 64 412 c 2
 28 412 l 1
 28 455 l 1
 201 466 l 1
 201 395 l 1
 236 455 277 481 339 481 c 0
 449 481 535 373 535 235 c 0
EndSplineSet
EndChar

StartChar: afii10050
Encoding: 1168 1168 529
Width: 664
Flags: MW
HStem: 0 47<29 47 47 87.5 339 372 29 47> 675 47<29 47 29 358 285 312 312 358 358 440.5>
VStem: 137 112<94 123 123 599 599 625>
LayerCount: 2
Fore
SplineSet
638 931 m 1
 624 675 l 1
 312 675 l 2
 258 675 249 668 249 625 c 2
 249 123 l 1
 249 94 l 2
 249 52 258 47 339 47 c 2
 372 47 l 1
 372 0 l 1
 29 0 l 1
 29 47 l 1
 47 47 l 2
 128 47 137 52 137 94 c 2
 137 123 l 1
 137 599 l 1
 137 628 l 2
 137 670 128 675 47 675 c 2
 29 675 l 1
 29 722 l 1
 358 722 l 2
 523 722 566 760 594 931 c 1
 638 931 l 1
EndSplineSet
EndChar

StartChar: afii10098
Encoding: 1169 1169 530
Width: 462
Flags: MW
HStem: 0 36<25 29 29 61 274 278 25 29> 422 44<219 240 240 279 279 320 22 437> 430 36<22 29 22 279>
VStem: 104 94<83 367>
LayerCount: 2
Fore
SplineSet
446 592 m 1x40
 437 422 l 1
 240 422 l 2x40
 198 422 198 394 198 367 c 2
 198 83 l 2
 198 43 209 36 274 36 c 2
 278 36 l 1
 278 0 l 1
 25 0 l 1
 25 36 l 1
 29 36 l 2
 93 36 104 43 104 83 c 2
 104 383 l 2
 104 423 93 430 29 430 c 2
 22 430 l 1xb0
 22 466 l 1
 279 466 l 2
 361 466 397 502 406 592 c 1
 446 592 l 1x40
EndSplineSet
EndChar

StartChar: uni0492
Encoding: 1170 1170 531
Width: 667
Flags: MW
HStem: 0 47<29 47 47 87.5 339 372 29 47> 446 54<38 137 38 137 249 350> 675 47<29 47 29 624 285 312 312 358>
LayerCount: 2
Fore
SplineSet
638 466 m 1
 594 466 l 1
 566 637 523 675 358 675 c 2
 312 675 l 2
 258 675 249 668 249 625 c 2
 249 500 l 1
 350 500 l 1
 350 446 l 1
 249 446 l 1
 249 123 l 1
 249 94 l 2
 249 52 258 47 339 47 c 2
 372 47 l 1
 372 0 l 1
 29 0 l 1
 29 47 l 1
 47 47 l 2
 128 47 137 52 137 94 c 2
 137 123 l 1
 137 446 l 1
 38 446 l 1
 38 500 l 1
 137 500 l 1
 137 599 l 1
 137 628 l 2
 137 670 128 675 47 675 c 2
 29 675 l 1
 29 722 l 1
 624 722 l 1
 638 466 l 1
EndSplineSet
EndChar

StartChar: uni0493
Encoding: 1171 1171 532
Width: 458
Flags: MW
HStem: 0 36<25 29 29 61 274 278 25 29> 240 54<22 104 22 104 198 305> 422 44<219 240 240 279> 430 36<22 29 22 437>
VStem: 104 94<83 240 294 367>
LayerCount: 2
Fore
SplineSet
446 296 m 1x20
 406 296 l 1
 397 386 361 422 279 422 c 2
 240 422 l 2x20
 198 422 198 394 198 367 c 2
 198 294 l 1
 305 294 l 1
 305 240 l 1
 198 240 l 1
 198 83 l 2
 198 43 209 36 274 36 c 2
 278 36 l 1
 278 0 l 1
 25 0 l 1
 25 36 l 1
 29 36 l 2
 93 36 104 43 104 83 c 2
 104 240 l 1
 22 240 l 1
 22 294 l 1
 104 294 l 1
 104 383 l 2
 104 423 93 430 29 430 c 2
 22 430 l 1xd8
 22 466 l 1
 437 466 l 1
 446 296 l 1x20
EndSplineSet
EndChar

StartChar: uni0494
Encoding: 1172 1172 533
Width: 667
Flags: MW
HStem: 0 47<29 47 47 87.5 339 372 29 47> 353 63<383.5 455.5> 466 21G<594 638 594 594> 675 47<29 47 29 624 285 312 312 358>
VStem: 137 112<94 123 123 276 342 599 599 625>
LayerCount: 2
Fore
SplineSet
649 94 m 2
 649 15 609 -49 538 -83 c 0
 498 -102 440 -109 380 -109 c 1
 380 -58 l 1
 486 -58 537 -9 537 94 c 2
 537 249 l 2
 537 287 490 353 421 353 c 0
 346 353 322 335 249 276 c 1
 249 123 l 1
 249 94 l 2
 249 52 258 47 339 47 c 2
 372 47 l 1
 372 0 l 1
 29 0 l 1
 29 47 l 1
 47 47 l 2
 128 47 137 52 137 94 c 2
 137 123 l 1
 137 599 l 1
 137 628 l 2
 137 670 128 675 47 675 c 2
 29 675 l 1
 29 722 l 1
 624 722 l 1
 638 466 l 1
 594 466 l 1
 566 637 523 675 358 675 c 2
 312 675 l 2
 258 675 249 668 249 625 c 2
 249 342 l 1
 312 390 342 416 416 416 c 0
 556 416 649 344 649 261 c 2
 649 94 l 2
EndSplineSet
EndChar

StartChar: uni0495
Encoding: 1173 1173 534
Width: 537
Flags: MW
HStem: 0 36<25 29 29 61 274 278 25 29> 210 61<324 338> 422 44<219 240 240 279> 430 36<22 29 22 437>
VStem: 104 94<83 97 63 174 174 367> 418 94<42 70 0.5 74 0.5 98.5>
LayerCount: 2
Fore
SplineSet
512 42 m 2x6c
 512 -41 472 -101 401 -135 c 0
 361 -154 321 -161 261 -161 c 1
 261 -110 l 1
 367 -110 418 -61 418 42 c 2
 418 74 l 2
 418 123 411 153 396 175 c 0
 381 195 351 210 325 210 c 0
 282 210 242 178 216 145 c 0
 200 125 198 114 198 97 c 2
 198 83 l 2
 198 43 209 36 274 36 c 2
 278 36 l 1
 278 0 l 1
 25 0 l 1
 25 36 l 1
 29 36 l 2
 93 36 104 43 104 83 c 2
 104 383 l 2
 104 423 93 430 29 430 c 2
 22 430 l 1xdc
 22 466 l 1
 437 466 l 1
 446 296 l 1
 406 296 l 1
 397 386 361 422 279 422 c 2
 240 422 l 2
 198 422 198 394 198 367 c 2
 198 174 l 1
 243 241 292 271 356 271 c 0
 416 271 466 242 491 194 c 0
 509 160 512 142 512 70 c 2
 512 42 l 2x6c
EndSplineSet
EndChar

StartChar: uni0496
Encoding: 1174 1174 535
Width: 1036
Flags: MW
HStem: -15 76<88 101.5 76.5 168.5> 0 47<346 364 364 404.5 656 675 346 364> 675 47<346 364 346 675 615.5 656 656 675> 684 52<141 152.5 866 879.5>
VStem: 140 125<103.5 210> 207 58<517 607> 755 58<515.5 607 515.5 632.5> 755 125<103.5 207 103.5 216> 912 46<-40 -7.5> 931 57<-84 -56>
LayerCount: 2
Fore
SplineSet
1015 160 m 1x81
 1013 82 996 32 962 6 c 1
 962 6 958 -4 958 -11 c 0x0080
 958 -36 988 -30 988 -76 c 0
 988 -118 902 -160 842 -198 c 1
 814 -162 l 1
 814 -162 931 -105 931 -63 c 0x0040
 931 -49 912 -50 912 -30 c 0
 912 -23 913 -17 914 -13 c 1
 907 -14 899 -15 891 -15 c 0x8080
 812 -15 755 30 755 144 c 0
 755 288 736 333 566 334 c 1
 566 94 l 2
 566 52 575 47 656 47 c 2
 675 47 l 1
 675 0 l 1
 346 0 l 1
 346 47 l 1
 364 47 l 2x42
 445 47 454 52 454 94 c 2
 454 334 l 1
 284 333 265 285 265 144 c 0
 265 30 208 -15 129 -15 c 0
 47 -15 8 40 5 160 c 1
 47 160 l 1
 51 91 63 61 90 61 c 0
 113 61 140 60 140 147 c 0x88
 140 273 194 351 295 364 c 1
 231 388 207 459 207 575 c 0
 207 639 158 684 147 684 c 0
 135 684 125 677 125 672 c 0
 125 658 151 664 151 620 c 0
 151 588 120 567 88 567 c 0
 49 567 23 598 23 633 c 0
 23 691 67 736 139 736 c 0x14
 218 736 265 696 265 578 c 0
 265 434 294 388 454 389 c 1
 454 628 l 2
 454 670 445 675 364 675 c 2
 346 675 l 1
 346 722 l 1
 675 722 l 1
 675 675 l 1
 656 675 l 2x24
 575 675 566 670 566 628 c 2
 566 389 l 1
 726 388 755 434 755 578 c 0
 755 687 802 736 881 736 c 0
 954 736 997 691 997 633 c 0
 997 599 972 567 932 567 c 0
 900 567 869 588 869 620 c 0
 869 664 895 659 895 672 c 0
 895 677 886 684 873 684 c 0
 859 684 813 639 813 575 c 0x12
 813 456 789 388 725 364 c 1
 826 351 880 267 880 147 c 0
 880 60 907 61 930 61 c 0
 957 61 969 91 973 160 c 1
 1015 160 l 1x81
EndSplineSet
EndChar

StartChar: uni0497
Encoding: 1175 1175 536
Width: 864
Flags: MW
HStem: 213 44<330.5 385 330.5 386 479 533.5> 441 34<142.5 162.5 701.5 721.5>
VStem: 46 97<396.5 412.5> 385 94<257 365 257 378.5> 721 97<396.5 412.5>
LayerCount: 2
Fore
SplineSet
856 103 m 1
 854 61 842 31 817 12 c 1
 817 12 813 2 813 -5 c 0
 813 -30 843 -24 843 -70 c 0
 843 -112 757 -154 697 -192 c 1
 669 -156 l 1
 669 -156 786 -99 786 -57 c 0
 786 -43 767 -44 767 -24 c 0
 767 -17 768 -10 769 -7 c 1
 758 -9 745 -10 732 -10 c 0
 653 -10 605 26 605 103 c 0
 605 200 592 213 478 213 c 1
 478 100 l 2
 478 72 473 35 541 35 c 2
 559 35 l 1
 559 0 l 1
 305 0 l 1
 305 35 l 1
 323 35 l 2
 391 35 386 72 386 100 c 2
 386 213 l 1
 272 213 259 200 259 103 c 0
 259 26 211 -10 132 -10 c 0
 50 -10 11 26 8 103 c 1
 50 103 l 1
 54 59 71 39 93 39 c 0
 129 39 143 51 143 95 c 0
 143 170 197 226 298 235 c 1
 234 250 210 302 210 371 c 0
 210 412 175 441 150 441 c 0
 135 441 127 439 127 431 c 0
 127 423 143 425 143 400 c 0
 143 375 123 364 97 364 c 0
 65 364 46 384 46 409 c 0
 46 448 79 475 142 475 c 0
 221 475 259 426 259 373 c 0
 259 280 276 257 385 257 c 1
 385 365 l 2
 385 392 392 431 323 431 c 2
 305 431 l 1
 305 466 l 1
 559 466 l 1
 559 431 l 1
 541 431 l 2
 472 431 479 392 479 365 c 2
 479 257 l 1
 588 257 605 280 605 373 c 0
 605 426 643 475 722 475 c 0
 785 475 818 448 818 409 c 0
 818 384 799 364 767 364 c 0
 741 364 721 375 721 400 c 0
 721 425 737 423 737 431 c 0
 737 439 729 441 714 441 c 0
 689 441 654 412 654 371 c 0
 654 302 630 250 566 235 c 1
 667 226 721 170 721 95 c 0
 721 51 735 39 771 39 c 0
 793 39 810 59 814 103 c 1
 856 103 l 1
EndSplineSet
EndChar

StartChar: uni0498
Encoding: 1176 1176 537
Width: 608
Flags: MW
HStem: -152 41<247 257 235 286> 357 53<200 298 200 298> 468 21G<32 75 32 32> 687 50<248.5 307.5>
VStem: 5 140<212.5 245> 286 50<-79 -70.5 -103.5 -57.5> 423 102<525 607.5 513 608> 439 117<155 235.5 142 249>
LayerCount: 2
Fore
SplineSet
556 205 m 0x72
 556 79 440 -5 304 -15 c 1
 326 -35 336 -57 336 -84 c 0
 336 -123 306 -152 266 -152 c 0
 228 -152 199 -137 158 -95 c 1
 174 -74 l 1
 202 -100 224 -111 246 -111 c 0
 268 -111 286 -91 286 -67 c 0
 286 -48 276 -28 262 -16 c 1
 130 -9 5 76 5 226 c 0
 5 264 28 292 75 292 c 0
 117 292 145 270 145 230 c 0
 145 195 129 182 113 174 c 0
 97 166 87 162 87 149 c 0
 87 118 173 41 274 41 c 0
 364 41 439 110 439 200 c 0x8d
 439 298 356 356 298 357 c 2
 200 357 l 1
 200 410 l 1
 298 410 l 2
 388 410 423 486 423 564 c 0
 423 652 332 687 283 687 c 0
 210 687 175 659 135 602 c 0
 106 561 88 519 75 468 c 1
 32 468 l 1
 44 728 l 1
 81 728 l 1
 121 668 l 1
 168 713 213 737 284 737 c 0
 415 737 525 670 525 545 c 0
 525 481 476 398 420 384 c 1
 528 384 556 266 556 205 c 0x72
EndSplineSet
EndChar

StartChar: uni0499
Encoding: 1177 1177 538
Width: 333
Flags: MW
HStem: -152 41<157 167 145 196> 218 48<140 180 180 182 140 180> 437 44<175 218>
VStem: 10 108<114.5 138.5> 196 50<-79 -70.5 -103.5 -56.5> 282 69<329 374> 289 91<96.5 151.5>
LayerCount: 2
Fore
SplineSet
380 139 m 0x64
 380 50 314 -10 213 -15 c 1
 236 -35 246 -57 246 -84 c 0
 246 -123 216 -152 176 -152 c 0
 138 -152 109 -137 68 -95 c 1
 84 -74 l 1
 112 -100 134 -111 156 -111 c 0
 178 -111 196 -91 196 -67 c 0
 196 -46 185 -26 169 -14 c 1
 69 -4 10 53 10 116 c 0
 10 161 36 181 65 181 c 0
 90 181 118 168 118 136 c 0
 118 93 73 103 73 90 c 0
 73 85 77 78 84 71 c 2
 84 71 108 28 192 28 c 0
 232 28 289 60 289 133 c 0x9a
 289 170 263 218 182 218 c 2
 140 218 l 1
 140 266 l 1
 180 266 l 2
 262 266 282 306 282 352 c 0
 282 396 246 437 190 437 c 0
 156 437 133 426 108 397 c 0
 88 374 79 355 63 309 c 1
 28 309 l 1
 28 477 l 1
 63 477 l 1
 92 441 l 1
 128 469 150 481 200 481 c 0
 288 481 351 435 351 348 c 0
 351 283 318 259 308 252 c 1
 321 250 329 245 335 240 c 0
 363 217 380 183 380 139 c 0x64
EndSplineSet
EndChar

StartChar: uni049A
Encoding: 1178 1178 539
Width: 755
Flags: MW
HStem: -15 76<570.5 662.5> 0 47<30 48 48 88.5 340 359 30 48> 675 47<30 48 30 359 299.5 340 340 359> 684 52<585.5 599>
VStem: 138 112<94 334 389 628> 474 58<514.5 607 514.5 635> 474 125<103.5 206.5 103.5 217> 631 46<-40 -7.5> 650 57<-84 -56>
LayerCount: 2
Fore
SplineSet
734 160 m 1x82
 732 82 715 32 681 6 c 1
 681 6 677 -4 677 -11 c 0x01
 677 -36 707 -30 707 -76 c 0
 707 -118 621 -160 561 -198 c 1
 533 -162 l 1
 533 -162 650 -105 650 -63 c 0x0080
 650 -49 631 -50 631 -30 c 0
 631 -23 632 -17 633 -13 c 1
 626 -14 618 -15 610 -15 c 0x81
 531 -15 474 30 474 144 c 0
 474 290 420 333 250 334 c 1
 250 94 l 2
 250 52 259 47 340 47 c 2
 359 47 l 1
 359 0 l 1
 30 0 l 1
 30 47 l 1
 48 47 l 2
 129 47 138 52 138 94 c 2
 138 628 l 2
 138 670 129 675 48 675 c 2
 30 675 l 1
 30 722 l 1
 359 722 l 1
 359 675 l 1
 340 675 l 2x6c
 259 675 250 670 250 628 c 2
 250 389 l 1
 414 389 474 434 474 578 c 0
 474 692 521 736 600 736 c 0
 673 736 716 691 716 633 c 0
 716 599 691 567 651 567 c 0
 619 567 588 588 588 620 c 0
 588 661 612 657 612 671 c 0
 612 679 606 684 592 684 c 0
 579 684 532 639 532 575 c 0x1c
 532 454 508 388 444 364 c 1
 545 351 599 266 599 147 c 0
 599 60 626 61 649 61 c 0
 676 61 688 91 692 160 c 1
 734 160 l 1x82
EndSplineSet
EndChar

StartChar: uni049B
Encoding: 1179 1179 540
Width: 591
Flags: MW
HStem: -10 49<432.5 524.5> 0 36<30 34 34 66 279 283 30 34> 213 44<203 258.5 203 268.5> 430 36<27 34 27 285 246 278 278 285> 441 34<444 463>
VStem: 109 94<83 213 257 383> 343 51<331.5 391.5 331.5 404.5> 343 118<73.5 132.5 73.5 139.5> 457 100<397 414> 507 46<-34 -1.5> 526 57<-78 -50>
LayerCount: 2
Fore
SplineSet
596 103 m 1x81
 594 60 581 30 557 12 c 1x0080
 557 12 553 2 553 -5 c 0x0040
 553 -30 583 -24 583 -70 c 0
 583 -112 497 -154 437 -192 c 1
 409 -156 l 1
 409 -156 526 -99 526 -57 c 0x0020
 526 -43 507 -44 507 -24 c 0
 507 -17 508 -10 509 -7 c 1
 498 -9 485 -10 472 -10 c 0x8040
 393 -10 343 22 343 93 c 0
 343 186 334 213 203 213 c 1
 203 83 l 2
 203 43 214 36 279 36 c 2
 283 36 l 1
 283 0 l 1
 30 0 l 1
 30 36 l 1
 34 36 l 2
 98 36 109 43 109 83 c 2
 109 383 l 2
 109 423 98 430 34 430 c 2
 27 430 l 1
 27 466 l 1
 285 466 l 1
 285 430 l 1
 278 430 l 2x76
 214 430 203 423 203 383 c 2
 203 257 l 1
 314 257 343 270 343 373 c 0
 343 436 378 475 457 475 c 0
 521 475 557 448 557 410 c 0
 557 384 538 364 506 364 c 0
 481 364 457 376 457 400 c 0
 457 428 476 421 476 432 c 0
 476 436 472 441 454 441 c 0
 434 441 394 412 394 371 c 0x2e80
 394 292 374 244 306 235 c 1
 407 226 461 170 461 95 c 0
 461 52 488 39 511 39 c 0
 538 39 550 59 554 103 c 1
 596 103 l 1x81
EndSplineSet
EndChar

StartChar: uni049C
Encoding: 1180 1180 541
Width: 755
Flags: MW
HStem: -15 76<637.5 651> 0 47<30 48 48 88.5 340 359 30 48> 334 55<250 261> 675 47<30 48 30 359 299.5 340 340 359> 684 52<585.5 599>
VStem: 138 112<94 334 389 628> 310 54<208 323 208 331 208 331 401 521>
LayerCount: 2
Fore
SplineSet
734 160 m 1xae
 731 40 692 -15 610 -15 c 0x80
 531 -15 474 30 474 144 c 0
 474 250 445 302 364 323 c 1
 364 208 l 1
 310 208 l 1
 310 331 l 1
 292 333 272 334 250 334 c 1
 250 94 l 2
 250 52 259 47 340 47 c 2
 359 47 l 1
 359 0 l 1
 30 0 l 1
 30 47 l 1
 48 47 l 2
 129 47 138 52 138 94 c 2
 138 628 l 2
 138 670 129 675 48 675 c 2
 30 675 l 1
 30 722 l 1
 359 722 l 1
 359 675 l 1
 340 675 l 2x76
 259 675 250 670 250 628 c 2
 250 389 l 1
 272 389 292 390 310 392 c 1
 310 521 l 1
 364 521 l 1
 364 401 l 1
 443 422 474 474 474 578 c 0
 474 692 521 736 600 736 c 0
 673 736 716 691 716 633 c 0
 716 599 691 567 651 567 c 0
 619 567 588 588 588 620 c 0
 588 661 612 657 612 671 c 0
 612 679 606 684 592 684 c 0
 579 684 533 639 532 575 c 0
 531 453 508 388 444 364 c 1
 545 351 598 264 599 147 c 0
 600 60 626 61 649 61 c 0
 676 61 688 91 692 160 c 1
 734 160 l 1xae
EndSplineSet
EndChar

StartChar: uni049D
Encoding: 1181 1181 542
Width: 591
Flags: MW
HStem: -10 49<499.5 513> 0 36<30 34 34 66 279 283 30 34> 213 44<203 210> 430 36<27 34 27 285 246 278 278 285> 441 34<444 463>
VStem: 109 94<83 213 257 383> 240 54<105 204 105 212 105 212 266 358> 343 51<340 391.5 331.5 404.5> 344 117<73.5 125> 457 100<397 414>
LayerCount: 2
Fore
SplineSet
596 103 m 1x8080
 593 26 554 -10 472 -10 c 0x80
 393 -10 344 22 344 93 c 0
 344 157 339 190 294 204 c 1
 294 105 l 1
 240 105 l 1
 240 212 l 1
 229 213 217 213 203 213 c 1
 203 83 l 2
 203 43 214 36 279 36 c 2
 283 36 l 1
 283 0 l 1
 30 0 l 1
 30 36 l 1
 34 36 l 2
 98 36 109 43 109 83 c 2
 109 383 l 2
 109 423 98 430 34 430 c 2
 27 430 l 1
 27 466 l 1
 285 466 l 1
 285 430 l 1
 278 430 l 2x7680
 214 430 203 423 203 383 c 2
 203 257 l 1
 217 257 229 257 240 258 c 1
 240 358 l 1
 294 358 l 1
 294 266 l 1
 331 278 343 307 343 373 c 0
 343 436 378 475 457 475 c 0
 521 475 557 448 557 410 c 0
 557 384 538 364 506 364 c 0
 481 364 457 376 457 400 c 0
 457 428 476 421 476 432 c 0
 476 436 472 441 454 441 c 0
 434 441 394 412 394 371 c 0x2f40
 394 292 374 244 306 235 c 1
 407 226 461 170 461 95 c 0
 461 52 488 39 511 39 c 0
 538 39 550 59 554 103 c 1
 596 103 l 1x8080
EndSplineSet
EndChar

StartChar: uni049E
Encoding: 1182 1182 543
Width: 755
Flags: MW
HStem: -15 76<637.5 651> 0 47<30 48 48 88.5 340 359 30 48> 540 54<41 138 41 138 250 354> 675 47<30 48 30 359 299.5 340 340 359> 684 52<585.5 599>
LayerCount: 2
Fore
SplineSet
734 160 m 1xa8
 731 40 692 -15 610 -15 c 0x80
 531 -15 474 30 474 144 c 0
 474 290 420 333 250 334 c 1
 250 94 l 2
 250 52 259 47 340 47 c 2
 359 47 l 1
 359 0 l 1
 30 0 l 1
 30 47 l 1
 48 47 l 2
 129 47 138 52 138 94 c 2
 138 540 l 1
 41 540 l 1
 41 594 l 1
 138 594 l 1
 138 628 l 2
 138 670 129 675 48 675 c 2
 30 675 l 1
 30 722 l 1
 359 722 l 1
 359 675 l 1
 340 675 l 2x70
 259 675 250 670 250 628 c 2
 250 594 l 1
 354 594 l 1
 354 540 l 1
 250 540 l 1
 250 389 l 1
 414 389 474 434 474 578 c 0
 474 692 521 736 600 736 c 0
 673 736 716 691 716 633 c 0
 716 599 691 567 651 567 c 0
 619 567 588 588 588 620 c 0
 588 661 612 657 612 671 c 0
 612 679 606 684 592 684 c 0
 579 684 533 639 532 575 c 0
 531 453 508 388 444 364 c 1
 545 351 598 264 599 147 c 0
 600 60 626 61 649 61 c 0
 676 61 688 91 692 160 c 1
 734 160 l 1xa8
EndSplineSet
EndChar

StartChar: uni049F
Encoding: 1183 1183 544
Width: 591
Flags: MW
HStem: -10 49<499.5 513> 0 36<30 34 34 66 279 283 30 34> 213 44<203 258.5 203 268.5> 322 54<32 109 32 109 203 285> 430 36<27 34 27 285 246 278 278 285> 441 34<444 463>
VStem: 109 94<83 213 257 322 376 383> 343 51<331.5 391.5 331.5 404.5> 344 117<73.5 132.5 73.5 139.5> 457 100<397 414>
LayerCount: 2
Fore
SplineSet
596 103 m 1x8080
 593 26 554 -10 472 -10 c 0x80
 393 -10 344 22 344 93 c 0
 344 186 334 213 203 213 c 1
 203 83 l 2
 203 43 214 36 279 36 c 2
 283 36 l 1
 283 0 l 1
 30 0 l 1
 30 36 l 1
 34 36 l 2
 98 36 109 43 109 83 c 2
 109 322 l 1
 32 322 l 1
 32 376 l 1
 109 376 l 1
 109 383 l 2
 109 423 98 430 34 430 c 2
 27 430 l 1
 27 466 l 1
 285 466 l 1
 285 430 l 1
 278 430 l 2x7a80
 214 430 203 423 203 383 c 2
 203 376 l 1
 285 376 l 1
 285 322 l 1
 203 322 l 1
 203 257 l 1
 314 257 343 270 343 373 c 0
 343 436 378 475 457 475 c 0
 521 475 557 448 557 410 c 0
 557 384 538 364 506 364 c 0
 481 364 457 376 457 400 c 0
 457 428 476 421 476 432 c 0
 476 436 472 441 454 441 c 0
 434 441 394 412 394 371 c 0x3740
 394 292 374 244 306 235 c 1
 407 226 461 170 461 95 c 0
 461 52 488 39 511 39 c 0
 538 39 550 59 554 103 c 1
 596 103 l 1x8080
EndSplineSet
EndChar

StartChar: uni04A0
Encoding: 1184 1184 545
Width: 935
Flags: MW
HStem: -15 76<817.5 831> 0 47<210 228 228 268.5 520 539 210 228> 466 21G<19 63 19 19> 675 47<139 187 187 228 479.5 520 520 539> 684 52<765.5 779>
VStem: 318 112<94 334 389 628>
LayerCount: 2
Fore
SplineSet
914 160 m 1x8c
 911 40 872 -15 790 -15 c 0x80
 711 -15 654 30 654 144 c 0
 654 290 600 333 430 334 c 1
 430 94 l 2
 430 52 439 47 520 47 c 2
 539 47 l 1
 539 0 l 1
 210 0 l 1
 210 47 l 1
 228 47 l 2
 309 47 318 52 318 94 c 2
 318 628 l 2
 318 670 309 675 228 675 c 2
 187 675 l 2
 91 675 76 644 63 466 c 1
 19 466 l 1
 33 722 l 1
 539 722 l 1
 539 675 l 1
 520 675 l 2x74
 439 675 430 670 430 628 c 2
 430 389 l 1
 594 389 654 434 654 578 c 0
 654 692 701 736 780 736 c 0
 853 736 896 691 896 633 c 0
 896 599 871 567 831 567 c 0
 799 567 768 588 768 620 c 0
 768 661 792 657 792 671 c 0
 792 679 786 684 772 684 c 0
 759 684 713 639 712 575 c 0
 711 453 688 388 624 364 c 1
 725 351 778 264 779 147 c 0
 780 60 806 61 829 61 c 0
 856 61 868 91 872 160 c 1
 914 160 l 1x8c
EndSplineSet
EndChar

StartChar: uni04A1
Encoding: 1185 1185 546
Width: 721
Flags: MW
HStem: -10 49<629.5 643> 0 36<160 164 164 196 409 413 160 164> 213 44<333 388.5 333 398.5> 422 44<146 187 187 197> 430 36<376 408 408 415> 441 34<574 593>
VStem: 239 94<83 213 257 367 367 380.5> 473 51<331.5 391.5 331.5 404.5> 474 117<73.5 132.5 73.5 139.5> 587 100<397 414>
LayerCount: 2
Fore
SplineSet
726 103 m 1x8080
 723 26 684 -10 602 -10 c 0x80
 523 -10 474 22 474 93 c 0
 474 186 464 213 333 213 c 1
 333 83 l 2
 333 43 344 36 409 36 c 2
 413 36 l 1
 413 0 l 1
 160 0 l 1
 160 36 l 1
 164 36 l 2
 228 36 239 43 239 83 c 2
 239 367 l 2
 239 394 239 422 197 422 c 2
 187 422 l 2x7280
 105 422 69 386 60 296 c 1
 20 296 l 1
 29 466 l 1
 415 466 l 1
 415 430 l 1
 408 430 l 2x08
 344 430 333 423 333 383 c 2
 333 257 l 1
 444 257 473 270 473 373 c 0
 473 436 508 475 587 475 c 0
 651 475 687 448 687 410 c 0
 687 384 668 364 636 364 c 0
 611 364 587 376 587 400 c 0
 587 428 606 421 606 432 c 0
 606 436 602 441 584 441 c 0
 564 441 524 412 524 371 c 0x2740
 524 292 504 244 436 235 c 1
 537 226 591 170 591 95 c 0
 591 52 618 39 641 39 c 0
 668 39 680 59 684 103 c 1
 726 103 l 1x8080
EndSplineSet
EndChar

StartChar: uni04A2
Encoding: 1186 1186 547
Width: 833
Flags: MW
HStem: 0 47<29 47 47 87.5 339 358 29 47 476 494 494 534.5> 347 54<249 584 249 584> 675 47<29 47 29 358 298.5 339 339 358 480 494 745.5 786 786 804>
VStem: 137 112<94 347 401 628> 584 112<94 347 347 347 401 628>
LayerCount: 2
Fore
SplineSet
813 -190 m 1
 769 -190 l 1
 741 -19 729 0 564 0 c 2
 476 0 l 1
 476 47 l 1
 494 47 l 2
 575 47 584 52 584 94 c 2
 584 347 l 1
 249 347 l 1
 249 94 l 2
 249 52 258 47 339 47 c 2
 358 47 l 1
 358 0 l 1
 29 0 l 1
 29 47 l 1
 47 47 l 2
 128 47 137 52 137 94 c 2
 137 628 l 2
 137 670 128 675 47 675 c 2
 29 675 l 1
 29 722 l 1
 358 722 l 1
 358 675 l 1
 339 675 l 2
 258 675 249 670 249 628 c 2
 249 401 l 1
 584 401 l 1
 584 628 l 2
 584 670 575 675 494 675 c 2
 480 675 l 1
 480 722 l 1
 804 722 l 1
 804 675 l 1
 786 675 l 2
 705 675 696 670 696 628 c 2
 696 94 l 2
 696 52 705 47 786 47 c 2
 804 47 l 1
 813 -190 l 1
EndSplineSet
EndChar

StartChar: uni04A3
Encoding: 1187 1187 548
Width: 617
Flags: MW
HStem: 0 36<30 34 34 66 279 283 30 34 343 347 347 379.5> 214 51<203 423 203 423> 430 36<27 34 27 285 246 278 278 285 340 347 560.5 593 593 600>
VStem: 109 94<83 214 265 383> 423 94<83 214 214 214 265 383>
LayerCount: 2
Fore
SplineSet
605 -126 m 1
 565 -126 l 1
 556 -36 520 0 438 0 c 2
 343 0 l 1
 343 36 l 1
 347 36 l 2
 412 36 423 43 423 83 c 2
 423 214 l 1
 203 214 l 1
 203 83 l 2
 203 43 214 36 279 36 c 2
 283 36 l 1
 283 0 l 1
 30 0 l 1
 30 36 l 1
 34 36 l 2
 98 36 109 43 109 83 c 2
 109 383 l 2
 109 423 98 430 34 430 c 2
 27 430 l 1
 27 466 l 1
 285 466 l 1
 285 430 l 1
 278 430 l 2
 214 430 203 423 203 383 c 2
 203 265 l 1
 423 265 l 1
 423 383 l 2
 423 423 412 430 347 430 c 2
 340 430 l 1
 340 466 l 1
 600 466 l 1
 600 430 l 1
 593 430 l 2
 528 430 517 423 517 383 c 2
 517 83 l 2
 517 43 528 36 592 36 c 2
 596 36 l 1
 605 -126 l 1
EndSplineSet
EndChar

